<?xml version="1.0" encoding="UTF-8"?>
<svg xmlns="http://www.w3.org/2000/svg" xmlns:xlink="http://www.w3.org/1999/xlink" width="383pt" height="216pt" viewBox="0 0 383 216">
<defs>
<g>
<g id="glyph-0-0">
<path d="M 0.359375 0 L 0.359375 -8.03125 L 6.734375 -8.03125 L 6.734375 0 Z M 5.734375 -1 L 5.734375 -7.03125 L 1.375 -7.03125 L 1.375 -1 Z M 5.734375 -1 "/>
</g>
<g id="glyph-0-1">
<path d="M 3.03125 -7.828125 C 4.039062 -7.828125 4.773438 -7.410156 5.234375 -6.578125 C 5.578125 -5.929688 5.75 -5.046875 5.75 -3.921875 C 5.75 -2.859375 5.59375 -1.976562 5.28125 -1.28125 C 4.820312 -0.28125 4.070312 0.21875 3.03125 0.21875 C 2.082031 0.21875 1.378906 -0.191406 0.921875 -1.015625 C 0.535156 -1.691406 0.34375 -2.609375 0.34375 -3.765625 C 0.34375 -4.648438 0.457031 -5.410156 0.6875 -6.046875 C 1.125 -7.234375 1.90625 -7.828125 3.03125 -7.828125 Z M 3.015625 -0.6875 C 3.523438 -0.6875 3.929688 -0.910156 4.234375 -1.359375 C 4.535156 -1.816406 4.6875 -2.660156 4.6875 -3.890625 C 4.6875 -4.773438 4.578125 -5.503906 4.359375 -6.078125 C 4.140625 -6.660156 3.71875 -6.953125 3.09375 -6.953125 C 2.507812 -6.953125 2.082031 -6.675781 1.8125 -6.125 C 1.550781 -5.582031 1.421875 -4.78125 1.421875 -3.71875 C 1.421875 -2.914062 1.503906 -2.273438 1.671875 -1.796875 C 1.929688 -1.054688 2.378906 -0.6875 3.015625 -0.6875 Z M 3.015625 -0.6875 "/>
</g>
<g id="glyph-0-2">
<path d="M 0.953125 -1.1875 L 2.09375 -1.1875 L 2.09375 0 L 0.953125 0 Z M 0.953125 -1.1875 "/>
</g>
<g id="glyph-0-3">
<path d="M 1.078125 -5.546875 L 1.078125 -6.296875 C 1.785156 -6.367188 2.28125 -6.484375 2.5625 -6.640625 C 2.84375 -6.804688 3.050781 -7.191406 3.1875 -7.796875 L 3.96875 -7.796875 L 3.96875 0 L 2.921875 0 L 2.921875 -5.546875 Z M 1.078125 -5.546875 "/>
</g>
<g id="glyph-0-4">
<path d="M 0.34375 0 C 0.382812 -0.675781 0.523438 -1.265625 0.765625 -1.765625 C 1.003906 -2.265625 1.476562 -2.71875 2.1875 -3.125 L 3.234375 -3.734375 C 3.703125 -4.003906 4.035156 -4.238281 4.234375 -4.4375 C 4.523438 -4.738281 4.671875 -5.082031 4.671875 -5.46875 C 4.671875 -5.925781 4.535156 -6.285156 4.265625 -6.546875 C 3.992188 -6.816406 3.628906 -6.953125 3.171875 -6.953125 C 2.492188 -6.953125 2.023438 -6.695312 1.765625 -6.1875 C 1.628906 -5.914062 1.554688 -5.535156 1.546875 -5.046875 L 0.546875 -5.046875 C 0.554688 -5.734375 0.679688 -6.289062 0.921875 -6.71875 C 1.347656 -7.476562 2.097656 -7.859375 3.171875 -7.859375 C 4.078125 -7.859375 4.734375 -7.613281 5.140625 -7.125 C 5.554688 -6.644531 5.765625 -6.109375 5.765625 -5.515625 C 5.765625 -4.890625 5.546875 -4.351562 5.109375 -3.90625 C 4.847656 -3.644531 4.390625 -3.332031 3.734375 -2.96875 L 2.984375 -2.546875 C 2.617188 -2.347656 2.335938 -2.160156 2.140625 -1.984375 C 1.773438 -1.671875 1.546875 -1.320312 1.453125 -0.9375 L 5.734375 -0.9375 L 5.734375 0 Z M 0.34375 0 "/>
</g>
<g id="glyph-0-5">
<path d="M 2.90625 0.21875 C 1.976562 0.21875 1.304688 -0.0351562 0.890625 -0.546875 C 0.472656 -1.054688 0.265625 -1.675781 0.265625 -2.40625 L 1.296875 -2.40625 C 1.335938 -1.894531 1.429688 -1.523438 1.578125 -1.296875 C 1.835938 -0.890625 2.300781 -0.6875 2.96875 -0.6875 C 3.476562 -0.6875 3.890625 -0.820312 4.203125 -1.09375 C 4.523438 -1.375 4.6875 -1.734375 4.6875 -2.171875 C 4.6875 -2.710938 4.519531 -3.085938 4.1875 -3.296875 C 3.851562 -3.515625 3.394531 -3.625 2.8125 -3.625 C 2.75 -3.625 2.679688 -3.625 2.609375 -3.625 C 2.546875 -3.625 2.476562 -3.617188 2.40625 -3.609375 L 2.40625 -4.484375 C 2.507812 -4.472656 2.59375 -4.460938 2.65625 -4.453125 C 2.726562 -4.453125 2.804688 -4.453125 2.890625 -4.453125 C 3.253906 -4.453125 3.554688 -4.515625 3.796875 -4.640625 C 4.210938 -4.835938 4.421875 -5.203125 4.421875 -5.734375 C 4.421875 -6.117188 4.28125 -6.414062 4 -6.625 C 3.726562 -6.84375 3.40625 -6.953125 3.03125 -6.953125 C 2.375 -6.953125 1.921875 -6.734375 1.671875 -6.296875 C 1.535156 -6.054688 1.457031 -5.710938 1.4375 -5.265625 L 0.46875 -5.265625 C 0.46875 -5.847656 0.582031 -6.34375 0.8125 -6.75 C 1.21875 -7.476562 1.925781 -7.84375 2.9375 -7.84375 C 3.726562 -7.84375 4.34375 -7.664062 4.78125 -7.3125 C 5.21875 -6.957031 5.4375 -6.441406 5.4375 -5.765625 C 5.4375 -5.285156 5.304688 -4.894531 5.046875 -4.59375 C 4.890625 -4.40625 4.6875 -4.257812 4.4375 -4.15625 C 4.84375 -4.039062 5.160156 -3.820312 5.390625 -3.5 C 5.628906 -3.175781 5.75 -2.78125 5.75 -2.3125 C 5.75 -1.570312 5.5 -0.960938 5 -0.484375 C 4.507812 -0.015625 3.8125 0.21875 2.90625 0.21875 Z M 2.90625 0.21875 "/>
</g>
<g id="glyph-0-6">
<path d="M 3.703125 -2.765625 L 3.703125 -6.328125 L 1.1875 -2.765625 Z M 3.71875 0 L 3.71875 -1.921875 L 0.28125 -1.921875 L 0.28125 -2.875 L 3.875 -7.859375 L 4.703125 -7.859375 L 4.703125 -2.765625 L 5.859375 -2.765625 L 5.859375 -1.921875 L 4.703125 -1.921875 L 4.703125 0 Z M 3.71875 0 "/>
</g>
<g id="glyph-0-7">
<path d="M 3.28125 -7.859375 C 4.15625 -7.859375 4.765625 -7.628906 5.109375 -7.171875 C 5.453125 -6.722656 5.625 -6.257812 5.625 -5.78125 L 4.65625 -5.78125 C 4.59375 -6.09375 4.5 -6.335938 4.375 -6.515625 C 4.132812 -6.835938 3.773438 -7 3.296875 -7 C 2.742188 -7 2.304688 -6.742188 1.984375 -6.234375 C 1.660156 -5.722656 1.476562 -4.992188 1.4375 -4.046875 C 1.664062 -4.378906 1.953125 -4.628906 2.296875 -4.796875 C 2.609375 -4.941406 2.957031 -5.015625 3.34375 -5.015625 C 4 -5.015625 4.570312 -4.804688 5.0625 -4.390625 C 5.550781 -3.972656 5.796875 -3.347656 5.796875 -2.515625 C 5.796875 -1.796875 5.5625 -1.160156 5.09375 -0.609375 C 4.632812 -0.0664062 3.976562 0.203125 3.125 0.203125 C 2.382812 0.203125 1.75 -0.0703125 1.21875 -0.625 C 0.6875 -1.1875 0.421875 -2.125 0.421875 -3.4375 C 0.421875 -4.414062 0.539062 -5.242188 0.78125 -5.921875 C 1.226562 -7.210938 2.0625 -7.859375 3.28125 -7.859375 Z M 3.203125 -0.671875 C 3.722656 -0.671875 4.109375 -0.84375 4.359375 -1.1875 C 4.617188 -1.539062 4.75 -1.953125 4.75 -2.421875 C 4.75 -2.828125 4.632812 -3.210938 4.40625 -3.578125 C 4.175781 -3.941406 3.757812 -4.125 3.15625 -4.125 C 2.726562 -4.125 2.351562 -3.984375 2.03125 -3.703125 C 1.71875 -3.421875 1.5625 -2.992188 1.5625 -2.421875 C 1.5625 -1.929688 1.707031 -1.515625 2 -1.171875 C 2.289062 -0.835938 2.691406 -0.671875 3.203125 -0.671875 Z M 3.203125 -0.671875 "/>
</g>
<g id="glyph-0-8">
<path d="M 3.046875 -4.546875 C 3.484375 -4.546875 3.820312 -4.664062 4.0625 -4.90625 C 4.3125 -5.15625 4.4375 -5.445312 4.4375 -5.78125 C 4.4375 -6.070312 4.316406 -6.335938 4.078125 -6.578125 C 3.847656 -6.828125 3.492188 -6.953125 3.015625 -6.953125 C 2.535156 -6.953125 2.191406 -6.828125 1.984375 -6.578125 C 1.773438 -6.335938 1.671875 -6.054688 1.671875 -5.734375 C 1.671875 -5.359375 1.804688 -5.066406 2.078125 -4.859375 C 2.347656 -4.648438 2.671875 -4.546875 3.046875 -4.546875 Z M 3.109375 -0.671875 C 3.566406 -0.671875 3.941406 -0.789062 4.234375 -1.03125 C 4.535156 -1.28125 4.6875 -1.648438 4.6875 -2.140625 C 4.6875 -2.648438 4.53125 -3.035156 4.21875 -3.296875 C 3.914062 -3.554688 3.519531 -3.6875 3.03125 -3.6875 C 2.5625 -3.6875 2.175781 -3.550781 1.875 -3.28125 C 1.582031 -3.019531 1.4375 -2.648438 1.4375 -2.171875 C 1.4375 -1.765625 1.570312 -1.410156 1.84375 -1.109375 C 2.113281 -0.816406 2.535156 -0.671875 3.109375 -0.671875 Z M 1.703125 -4.171875 C 1.429688 -4.285156 1.21875 -4.421875 1.0625 -4.578125 C 0.78125 -4.867188 0.640625 -5.25 0.640625 -5.71875 C 0.640625 -6.300781 0.847656 -6.800781 1.265625 -7.21875 C 1.691406 -7.644531 2.289062 -7.859375 3.0625 -7.859375 C 3.820312 -7.859375 4.410156 -7.660156 4.828125 -7.265625 C 5.253906 -6.867188 5.46875 -6.40625 5.46875 -5.875 C 5.46875 -5.382812 5.347656 -4.988281 5.109375 -4.6875 C 4.960938 -4.519531 4.742188 -4.351562 4.453125 -4.1875 C 4.773438 -4.03125 5.03125 -3.859375 5.21875 -3.671875 C 5.570312 -3.304688 5.75 -2.832031 5.75 -2.25 C 5.75 -1.5625 5.515625 -0.976562 5.046875 -0.5 C 4.585938 -0.0195312 3.929688 0.21875 3.078125 0.21875 C 2.316406 0.21875 1.671875 0.0117188 1.140625 -0.390625 C 0.617188 -0.804688 0.359375 -1.410156 0.359375 -2.203125 C 0.359375 -2.660156 0.472656 -3.054688 0.703125 -3.390625 C 0.929688 -3.734375 1.265625 -3.992188 1.703125 -4.171875 Z M 1.703125 -4.171875 "/>
</g>
<g id="glyph-0-9">
<path d="M 0.828125 -8.03125 L 2.390625 -8.03125 L 4.6875 -1.234375 L 6.984375 -8.03125 L 8.53125 -8.03125 L 8.53125 0 L 7.5 0 L 7.5 -4.75 C 7.5 -4.90625 7.5 -5.171875 7.5 -5.546875 C 7.507812 -5.929688 7.515625 -6.34375 7.515625 -6.78125 L 5.21875 0 L 4.140625 0 L 1.84375 -6.78125 L 1.84375 -6.53125 C 1.84375 -6.332031 1.84375 -6.03125 1.84375 -5.625 C 1.851562 -5.226562 1.859375 -4.9375 1.859375 -4.75 L 1.859375 0 L 0.828125 0 Z M 0.828125 -8.03125 "/>
</g>
<g id="glyph-0-10">
<path d="M 0.71875 -5.828125 L 1.71875 -5.828125 L 1.71875 0 L 0.71875 0 Z M 0.71875 -8.03125 L 1.71875 -8.03125 L 1.71875 -6.921875 L 0.71875 -6.921875 Z M 0.71875 -8.03125 "/>
</g>
<g id="glyph-0-11">
<path d="M 0.171875 -5.859375 L 1.4375 -5.859375 L 2.78125 -3.796875 L 4.140625 -5.859375 L 5.34375 -5.828125 L 3.375 -3 L 5.4375 0 L 4.171875 0 L 2.71875 -2.203125 L 1.3125 0 L 0.0625 0 L 2.125 -3 Z M 0.171875 -5.859375 "/>
</g>
<g id="glyph-0-12">
<path d="M 0.921875 -7.5 L 1.921875 -7.5 L 1.921875 -5.859375 L 2.84375 -5.859375 L 2.84375 -5.046875 L 1.921875 -5.046875 L 1.921875 -1.234375 C 1.921875 -1.023438 1.988281 -0.890625 2.125 -0.828125 C 2.195312 -0.785156 2.320312 -0.765625 2.5 -0.765625 C 2.550781 -0.765625 2.601562 -0.765625 2.65625 -0.765625 C 2.707031 -0.765625 2.769531 -0.769531 2.84375 -0.78125 L 2.84375 0 C 2.738281 0.03125 2.625 0.0507812 2.5 0.0625 C 2.375 0.0820312 2.238281 0.09375 2.09375 0.09375 C 1.632812 0.09375 1.320312 -0.0195312 1.15625 -0.25 C 1 -0.488281 0.921875 -0.796875 0.921875 -1.171875 L 0.921875 -5.046875 L 0.125 -5.046875 L 0.125 -5.859375 L 0.921875 -5.859375 Z M 0.921875 -7.5 "/>
</g>
<g id="glyph-0-13">
<path d="M 1.703125 -5.859375 L 1.703125 -1.96875 C 1.703125 -1.664062 1.75 -1.421875 1.84375 -1.234375 C 2.019531 -0.890625 2.347656 -0.71875 2.828125 -0.71875 C 3.515625 -0.71875 3.984375 -1.019531 4.234375 -1.625 C 4.367188 -1.957031 4.4375 -2.410156 4.4375 -2.984375 L 4.4375 -5.859375 L 5.421875 -5.859375 L 5.421875 0 L 4.484375 0 L 4.5 -0.859375 C 4.375 -0.640625 4.210938 -0.453125 4.015625 -0.296875 C 3.640625 0.00390625 3.1875 0.15625 2.65625 0.15625 C 1.820312 0.15625 1.253906 -0.117188 0.953125 -0.671875 C 0.785156 -0.972656 0.703125 -1.375 0.703125 -1.875 L 0.703125 -5.859375 Z M 3.0625 -6 Z M 3.0625 -6 "/>
</g>
<g id="glyph-0-14">
<path d="M 0.75 -5.859375 L 1.6875 -5.859375 L 1.6875 -4.84375 C 1.757812 -5.039062 1.945312 -5.28125 2.25 -5.5625 C 2.550781 -5.84375 2.894531 -5.984375 3.28125 -5.984375 C 3.300781 -5.984375 3.332031 -5.984375 3.375 -5.984375 C 3.414062 -5.984375 3.488281 -5.976562 3.59375 -5.96875 L 3.59375 -4.921875 C 3.539062 -4.929688 3.488281 -4.9375 3.4375 -4.9375 C 3.382812 -4.945312 3.332031 -4.953125 3.28125 -4.953125 C 2.78125 -4.953125 2.394531 -4.789062 2.125 -4.46875 C 1.863281 -4.15625 1.734375 -3.789062 1.734375 -3.375 L 1.734375 0 L 0.75 0 Z M 0.75 -5.859375 "/>
</g>
<g id="glyph-0-15">
<path d="M 3.15625 -5.984375 C 3.570312 -5.984375 3.972656 -5.882812 4.359375 -5.6875 C 4.753906 -5.5 5.054688 -5.25 5.265625 -4.9375 C 5.460938 -4.644531 5.59375 -4.300781 5.65625 -3.90625 C 5.71875 -3.632812 5.75 -3.203125 5.75 -2.609375 L 1.453125 -2.609375 C 1.472656 -2.015625 1.613281 -1.535156 1.875 -1.171875 C 2.132812 -0.816406 2.539062 -0.640625 3.09375 -0.640625 C 3.601562 -0.640625 4.015625 -0.8125 4.328125 -1.15625 C 4.492188 -1.351562 4.613281 -1.582031 4.6875 -1.84375 L 5.65625 -1.84375 C 5.632812 -1.625 5.550781 -1.378906 5.40625 -1.109375 C 5.257812 -0.847656 5.097656 -0.632812 4.921875 -0.46875 C 4.617188 -0.175781 4.25 0.0195312 3.8125 0.125 C 3.570312 0.175781 3.304688 0.203125 3.015625 0.203125 C 2.285156 0.203125 1.664062 -0.0625 1.15625 -0.59375 C 0.644531 -1.125 0.390625 -1.863281 0.390625 -2.8125 C 0.390625 -3.757812 0.644531 -4.523438 1.15625 -5.109375 C 1.664062 -5.691406 2.332031 -5.984375 3.15625 -5.984375 Z M 4.734375 -3.390625 C 4.691406 -3.816406 4.597656 -4.160156 4.453125 -4.421875 C 4.179688 -4.890625 3.734375 -5.125 3.109375 -5.125 C 2.648438 -5.125 2.265625 -4.960938 1.953125 -4.640625 C 1.648438 -4.316406 1.492188 -3.898438 1.484375 -3.390625 Z M 3.0625 -6 Z M 3.0625 -6 "/>
</g>
<g id="glyph-0-16">
<path d="M 1.484375 -1.890625 C 1.515625 -1.347656 1.722656 -0.972656 2.109375 -0.765625 C 2.316406 -0.660156 2.546875 -0.609375 2.796875 -0.609375 C 3.265625 -0.609375 3.664062 -0.800781 4 -1.1875 C 4.332031 -1.582031 4.566406 -2.378906 4.703125 -3.578125 C 4.484375 -3.234375 4.210938 -2.988281 3.890625 -2.84375 C 3.566406 -2.707031 3.21875 -2.640625 2.84375 -2.640625 C 2.09375 -2.640625 1.5 -2.875 1.0625 -3.34375 C 0.625 -3.8125 0.40625 -4.414062 0.40625 -5.15625 C 0.40625 -5.863281 0.617188 -6.488281 1.046875 -7.03125 C 1.484375 -7.570312 2.125 -7.84375 2.96875 -7.84375 C 4.113281 -7.84375 4.898438 -7.328125 5.328125 -6.296875 C 5.566406 -5.734375 5.6875 -5.023438 5.6875 -4.171875 C 5.6875 -3.210938 5.546875 -2.363281 5.265625 -1.625 C 4.785156 -0.394531 3.972656 0.21875 2.828125 0.21875 C 2.066406 0.21875 1.488281 0.0195312 1.09375 -0.375 C 0.695312 -0.78125 0.5 -1.285156 0.5 -1.890625 Z M 2.984375 -3.5 C 3.367188 -3.5 3.722656 -3.625 4.046875 -3.875 C 4.367188 -4.132812 4.53125 -4.585938 4.53125 -5.234375 C 4.53125 -5.804688 4.382812 -6.234375 4.09375 -6.515625 C 3.8125 -6.804688 3.445312 -6.953125 3 -6.953125 C 2.507812 -6.953125 2.125 -6.789062 1.84375 -6.46875 C 1.5625 -6.144531 1.421875 -5.710938 1.421875 -5.171875 C 1.421875 -4.660156 1.546875 -4.253906 1.796875 -3.953125 C 2.046875 -3.648438 2.441406 -3.5 2.984375 -3.5 Z M 2.984375 -3.5 "/>
</g>
<g id="glyph-0-17">
</g>
<g id="glyph-0-18">
<path d="M 0.640625 -4.9375 L 1.28125 -5.578125 L 3.359375 -3.515625 L 5.4375 -5.578125 L 6.09375 -4.9375 L 4.015625 -2.859375 L 6.09375 -0.78125 L 5.4375 -0.125 L 3.359375 -2.203125 L 1.28125 -0.125 L 0.640625 -0.78125 L 2.703125 -2.859375 Z M 0.640625 -4.9375 "/>
</g>
<g id="glyph-0-19">
<path d="M 0.859375 -8.03125 L 2.140625 -8.03125 L 6.203125 -1.53125 L 6.203125 -8.03125 L 7.234375 -8.03125 L 7.234375 0 L 6.015625 0 L 1.890625 -6.5 L 1.890625 0 L 0.859375 0 Z M 3.96875 -8.03125 Z M 3.96875 -8.03125 "/>
</g>
<g id="glyph-0-20">
<path d="M 3.3125 -8.171875 C 2.738281 -7.054688 2.367188 -6.238281 2.203125 -5.71875 C 1.941406 -4.914062 1.8125 -3.988281 1.8125 -2.9375 C 1.8125 -1.882812 1.957031 -0.921875 2.25 -0.046875 C 2.4375 0.492188 2.796875 1.269531 3.328125 2.28125 L 2.671875 2.28125 C 2.140625 1.457031 1.804688 0.925781 1.671875 0.6875 C 1.546875 0.457031 1.410156 0.148438 1.265625 -0.234375 C 1.054688 -0.773438 0.914062 -1.351562 0.84375 -1.96875 C 0.800781 -2.28125 0.78125 -2.582031 0.78125 -2.875 C 0.78125 -3.957031 0.945312 -4.921875 1.28125 -5.765625 C 1.5 -6.296875 1.945312 -7.097656 2.625 -8.171875 Z M 3.3125 -8.171875 "/>
</g>
<g id="glyph-0-21">
<path d="M 0.9375 1.140625 C 1.1875 1.097656 1.359375 0.921875 1.453125 0.609375 C 1.515625 0.441406 1.546875 0.285156 1.546875 0.140625 C 1.546875 0.109375 1.539062 0.0820312 1.53125 0.0625 C 1.53125 0.0390625 1.53125 0.0195312 1.53125 0 L 0.9375 0 L 0.9375 -1.1875 L 2.09375 -1.1875 L 2.09375 -0.09375 C 2.09375 0.34375 2.003906 0.722656 1.828125 1.046875 C 1.660156 1.378906 1.363281 1.582031 0.9375 1.65625 Z M 0.9375 1.140625 "/>
</g>
<g id="glyph-0-22">
<path d="M 0.390625 2.28125 C 0.972656 1.15625 1.347656 0.332031 1.515625 -0.1875 C 1.765625 -0.96875 1.890625 -1.882812 1.890625 -2.9375 C 1.890625 -4 1.742188 -4.96875 1.453125 -5.84375 C 1.265625 -6.375 0.90625 -7.148438 0.375 -8.171875 L 1.03125 -8.171875 C 1.59375 -7.273438 1.929688 -6.71875 2.046875 -6.5 C 2.171875 -6.289062 2.300781 -6.003906 2.4375 -5.640625 C 2.613281 -5.179688 2.738281 -4.726562 2.8125 -4.28125 C 2.882812 -3.84375 2.921875 -3.414062 2.921875 -3 C 2.921875 -1.925781 2.75 -0.960938 2.40625 -0.109375 C 2.195312 0.429688 1.753906 1.226562 1.078125 2.28125 Z M 0.390625 2.28125 "/>
</g>
<g id="glyph-0-23">
<path d="M 1.390625 -2 C 1.453125 -1.4375 1.710938 -1.046875 2.171875 -0.828125 C 2.398438 -0.722656 2.664062 -0.671875 2.96875 -0.671875 C 3.550781 -0.671875 3.984375 -0.851562 4.265625 -1.21875 C 4.546875 -1.59375 4.6875 -2.007812 4.6875 -2.46875 C 4.6875 -3.007812 4.519531 -3.425781 4.1875 -3.71875 C 3.851562 -4.019531 3.457031 -4.171875 3 -4.171875 C 2.65625 -4.171875 2.359375 -4.101562 2.109375 -3.96875 C 1.867188 -3.84375 1.664062 -3.664062 1.5 -3.4375 L 0.640625 -3.484375 L 1.234375 -7.703125 L 5.3125 -7.703125 L 5.3125 -6.75 L 1.984375 -6.75 L 1.640625 -4.578125 C 1.828125 -4.710938 2.003906 -4.816406 2.171875 -4.890625 C 2.460938 -5.003906 2.796875 -5.0625 3.171875 -5.0625 C 3.890625 -5.0625 4.5 -4.828125 5 -4.359375 C 5.5 -3.898438 5.75 -3.316406 5.75 -2.609375 C 5.75 -1.867188 5.519531 -1.210938 5.0625 -0.640625 C 4.601562 -0.078125 3.875 0.203125 2.875 0.203125 C 2.238281 0.203125 1.675781 0.0234375 1.1875 -0.328125 C 0.695312 -0.691406 0.421875 -1.25 0.359375 -2 Z M 1.390625 -2 "/>
</g>
<g id="glyph-1-0">
<path d="M 0.453125 0 L 0.453125 -10.046875 L 8.421875 -10.046875 L 8.421875 0 Z M 7.171875 -1.265625 L 7.171875 -8.78125 L 1.703125 -8.78125 L 1.703125 -1.265625 Z M 7.171875 -1.265625 "/>
</g>
<g id="glyph-1-1">
<path d="M 0.203125 -7.328125 L 1.796875 -7.328125 L 3.484375 -4.75 L 5.1875 -7.328125 L 6.671875 -7.28125 L 4.21875 -3.75 L 6.78125 0 L 5.21875 0 L 3.390625 -2.75 L 1.640625 0 L 0.078125 0 L 2.65625 -3.75 Z M 0.203125 -7.328125 "/>
</g>
<g id="glyph-2-0">
<path d="M 0 -0.453125 L -10.046875 -0.453125 L -10.046875 -8.421875 L 0 -8.421875 Z M -1.265625 -7.171875 L -8.78125 -7.171875 L -8.78125 -1.703125 L -1.265625 -1.703125 Z M -1.265625 -7.171875 "/>
</g>
<g id="glyph-2-1">
<path d="M -3.578125 -1.6875 C -2.796875 -1.6875 -2.140625 -1.851562 -1.609375 -2.1875 C -1.078125 -2.519531 -0.8125 -3.050781 -0.8125 -3.78125 C -0.8125 -4.351562 -1.054688 -4.820312 -1.546875 -5.1875 C -2.035156 -5.550781 -2.738281 -5.734375 -3.65625 -5.734375 C -4.582031 -5.734375 -5.265625 -5.539062 -5.703125 -5.15625 C -6.148438 -4.78125 -6.375 -4.316406 -6.375 -3.765625 C -6.375 -3.148438 -6.132812 -2.648438 -5.65625 -2.265625 C -5.1875 -1.878906 -4.492188 -1.6875 -3.578125 -1.6875 Z M -7.453125 -3.53125 C -7.453125 -4.09375 -7.332031 -4.5625 -7.09375 -4.9375 C -6.957031 -5.15625 -6.71875 -5.40625 -6.375 -5.6875 L -10.078125 -5.6875 L -10.078125 -6.875 L 0 -6.875 L 0 -5.765625 L -1.015625 -5.765625 C -0.566406 -5.472656 -0.238281 -5.128906 -0.03125 -4.734375 C 0.164062 -4.347656 0.265625 -3.898438 0.265625 -3.390625 C 0.265625 -2.578125 -0.078125 -1.875 -0.765625 -1.28125 C -1.453125 -0.6875 -2.363281 -0.390625 -3.5 -0.390625 C -4.570312 -0.390625 -5.5 -0.660156 -6.28125 -1.203125 C -7.0625 -1.742188 -7.453125 -2.519531 -7.453125 -3.53125 Z M -7.453125 -3.53125 "/>
</g>
<g id="glyph-2-2">
<path d="M -7.484375 -3.953125 C -7.484375 -4.472656 -7.359375 -4.972656 -7.109375 -5.453125 C -6.867188 -5.941406 -6.554688 -6.316406 -6.171875 -6.578125 C -5.804688 -6.828125 -5.375 -6.988281 -4.875 -7.0625 C -4.539062 -7.132812 -4.003906 -7.171875 -3.265625 -7.171875 L -3.265625 -1.8125 C -2.523438 -1.832031 -1.929688 -2.003906 -1.484375 -2.328125 C -1.035156 -2.660156 -0.8125 -3.171875 -0.8125 -3.859375 C -0.8125 -4.503906 -1.019531 -5.019531 -1.4375 -5.40625 C -1.6875 -5.625 -1.972656 -5.773438 -2.296875 -5.859375 L -2.296875 -7.078125 C -2.023438 -7.046875 -1.722656 -6.9375 -1.390625 -6.75 C -1.066406 -6.570312 -0.800781 -6.375 -0.59375 -6.15625 C -0.226562 -5.78125 0.0195312 -5.316406 0.15625 -4.765625 C 0.226562 -4.472656 0.265625 -4.140625 0.265625 -3.765625 C 0.265625 -2.847656 -0.0664062 -2.070312 -0.734375 -1.4375 C -1.398438 -0.8125 -2.328125 -0.5 -3.515625 -0.5 C -4.691406 -0.5 -5.644531 -0.816406 -6.375 -1.453125 C -7.113281 -2.085938 -7.484375 -2.921875 -7.484375 -3.953125 Z M -4.25 -5.90625 C -4.78125 -5.863281 -5.207031 -5.75 -5.53125 -5.5625 C -6.113281 -5.226562 -6.40625 -4.664062 -6.40625 -3.875 C -6.40625 -3.3125 -6.203125 -2.835938 -5.796875 -2.453125 C -5.390625 -2.066406 -4.875 -1.863281 -4.25 -1.84375 Z M -7.5 -3.828125 Z M -7.5 -3.828125 "/>
</g>
<g id="glyph-2-3">
<path d="M -7.328125 -0.90625 L -7.328125 -2.078125 L -6.28125 -2.078125 C -6.707031 -2.421875 -7.015625 -2.785156 -7.203125 -3.171875 C -7.390625 -3.554688 -7.484375 -3.988281 -7.484375 -4.46875 C -7.484375 -5.5 -7.125 -6.195312 -6.40625 -6.5625 C -6 -6.769531 -5.429688 -6.875 -4.703125 -6.875 L 0 -6.875 L 0 -5.625 L -4.609375 -5.625 C -5.054688 -5.625 -5.414062 -5.554688 -5.6875 -5.421875 C -6.144531 -5.203125 -6.375 -4.804688 -6.375 -4.234375 C -6.375 -3.941406 -6.347656 -3.703125 -6.296875 -3.515625 C -6.191406 -3.179688 -5.988281 -2.882812 -5.6875 -2.625 C -5.445312 -2.414062 -5.195312 -2.28125 -4.9375 -2.21875 C -4.675781 -2.164062 -4.304688 -2.140625 -3.828125 -2.140625 L 0 -2.140625 L 0 -0.90625 Z M -7.5 -3.796875 Z M -7.5 -3.796875 "/>
</g>
<g id="glyph-2-4">
<path d="M -2.296875 -1.640625 C -1.890625 -1.671875 -1.578125 -1.769531 -1.359375 -1.9375 C -0.960938 -2.25 -0.765625 -2.789062 -0.765625 -3.5625 C -0.765625 -4.007812 -0.863281 -4.40625 -1.0625 -4.75 C -1.257812 -5.101562 -1.5625 -5.28125 -1.96875 -5.28125 C -2.289062 -5.28125 -2.53125 -5.140625 -2.6875 -4.859375 C -2.789062 -4.679688 -2.910156 -4.332031 -3.046875 -3.8125 L -3.28125 -2.828125 C -3.4375 -2.203125 -3.613281 -1.742188 -3.8125 -1.453125 C -4.144531 -0.921875 -4.601562 -0.65625 -5.1875 -0.65625 C -5.882812 -0.65625 -6.445312 -0.90625 -6.875 -1.40625 C -7.300781 -1.90625 -7.515625 -2.578125 -7.515625 -3.421875 C -7.515625 -4.523438 -7.191406 -5.316406 -6.546875 -5.796875 C -6.128906 -6.109375 -5.6875 -6.257812 -5.21875 -6.25 L -5.21875 -5.09375 C -5.5 -5.0625 -5.75 -4.960938 -5.96875 -4.796875 C -6.289062 -4.515625 -6.453125 -4.023438 -6.453125 -3.328125 C -6.453125 -2.859375 -6.363281 -2.503906 -6.1875 -2.265625 C -6.007812 -2.023438 -5.773438 -1.90625 -5.484375 -1.90625 C -5.171875 -1.90625 -4.914062 -2.0625 -4.71875 -2.375 C -4.601562 -2.5625 -4.503906 -2.832031 -4.421875 -3.1875 L -4.21875 -4 C -4.007812 -4.882812 -3.804688 -5.476562 -3.609375 -5.78125 C -3.285156 -6.257812 -2.789062 -6.5 -2.125 -6.5 C -1.46875 -6.5 -0.898438 -6.25 -0.421875 -5.75 C 0.0429688 -5.257812 0.28125 -4.507812 0.28125 -3.5 C 0.28125 -2.40625 0.0351562 -1.628906 -0.453125 -1.171875 C -0.953125 -0.722656 -1.566406 -0.484375 -2.296875 -0.453125 Z M -7.5 -3.453125 Z M -7.5 -3.453125 "/>
</g>
<g id="glyph-2-5">
<path d="M -7.28125 -0.90625 L -7.28125 -2.15625 L 0 -2.15625 L 0 -0.90625 Z M -10.046875 -0.90625 L -10.046875 -2.15625 L -8.640625 -2.15625 L -8.640625 -0.90625 Z M -10.046875 -0.90625 "/>
</g>
<g id="glyph-2-6">
<path d="M -9.359375 -1.15625 L -9.359375 -2.390625 L -7.328125 -2.390625 L -7.328125 -3.5625 L -6.3125 -3.5625 L -6.3125 -2.390625 L -1.53125 -2.390625 C -1.28125 -2.390625 -1.113281 -2.476562 -1.03125 -2.65625 C -0.976562 -2.75 -0.953125 -2.90625 -0.953125 -3.125 C -0.953125 -3.1875 -0.953125 -3.25 -0.953125 -3.3125 C -0.953125 -3.382812 -0.957031 -3.46875 -0.96875 -3.5625 L 0 -3.5625 C 0.0390625 -3.414062 0.0664062 -3.265625 0.078125 -3.109375 C 0.0976562 -2.960938 0.109375 -2.800781 0.109375 -2.625 C 0.109375 -2.050781 -0.0351562 -1.660156 -0.328125 -1.453125 C -0.617188 -1.253906 -1 -1.15625 -1.46875 -1.15625 L -6.3125 -1.15625 L -6.3125 -0.15625 L -7.328125 -0.15625 L -7.328125 -1.15625 Z M -9.359375 -1.15625 "/>
</g>
<g id="glyph-2-7">
<path d="M -7.328125 -5.46875 L -7.328125 -6.84375 C -6.859375 -6.664062 -5.785156 -6.28125 -4.109375 -5.6875 C -2.847656 -5.238281 -1.820312 -4.863281 -1.03125 -4.5625 C 0.832031 -3.851562 1.96875 -3.351562 2.375 -3.0625 C 2.789062 -2.769531 3 -2.265625 3 -1.546875 C 3 -1.378906 2.988281 -1.25 2.96875 -1.15625 C 2.957031 -1.0625 2.9375 -0.945312 2.90625 -0.8125 L 1.78125 -0.8125 C 1.84375 -1.019531 1.878906 -1.171875 1.890625 -1.265625 C 1.910156 -1.367188 1.921875 -1.457031 1.921875 -1.53125 C 1.921875 -1.75 1.878906 -1.910156 1.796875 -2.015625 C 1.722656 -2.128906 1.632812 -2.222656 1.53125 -2.296875 C 1.488281 -2.316406 1.296875 -2.394531 0.953125 -2.53125 C 0.617188 -2.675781 0.375 -2.78125 0.21875 -2.84375 L -7.328125 -0.140625 L -7.328125 -1.53125 L -1.359375 -3.5 Z M -7.5 -3.5 Z M -7.5 -3.5 "/>
</g>
</g>
</defs>
<rect x="-38.3" y="-21.6" width="459.6" height="259.2" fill="rgb(100%, 100%, 100%)" fill-opacity="1"/>
<rect x="-38.3" y="-21.6" width="459.6" height="259.2" fill="rgb(100%, 100%, 100%)" fill-opacity="1"/>
<path fill="none" stroke-width="2.774144" stroke-linecap="butt" stroke-linejoin="round" stroke="rgb(0%, 0%, 0%)" stroke-opacity="1" stroke-miterlimit="10" d="M 56.652344 151.636719 L 56.984375 151.566406 L 57.316406 151.492188 L 57.644531 151.417969 L 58.308594 151.253906 L 58.640625 151.167969 L 58.96875 151.078125 L 59.300781 150.984375 L 59.964844 150.789062 L 60.292969 150.683594 L 60.957031 150.464844 L 61.289062 150.347656 L 61.617188 150.226562 L 61.949219 150.101562 L 62.28125 149.972656 L 62.613281 149.835938 L 62.941406 149.695312 L 63.273438 149.554688 L 63.9375 149.25 L 64.265625 149.089844 L 64.597656 148.921875 L 64.929688 148.75 L 65.261719 148.574219 L 65.589844 148.390625 L 65.921875 148.199219 L 66.253906 148.003906 L 66.585938 147.800781 L 66.914062 147.59375 L 67.246094 147.375 L 67.578125 147.152344 L 67.910156 146.921875 L 68.238281 146.683594 L 68.570312 146.441406 L 68.902344 146.1875 L 69.234375 145.925781 L 69.5625 145.660156 L 69.894531 145.382812 L 70.226562 145.097656 L 70.558594 144.800781 L 70.886719 144.5 L 71.21875 144.1875 L 71.550781 143.867188 L 71.882812 143.539062 L 72.210938 143.199219 L 72.542969 142.851562 L 72.875 142.492188 L 73.207031 142.125 L 73.535156 141.746094 L 73.867188 141.355469 L 74.199219 140.957031 L 74.53125 140.546875 L 74.863281 140.128906 L 75.191406 139.695312 L 75.523438 139.253906 L 75.855469 138.796875 L 76.1875 138.332031 L 76.515625 137.855469 L 76.847656 137.367188 L 77.179688 136.867188 L 77.511719 136.351562 L 77.839844 135.828125 L 78.171875 135.289062 L 78.503906 134.742188 L 78.835938 134.179688 L 79.164062 133.601562 L 79.496094 133.015625 L 79.828125 132.414062 L 80.160156 131.796875 L 80.488281 131.171875 L 80.820312 130.53125 L 81.152344 129.875 L 81.484375 129.207031 L 81.8125 128.527344 L 82.144531 127.832031 L 82.476562 127.125 L 82.808594 126.402344 L 83.136719 125.664062 L 83.46875 124.914062 L 83.800781 124.148438 L 84.132812 123.371094 L 84.460938 122.582031 L 84.792969 121.773438 L 85.125 120.953125 L 85.457031 120.121094 L 85.785156 119.273438 L 86.117188 118.410156 L 86.449219 117.535156 L 86.78125 116.648438 L 87.109375 115.742188 L 87.441406 114.828125 L 87.773438 113.898438 L 88.105469 112.953125 L 88.433594 111.996094 L 88.765625 111.027344 L 89.097656 110.042969 L 89.429688 109.046875 L 89.757812 108.035156 L 90.089844 107.015625 L 90.421875 105.980469 L 90.753906 104.933594 L 91.082031 103.875 L 91.414062 102.804688 L 91.746094 101.722656 L 92.078125 100.628906 L 92.40625 99.523438 L 92.738281 98.40625 L 93.070312 97.28125 L 93.402344 96.144531 L 93.730469 94.996094 L 94.0625 93.839844 L 94.394531 92.675781 L 94.726562 91.5 L 95.054688 90.316406 L 95.386719 89.125 L 95.71875 87.925781 L 96.050781 86.71875 L 96.378906 85.507812 L 96.710938 84.285156 L 97.042969 83.058594 L 97.375 81.828125 L 97.703125 80.589844 L 98.035156 79.347656 L 98.367188 78.101562 L 98.699219 76.851562 L 99.027344 75.597656 L 99.691406 73.082031 L 100.023438 71.820312 L 100.351562 70.558594 L 101.347656 66.773438 L 101.675781 65.511719 L 102.007812 64.25 L 102.339844 62.992188 L 102.671875 61.738281 L 103.003906 60.488281 L 103.332031 59.242188 L 103.664062 58 L 104.328125 55.53125 L 104.65625 54.308594 L 104.988281 53.09375 L 105.320312 51.882812 L 105.652344 50.683594 L 105.980469 49.492188 L 106.3125 48.308594 L 106.644531 47.136719 L 106.976562 45.980469 L 107.304688 44.832031 L 107.636719 43.695312 L 107.96875 42.570312 L 108.300781 41.460938 L 108.628906 40.367188 L 108.960938 39.289062 L 109.292969 38.222656 L 109.625 37.175781 L 109.953125 36.144531 L 110.285156 35.128906 L 110.617188 34.132812 L 110.949219 33.15625 L 111.277344 32.199219 L 111.609375 31.261719 L 111.941406 30.34375 L 112.273438 29.445312 L 112.601562 28.570312 L 112.933594 27.71875 L 113.265625 26.886719 L 113.597656 26.078125 L 113.925781 25.296875 L 114.257812 24.535156 L 114.589844 23.800781 L 114.921875 23.089844 L 115.25 22.40625 L 115.582031 21.746094 L 115.914062 21.113281 L 116.246094 20.507812 L 116.574219 19.929688 L 116.90625 19.378906 L 117.238281 18.855469 L 117.570312 18.363281 L 117.898438 17.894531 L 118.230469 17.457031 L 118.5625 17.050781 L 118.894531 16.671875 L 119.222656 16.320312 L 119.554688 16.003906 L 119.886719 15.714844 L 120.21875 15.453125 L 120.546875 15.226562 L 120.878906 15.027344 L 121.210938 14.859375 L 121.542969 14.722656 L 121.871094 14.617188 L 122.203125 14.542969 L 122.535156 14.5 L 122.867188 14.488281 L 123.195312 14.503906 L 123.527344 14.554688 L 123.859375 14.632812 L 124.191406 14.746094 L 124.519531 14.886719 L 124.851562 15.058594 L 125.183594 15.261719 L 125.515625 15.492188 L 125.84375 15.757812 L 126.175781 16.050781 L 126.507812 16.371094 L 126.839844 16.722656 L 127.167969 17.105469 L 127.5 17.515625 L 127.832031 17.953125 L 128.164062 18.421875 L 128.492188 18.917969 L 128.824219 19.4375 L 129.15625 19.988281 L 129.488281 20.566406 L 129.816406 21.171875 L 130.148438 21.800781 L 130.480469 22.453125 L 130.8125 23.136719 L 131.144531 23.839844 L 131.472656 24.570312 L 131.804688 25.324219 L 132.136719 26.097656 L 132.46875 26.898438 L 132.796875 27.71875 L 133.128906 28.5625 L 133.460938 29.425781 L 133.792969 30.308594 L 134.121094 31.210938 L 134.453125 32.136719 L 134.785156 33.078125 L 135.117188 34.035156 L 135.445312 35.015625 L 135.777344 36.007812 L 136.109375 37.019531 L 136.441406 38.042969 L 136.769531 39.085938 L 137.101562 40.140625 L 137.433594 41.207031 L 137.765625 42.289062 L 138.09375 43.382812 L 138.425781 44.488281 L 138.757812 45.605469 L 139.089844 46.730469 L 139.417969 47.867188 L 139.75 49.011719 L 140.082031 50.164062 L 140.414062 51.328125 L 140.742188 52.496094 L 141.074219 53.667969 L 141.40625 54.847656 L 141.738281 56.03125 L 142.066406 57.222656 L 142.398438 58.414062 L 142.730469 59.609375 L 143.0625 60.808594 L 143.390625 62.007812 L 143.722656 63.207031 L 144.054688 64.410156 L 144.386719 65.609375 L 144.714844 66.8125 L 145.046875 68.011719 L 145.710938 70.402344 L 146.039062 71.59375 L 146.371094 72.785156 L 146.703125 73.96875 L 147.035156 75.148438 L 147.363281 76.324219 L 147.695312 77.492188 L 148.027344 78.652344 L 148.359375 79.808594 L 148.6875 80.960938 L 149.019531 82.101562 L 149.351562 83.234375 L 149.683594 84.359375 L 150.011719 85.476562 L 150.34375 86.582031 L 150.675781 87.679688 L 151.007812 88.765625 L 151.335938 89.84375 L 151.667969 90.910156 L 152 91.964844 L 152.332031 93.007812 L 152.660156 94.042969 L 152.992188 95.0625 L 153.324219 96.070312 L 153.65625 97.0625 L 153.984375 98.046875 L 154.316406 99.015625 L 154.648438 99.972656 L 154.980469 100.914062 L 155.308594 101.84375 L 155.640625 102.757812 L 155.972656 103.65625 L 156.304688 104.542969 L 156.632812 105.417969 L 156.964844 106.273438 L 157.296875 107.117188 L 157.628906 107.949219 L 157.960938 108.761719 L 158.289062 109.5625 L 158.621094 110.34375 L 158.953125 111.113281 L 159.285156 111.867188 L 159.613281 112.609375 L 159.945312 113.332031 L 160.277344 114.042969 L 160.609375 114.738281 L 160.9375 115.417969 L 161.269531 116.082031 L 161.601562 116.730469 L 161.933594 117.367188 L 162.261719 117.988281 L 162.59375 118.59375 L 162.925781 119.183594 L 163.257812 119.761719 L 163.585938 120.324219 L 163.917969 120.871094 L 164.25 121.40625 L 164.582031 121.925781 L 164.910156 122.433594 L 165.242188 122.925781 L 165.574219 123.402344 L 165.90625 123.871094 L 166.234375 124.324219 L 166.566406 124.761719 L 166.898438 125.1875 L 167.230469 125.601562 L 167.558594 126.003906 L 167.890625 126.394531 L 168.222656 126.769531 L 168.554688 127.136719 L 168.882812 127.488281 L 169.214844 127.832031 L 169.546875 128.164062 L 169.878906 128.484375 L 170.207031 128.792969 L 170.539062 129.089844 L 170.871094 129.378906 L 171.203125 129.660156 L 171.53125 129.925781 L 171.863281 130.1875 L 172.195312 130.4375 L 172.527344 130.675781 L 172.855469 130.910156 L 173.1875 131.132812 L 173.519531 131.347656 L 173.851562 131.554688 L 174.179688 131.753906 L 174.511719 131.945312 L 174.84375 132.128906 L 175.175781 132.308594 L 175.503906 132.480469 L 176.167969 132.800781 L 176.5 132.953125 L 176.828125 133.097656 L 177.160156 133.238281 L 177.492188 133.371094 L 177.824219 133.5 L 178.152344 133.625 L 178.484375 133.746094 L 179.148438 133.972656 L 179.476562 134.078125 L 180.140625 134.28125 L 180.472656 134.375 L 180.800781 134.46875 L 181.464844 134.648438 L 181.796875 134.730469 L 182.125 134.816406 L 183.121094 135.050781 L 183.449219 135.125 L 183.78125 135.195312 L 184.113281 135.269531 L 184.445312 135.339844 L 184.773438 135.410156 L 185.105469 135.480469 L 185.769531 135.613281 L 186.101562 135.683594 L 186.429688 135.75 L 187.425781 135.949219 L 187.753906 136.019531 L 188.085938 136.085938 L 188.417969 136.15625 L 188.75 136.222656 L 189.078125 136.292969 L 189.742188 136.433594 L 190.074219 136.507812 L 190.402344 136.578125 L 191.066406 136.726562 L 191.398438 136.804688 L 191.726562 136.882812 L 192.058594 136.960938 L 192.722656 137.125 L 193.050781 137.207031 L 193.714844 137.378906 L 194.046875 137.46875 L 194.375 137.558594 L 194.707031 137.648438 L 195.371094 137.835938 L 195.699219 137.933594 L 196.363281 138.128906 L 196.695312 138.230469 L 197.023438 138.335938 L 197.355469 138.4375 L 197.6875 138.546875 L 198.019531 138.652344 L 198.347656 138.761719 L 199.34375 139.101562 L 199.671875 139.21875 L 200.003906 139.335938 L 200.667969 139.578125 L 200.996094 139.699219 L 201.992188 140.074219 L 202.320312 140.203125 L 202.984375 140.460938 L 203.316406 140.59375 L 203.644531 140.722656 L 203.976562 140.859375 L 204.308594 140.992188 L 204.640625 141.128906 L 204.96875 141.265625 L 205.632812 141.539062 L 205.964844 141.679688 L 206.292969 141.816406 L 207.289062 142.238281 L 207.617188 142.382812 L 208.28125 142.664062 L 208.613281 142.808594 L 208.941406 142.953125 L 209.273438 143.09375 L 209.605469 143.238281 L 209.9375 143.378906 L 210.265625 143.523438 L 210.597656 143.667969 L 210.929688 143.808594 L 211.261719 143.953125 L 211.589844 144.097656 L 212.253906 144.378906 L 212.585938 144.523438 L 212.917969 144.664062 L 213.246094 144.804688 L 213.910156 145.085938 L 214.242188 145.222656 L 214.570312 145.363281 L 215.566406 145.773438 L 215.894531 145.90625 L 216.226562 146.042969 L 216.890625 146.308594 L 217.21875 146.441406 L 218.214844 146.828125 L 218.542969 146.953125 L 218.875 147.082031 L 219.207031 147.203125 L 219.539062 147.328125 L 219.867188 147.449219 L 220.53125 147.691406 L 220.863281 147.808594 L 221.191406 147.925781 L 221.523438 148.039062 L 221.855469 148.15625 L 222.1875 148.265625 L 222.515625 148.378906 L 223.179688 148.597656 L 223.511719 148.703125 L 223.839844 148.808594 L 224.835938 149.113281 L 225.164062 149.214844 L 225.496094 149.3125 L 226.160156 149.5 L 226.488281 149.59375 L 227.484375 149.863281 L 227.8125 149.949219 L 228.144531 150.035156 L 228.808594 150.199219 L 229.136719 150.28125 L 229.800781 150.4375 L 230.132812 150.511719 L 230.460938 150.585938 L 230.792969 150.660156 L 231.457031 150.800781 L 231.785156 150.867188 L 232.78125 151.066406 L 233.109375 151.128906 L 234.105469 151.304688 L 234.433594 151.363281 L 235.429688 151.527344 L 235.757812 151.578125 L 236.421875 151.679688 L 236.753906 151.726562 L 237.082031 151.773438 L 237.414062 151.816406 L 237.746094 151.863281 L 238.078125 151.90625 L 238.40625 151.949219 L 239.402344 152.066406 L 239.730469 152.105469 L 241.058594 152.246094 L 241.386719 152.277344 L 242.382812 152.371094 L 242.710938 152.398438 L 243.707031 152.480469 L 244.035156 152.507812 L 245.03125 152.578125 L 245.359375 152.601562 L 245.691406 152.621094 L 246.023438 152.644531 L 246.355469 152.664062 L 246.683594 152.683594 L 247.347656 152.722656 L 247.679688 152.738281 L 248.007812 152.757812 L 249.003906 152.804688 L 249.332031 152.820312 L 249.664062 152.835938 L 249.996094 152.847656 L 250.328125 152.863281 L 250.65625 152.875 L 251.652344 152.910156 L 251.980469 152.921875 L 252.3125 152.933594 L 252.644531 152.941406 L 252.976562 152.953125 L 253.304688 152.960938 L 253.636719 152.972656 L 254.300781 152.988281 L 254.628906 152.996094 L 254.960938 153.003906 "/>
<path fill="none" stroke-width="2.133957" stroke-linecap="butt" stroke-linejoin="round" stroke="rgb(0%, 44.705882%, 69.803922%)" stroke-opacity="1" stroke-miterlimit="10" d="M 56.652344 151.636719 L 56.984375 151.566406 L 57.316406 151.492188 L 57.644531 151.417969 L 58.308594 151.253906 L 58.640625 151.167969 L 58.96875 151.078125 L 59.300781 150.984375 L 59.964844 150.789062 L 60.292969 150.683594 L 60.957031 150.464844 L 61.289062 150.347656 L 61.617188 150.226562 L 61.949219 150.101562 L 62.28125 149.972656 L 62.613281 149.835938 L 62.941406 149.695312 L 63.273438 149.554688 L 63.9375 149.25 L 64.265625 149.089844 L 64.597656 148.921875 L 64.929688 148.75 L 65.261719 148.574219 L 65.589844 148.390625 L 65.921875 148.199219 L 66.253906 148.003906 L 66.585938 147.800781 L 66.914062 147.59375 L 67.246094 147.375 L 67.578125 147.152344 L 67.910156 146.921875 L 68.238281 146.683594 L 68.570312 146.441406 L 68.902344 146.1875 L 69.234375 145.925781 L 69.5625 145.660156 L 69.894531 145.382812 L 70.226562 145.097656 L 70.558594 144.800781 L 70.886719 144.5 L 71.21875 144.1875 L 71.550781 143.867188 L 71.882812 143.539062 L 72.210938 143.199219 L 72.542969 142.851562 L 72.875 142.492188 L 73.207031 142.125 L 73.535156 141.746094 L 73.867188 141.355469 L 74.199219 140.957031 L 74.53125 140.546875 L 74.863281 140.128906 L 75.191406 139.695312 L 75.523438 139.253906 L 75.855469 138.800781 L 76.1875 138.332031 L 76.515625 137.855469 L 76.847656 137.367188 L 77.179688 136.867188 L 77.511719 136.351562 L 77.839844 135.828125 L 78.171875 135.289062 L 78.503906 134.742188 L 78.835938 134.179688 L 79.164062 133.601562 L 79.496094 133.015625 L 79.828125 132.414062 L 80.160156 131.800781 L 80.488281 131.171875 L 80.820312 130.53125 L 81.152344 129.875 L 81.484375 129.207031 L 81.8125 128.527344 L 82.144531 127.832031 L 82.476562 127.125 L 82.808594 126.402344 L 83.136719 125.664062 L 83.46875 124.914062 L 83.800781 124.148438 L 84.132812 123.371094 L 84.460938 122.582031 L 84.792969 121.773438 L 85.125 120.953125 L 85.457031 120.121094 L 85.785156 119.273438 L 86.117188 118.410156 L 86.449219 117.535156 L 86.78125 116.648438 L 87.109375 115.742188 L 87.441406 114.828125 L 87.773438 113.898438 L 88.105469 112.953125 L 88.433594 111.996094 L 88.765625 111.027344 L 89.097656 110.042969 L 89.429688 109.046875 L 89.757812 108.035156 L 90.089844 107.015625 L 90.421875 105.980469 L 90.753906 104.933594 L 91.082031 103.875 L 91.414062 102.804688 L 91.746094 101.722656 L 92.078125 100.628906 L 92.40625 99.523438 L 92.738281 98.40625 L 93.070312 97.28125 L 93.402344 96.144531 L 93.730469 95 L 94.0625 93.84375 L 94.394531 92.675781 L 94.726562 91.503906 L 95.054688 90.320312 L 95.386719 89.128906 L 95.71875 87.929688 L 96.050781 86.722656 L 96.378906 85.507812 L 96.710938 84.289062 L 97.042969 83.0625 L 97.375 81.832031 L 97.703125 80.59375 L 98.035156 79.351562 L 98.367188 78.105469 L 98.699219 76.855469 L 99.027344 75.601562 L 99.691406 73.085938 L 100.023438 71.824219 L 100.351562 70.5625 L 101.347656 66.777344 L 101.675781 65.515625 L 102.339844 63 L 102.671875 61.746094 L 103.003906 60.496094 L 103.332031 59.25 L 103.664062 58.007812 L 103.996094 56.773438 L 104.328125 55.542969 L 104.65625 54.320312 L 104.988281 53.101562 L 105.320312 51.894531 L 105.652344 50.695312 L 105.980469 49.503906 L 106.3125 48.324219 L 106.644531 47.152344 L 106.976562 45.992188 L 107.304688 44.847656 L 107.636719 43.710938 L 107.96875 42.589844 L 108.300781 41.480469 L 108.628906 40.386719 L 108.960938 39.308594 L 109.292969 38.246094 L 109.625 37.199219 L 109.953125 36.167969 L 110.285156 35.15625 L 110.617188 34.164062 L 110.949219 33.1875 L 111.277344 32.230469 L 111.609375 31.292969 L 111.941406 30.378906 L 112.273438 29.484375 L 112.601562 28.609375 L 112.933594 27.757812 L 113.265625 26.929688 L 113.597656 26.125 L 113.925781 25.34375 L 114.257812 24.585938 L 114.589844 23.851562 L 114.921875 23.144531 L 115.25 22.464844 L 115.582031 21.808594 L 115.914062 21.179688 L 116.246094 20.574219 L 116.574219 20 L 116.90625 19.453125 L 117.238281 18.933594 L 117.570312 18.445312 L 117.898438 17.980469 L 118.230469 17.546875 L 118.5625 17.144531 L 118.894531 16.769531 L 119.222656 16.425781 L 119.554688 16.113281 L 119.886719 15.828125 L 120.21875 15.574219 L 120.546875 15.351562 L 120.878906 15.160156 L 121.210938 15 L 121.542969 14.867188 L 121.871094 14.769531 L 122.203125 14.703125 L 122.535156 14.664062 L 122.867188 14.660156 L 123.195312 14.6875 L 123.527344 14.742188 L 123.859375 14.832031 L 124.191406 14.953125 L 124.519531 15.101562 L 124.851562 15.285156 L 125.183594 15.496094 L 125.515625 15.742188 L 125.84375 16.015625 L 126.175781 16.316406 L 126.507812 16.652344 L 126.839844 17.015625 L 127.167969 17.410156 L 127.5 17.835938 L 127.832031 18.285156 L 128.164062 18.769531 L 128.492188 19.277344 L 128.824219 19.816406 L 129.15625 20.382812 L 129.488281 20.972656 L 129.816406 21.59375 L 130.148438 22.242188 L 130.480469 22.914062 L 130.8125 23.613281 L 131.144531 24.339844 L 131.472656 25.085938 L 131.804688 25.859375 L 132.136719 26.660156 L 132.46875 27.480469 L 132.796875 28.324219 L 133.128906 29.1875 L 133.460938 30.078125 L 133.792969 30.984375 L 134.121094 31.914062 L 134.453125 32.867188 L 134.785156 33.835938 L 135.117188 34.824219 L 135.445312 35.828125 L 135.777344 36.855469 L 136.109375 37.894531 L 136.441406 38.953125 L 136.769531 40.027344 L 137.101562 41.117188 L 137.433594 42.21875 L 137.765625 43.335938 L 138.09375 44.46875 L 138.425781 45.609375 L 138.757812 46.765625 L 139.089844 47.933594 L 139.417969 49.109375 L 139.75 50.296875 L 140.082031 51.492188 L 140.414062 52.699219 L 140.742188 53.914062 L 141.074219 55.132812 L 141.40625 56.363281 L 141.738281 57.597656 L 142.066406 58.835938 L 142.730469 61.328125 L 143.0625 62.582031 L 143.390625 63.839844 L 144.054688 66.355469 L 144.386719 67.617188 L 144.714844 68.878906 L 145.046875 70.144531 L 145.378906 71.40625 L 145.710938 72.664062 L 146.039062 73.925781 L 146.371094 75.183594 L 146.703125 76.4375 L 147.035156 77.6875 L 147.363281 78.9375 L 147.695312 80.179688 L 148.027344 81.417969 L 148.359375 82.652344 L 148.6875 83.878906 L 149.019531 85.101562 L 149.351562 86.320312 L 149.683594 87.527344 L 150.011719 88.730469 L 150.34375 89.921875 L 150.675781 91.109375 L 151.007812 92.285156 L 151.335938 93.457031 L 151.667969 94.613281 L 152 95.765625 L 152.332031 96.902344 L 152.660156 98.035156 L 152.992188 99.152344 L 153.324219 100.261719 L 153.65625 101.359375 L 153.984375 102.445312 L 154.316406 103.519531 L 154.648438 104.582031 L 154.980469 105.632812 L 155.308594 106.671875 L 155.640625 107.699219 L 155.972656 108.710938 L 156.304688 109.710938 L 156.632812 110.699219 L 156.964844 111.675781 L 157.296875 112.636719 L 157.628906 113.585938 L 157.960938 114.519531 L 158.289062 115.441406 L 158.621094 116.347656 L 158.953125 117.242188 L 159.285156 118.121094 L 159.613281 118.988281 L 159.945312 119.839844 L 160.277344 120.679688 L 160.609375 121.503906 L 160.9375 122.3125 L 161.269531 123.109375 L 161.601562 123.894531 L 161.933594 124.660156 L 162.261719 125.417969 L 162.59375 126.15625 L 162.925781 126.882812 L 163.257812 127.597656 L 163.585938 128.296875 L 163.917969 128.984375 L 164.25 129.65625 L 164.582031 130.3125 L 164.910156 130.960938 L 165.242188 131.589844 L 165.574219 132.210938 L 165.90625 132.816406 L 166.234375 133.40625 L 166.566406 133.988281 L 166.898438 134.554688 L 167.230469 135.109375 L 167.558594 135.652344 L 167.890625 136.179688 L 168.222656 136.695312 L 168.554688 137.203125 L 168.882812 137.695312 L 169.214844 138.175781 L 169.546875 138.644531 L 169.878906 139.101562 L 170.207031 139.550781 L 170.539062 139.984375 L 170.871094 140.410156 L 171.203125 140.824219 L 171.53125 141.226562 L 171.863281 141.617188 L 172.195312 142 L 172.527344 142.371094 L 172.855469 142.734375 L 173.1875 143.085938 L 173.519531 143.425781 L 173.851562 143.761719 L 174.179688 144.082031 L 174.511719 144.398438 L 174.84375 144.703125 L 175.175781 145 L 175.503906 145.289062 L 175.835938 145.566406 L 176.167969 145.839844 L 176.5 146.101562 L 176.828125 146.355469 L 177.160156 146.605469 L 177.492188 146.84375 L 177.824219 147.078125 L 178.152344 147.300781 L 178.484375 147.519531 L 178.816406 147.734375 L 179.148438 147.9375 L 179.476562 148.136719 L 179.808594 148.328125 L 180.140625 148.511719 L 180.472656 148.691406 L 180.800781 148.867188 L 181.132812 149.035156 L 181.464844 149.195312 L 181.796875 149.351562 L 182.125 149.503906 L 182.457031 149.648438 L 182.789062 149.789062 L 183.121094 149.925781 L 183.449219 150.058594 L 184.113281 150.308594 L 184.445312 150.425781 L 184.773438 150.539062 L 185.105469 150.648438 L 185.4375 150.753906 L 185.769531 150.855469 L 186.101562 150.953125 L 186.429688 151.046875 L 187.09375 151.226562 L 187.425781 151.308594 L 187.753906 151.390625 L 188.085938 151.46875 L 188.417969 151.542969 L 188.75 151.613281 L 189.078125 151.683594 L 189.410156 151.75 L 190.074219 151.875 L 190.402344 151.933594 L 191.066406 152.042969 L 191.398438 152.09375 L 191.726562 152.144531 L 192.390625 152.238281 L 192.722656 152.28125 L 193.050781 152.320312 L 193.382812 152.363281 L 193.714844 152.402344 L 194.046875 152.4375 L 194.375 152.472656 L 194.707031 152.507812 L 195.371094 152.570312 L 195.699219 152.597656 L 196.695312 152.679688 L 197.023438 152.703125 L 197.6875 152.75 L 198.019531 152.769531 L 198.347656 152.789062 L 199.34375 152.847656 L 199.671875 152.863281 L 200.667969 152.910156 L 200.996094 152.921875 L 201.328125 152.9375 L 201.992188 152.960938 L 202.320312 152.972656 L 202.652344 152.984375 L 202.984375 152.992188 L 203.316406 153.003906 L 203.644531 153.011719 L 204.640625 153.035156 L 204.96875 153.042969 L 205.964844 153.066406 L 206.292969 153.070312 L 206.625 153.078125 L 207.289062 153.085938 L 207.617188 153.09375 L 208.613281 153.105469 L 208.941406 153.109375 L 209.9375 153.121094 L 210.265625 153.125 L 210.597656 153.125 L 211.261719 153.132812 L 211.589844 153.136719 L 211.921875 153.136719 L 212.253906 153.140625 L 212.585938 153.140625 L 212.917969 153.144531 L 213.246094 153.144531 L 213.578125 153.148438 L 213.910156 153.148438 L 214.242188 153.152344 L 214.902344 153.152344 L 215.234375 153.15625 L 215.894531 153.15625 L 216.226562 153.160156 L 217.21875 153.160156 L 217.550781 153.164062 L 218.875 153.164062 L 219.207031 153.167969 L 221.191406 153.167969 L 221.523438 153.171875 L 226.488281 153.171875 L 226.820312 153.175781 L 254.960938 153.175781 "/>
<path fill="none" stroke-width="2.133957" stroke-linecap="butt" stroke-linejoin="round" stroke="rgb(83.529412%, 36.862745%, 0%)" stroke-opacity="1" stroke-miterlimit="10" d="M 56.652344 153.175781 L 95.71875 153.175781 L 96.050781 153.171875 L 101.347656 153.171875 L 101.675781 153.167969 L 104.328125 153.167969 L 104.65625 153.164062 L 106.3125 153.164062 L 106.644531 153.160156 L 107.636719 153.160156 L 107.96875 153.15625 L 108.960938 153.15625 L 109.292969 153.152344 L 109.953125 153.152344 L 110.285156 153.148438 L 110.617188 153.148438 L 110.949219 153.144531 L 111.609375 153.144531 L 111.941406 153.140625 L 112.273438 153.140625 L 112.601562 153.136719 L 112.933594 153.136719 L 113.265625 153.132812 L 113.597656 153.132812 L 113.925781 153.128906 L 114.257812 153.125 L 114.589844 153.125 L 114.921875 153.121094 L 115.25 153.117188 L 115.582031 153.113281 L 115.914062 153.113281 L 116.246094 153.109375 L 116.574219 153.105469 L 117.570312 153.09375 L 117.898438 153.089844 L 118.894531 153.078125 L 119.222656 153.070312 L 119.886719 153.0625 L 120.21875 153.054688 L 120.546875 153.050781 L 120.878906 153.042969 L 121.210938 153.039062 L 121.542969 153.03125 L 121.871094 153.023438 L 122.203125 153.015625 L 122.535156 153.011719 L 122.867188 153.003906 L 123.195312 152.996094 L 123.527344 152.984375 L 124.191406 152.96875 L 124.519531 152.960938 L 125.183594 152.9375 L 125.515625 152.929688 L 125.84375 152.917969 L 126.839844 152.882812 L 127.167969 152.871094 L 127.5 152.855469 L 127.832031 152.84375 L 128.164062 152.828125 L 128.492188 152.816406 L 129.488281 152.769531 L 129.816406 152.75 L 130.148438 152.734375 L 130.8125 152.695312 L 131.144531 152.679688 L 131.472656 152.65625 L 132.136719 152.617188 L 132.46875 152.59375 L 132.796875 152.570312 L 133.792969 152.5 L 134.121094 152.472656 L 135.117188 152.390625 L 135.445312 152.359375 L 135.777344 152.332031 L 136.109375 152.300781 L 136.441406 152.265625 L 136.769531 152.234375 L 137.765625 152.128906 L 138.09375 152.09375 L 139.089844 151.976562 L 139.417969 151.933594 L 140.414062 151.804688 L 140.742188 151.757812 L 141.074219 151.710938 L 141.40625 151.660156 L 141.738281 151.613281 L 142.066406 151.5625 L 142.398438 151.507812 L 142.730469 151.457031 L 143.0625 151.402344 L 143.390625 151.34375 L 143.722656 151.289062 L 144.054688 151.230469 L 144.386719 151.167969 L 144.714844 151.105469 L 145.378906 150.980469 L 145.710938 150.914062 L 146.039062 150.847656 L 147.035156 150.636719 L 147.363281 150.5625 L 147.695312 150.488281 L 148.359375 150.332031 L 148.6875 150.253906 L 149.019531 150.175781 L 149.351562 150.089844 L 149.683594 150.007812 L 150.011719 149.921875 L 150.34375 149.835938 L 151.007812 149.65625 L 151.335938 149.566406 L 152 149.378906 L 152.332031 149.28125 L 152.660156 149.183594 L 152.992188 149.082031 L 153.324219 148.984375 L 153.65625 148.878906 L 153.984375 148.777344 L 154.648438 148.566406 L 154.980469 148.457031 L 155.308594 148.347656 L 156.304688 148.007812 L 156.632812 147.894531 L 157.296875 147.660156 L 157.960938 147.417969 L 158.289062 147.296875 L 158.621094 147.171875 L 158.953125 147.050781 L 159.285156 146.921875 L 159.613281 146.796875 L 160.609375 146.410156 L 160.9375 146.28125 L 161.933594 145.882812 L 162.261719 145.746094 L 162.59375 145.613281 L 163.257812 145.339844 L 163.585938 145.203125 L 163.917969 145.066406 L 164.25 144.925781 L 164.582031 144.789062 L 164.910156 144.648438 L 165.242188 144.511719 L 165.90625 144.230469 L 166.234375 144.089844 L 167.230469 143.667969 L 167.558594 143.53125 L 168.554688 143.109375 L 168.882812 142.972656 L 169.214844 142.832031 L 169.546875 142.695312 L 169.878906 142.554688 L 170.207031 142.417969 L 170.539062 142.28125 L 170.871094 142.148438 L 171.203125 142.011719 L 171.53125 141.878906 L 172.527344 141.480469 L 172.855469 141.351562 L 173.1875 141.222656 L 173.851562 140.972656 L 174.179688 140.847656 L 175.175781 140.484375 L 175.503906 140.367188 L 175.835938 140.25 L 176.167969 140.136719 L 176.5 140.027344 L 176.828125 139.914062 L 177.824219 139.597656 L 178.152344 139.5 L 178.484375 139.398438 L 179.148438 139.210938 L 179.476562 139.117188 L 180.472656 138.859375 L 180.800781 138.78125 L 181.132812 138.703125 L 181.796875 138.554688 L 182.125 138.488281 L 182.457031 138.421875 L 183.121094 138.296875 L 183.449219 138.242188 L 183.78125 138.1875 L 184.113281 138.136719 L 184.445312 138.089844 L 184.773438 138.046875 L 185.4375 137.96875 L 186.101562 137.90625 L 186.429688 137.878906 L 186.761719 137.855469 L 187.425781 137.816406 L 187.753906 137.804688 L 188.085938 137.792969 L 188.75 137.785156 L 189.078125 137.785156 L 189.410156 137.789062 L 189.742188 137.796875 L 190.074219 137.808594 L 190.402344 137.824219 L 190.734375 137.839844 L 191.398438 137.886719 L 191.726562 137.914062 L 192.058594 137.945312 L 192.390625 137.980469 L 192.722656 138.019531 L 193.050781 138.0625 L 193.382812 138.105469 L 194.046875 138.207031 L 194.375 138.261719 L 194.707031 138.316406 L 195.371094 138.441406 L 195.699219 138.507812 L 196.03125 138.578125 L 196.695312 138.726562 L 197.023438 138.808594 L 197.355469 138.886719 L 198.019531 139.058594 L 198.347656 139.148438 L 199.011719 139.335938 L 199.34375 139.433594 L 199.671875 139.53125 L 200.003906 139.632812 L 200.667969 139.84375 L 200.996094 139.953125 L 201.328125 140.0625 L 201.992188 140.289062 L 202.320312 140.40625 L 202.652344 140.523438 L 203.316406 140.765625 L 203.644531 140.886719 L 203.976562 141.011719 L 204.308594 141.140625 L 204.640625 141.265625 L 204.96875 141.394531 L 205.300781 141.527344 L 205.632812 141.65625 L 205.964844 141.789062 L 206.292969 141.921875 L 206.625 142.058594 L 206.957031 142.191406 L 207.289062 142.328125 L 207.617188 142.464844 L 208.28125 142.738281 L 208.613281 142.878906 L 208.941406 143.015625 L 209.9375 143.4375 L 210.265625 143.574219 L 211.261719 143.996094 L 211.589844 144.136719 L 212.253906 144.417969 L 212.585938 144.554688 L 212.917969 144.695312 L 213.246094 144.835938 L 213.910156 145.109375 L 214.242188 145.25 L 214.570312 145.386719 L 214.902344 145.523438 L 215.234375 145.65625 L 215.566406 145.792969 L 215.894531 145.925781 L 216.890625 146.324219 L 217.21875 146.453125 L 218.214844 146.839844 L 218.542969 146.964844 L 219.207031 147.214844 L 219.539062 147.335938 L 219.867188 147.457031 L 220.53125 147.699219 L 220.863281 147.816406 L 221.191406 147.933594 L 222.1875 148.273438 L 222.515625 148.382812 L 223.179688 148.601562 L 223.511719 148.707031 L 223.839844 148.8125 L 224.835938 149.117188 L 225.164062 149.214844 L 225.828125 149.410156 L 226.160156 149.503906 L 226.488281 149.597656 L 227.152344 149.777344 L 227.484375 149.863281 L 227.8125 149.949219 L 228.144531 150.035156 L 228.808594 150.199219 L 229.136719 150.28125 L 229.800781 150.4375 L 230.132812 150.511719 L 230.460938 150.585938 L 230.792969 150.660156 L 231.457031 150.800781 L 231.785156 150.867188 L 232.117188 150.9375 L 232.449219 151 L 232.78125 151.066406 L 233.109375 151.128906 L 233.441406 151.1875 L 233.773438 151.25 L 234.105469 151.308594 L 234.433594 151.363281 L 235.429688 151.527344 L 235.757812 151.578125 L 236.421875 151.679688 L 236.753906 151.726562 L 237.082031 151.773438 L 237.414062 151.820312 L 238.078125 151.90625 L 238.40625 151.949219 L 239.402344 152.066406 L 239.730469 152.105469 L 241.058594 152.246094 L 241.386719 152.277344 L 242.382812 152.371094 L 242.710938 152.398438 L 243.707031 152.480469 L 244.035156 152.507812 L 245.03125 152.578125 L 245.359375 152.601562 L 245.691406 152.625 L 246.355469 152.664062 L 246.683594 152.683594 L 247.347656 152.722656 L 247.679688 152.738281 L 248.007812 152.757812 L 249.003906 152.804688 L 249.332031 152.820312 L 249.664062 152.835938 L 249.996094 152.847656 L 250.328125 152.863281 L 250.65625 152.875 L 251.652344 152.910156 L 251.980469 152.921875 L 252.3125 152.933594 L 252.644531 152.941406 L 252.976562 152.953125 L 253.304688 152.960938 L 253.636719 152.972656 L 254.300781 152.988281 L 254.628906 152.996094 L 254.960938 153.003906 "/>
<path fill-rule="nonzero" fill="rgb(0%, 0%, 0%)" fill-opacity="1" stroke-width="0.901933" stroke-linecap="round" stroke-linejoin="round" stroke="rgb(0%, 0%, 0%)" stroke-opacity="1" stroke-miterlimit="10" d="M 155.8125 157.035156 C 155.8125 161.191406 149.574219 161.191406 149.574219 157.035156 C 149.574219 152.875 155.8125 152.875 155.8125 157.035156 "/>
<path fill-rule="nonzero" fill="rgb(0%, 0%, 0%)" fill-opacity="1" stroke-width="0.901933" stroke-linecap="round" stroke-linejoin="round" stroke="rgb(0%, 0%, 0%)" stroke-opacity="1" stroke-miterlimit="10" d="M 123.609375 157.035156 C 123.609375 161.191406 117.371094 161.191406 117.371094 157.035156 C 117.371094 152.875 123.609375 152.875 123.609375 157.035156 "/>
<path fill-rule="nonzero" fill="rgb(0%, 0%, 0%)" fill-opacity="1" stroke-width="0.901933" stroke-linecap="round" stroke-linejoin="round" stroke="rgb(0%, 0%, 0%)" stroke-opacity="1" stroke-miterlimit="10" d="M 134.417969 157.035156 C 134.417969 161.191406 128.179688 161.191406 128.179688 157.035156 C 128.179688 152.875 134.417969 152.875 134.417969 157.035156 "/>
<path fill-rule="nonzero" fill="rgb(0%, 0%, 0%)" fill-opacity="1" stroke-width="0.901933" stroke-linecap="round" stroke-linejoin="round" stroke="rgb(0%, 0%, 0%)" stroke-opacity="1" stroke-miterlimit="10" d="M 180.023438 157.035156 C 180.023438 161.191406 173.785156 161.191406 173.785156 157.035156 C 173.785156 152.875 180.023438 152.875 180.023438 157.035156 "/>
<path fill-rule="nonzero" fill="rgb(0%, 0%, 0%)" fill-opacity="1" stroke-width="0.901933" stroke-linecap="round" stroke-linejoin="round" stroke="rgb(0%, 0%, 0%)" stroke-opacity="1" stroke-miterlimit="10" d="M 95.53125 157.035156 C 95.53125 161.191406 89.292969 161.191406 89.292969 157.035156 C 89.292969 152.875 95.53125 152.875 95.53125 157.035156 "/>
<path fill-rule="nonzero" fill="rgb(0%, 0%, 0%)" fill-opacity="1" stroke-width="0.901933" stroke-linecap="round" stroke-linejoin="round" stroke="rgb(0%, 0%, 0%)" stroke-opacity="1" stroke-miterlimit="10" d="M 116.730469 157.035156 C 116.730469 161.191406 110.492188 161.191406 110.492188 157.035156 C 110.492188 152.875 116.730469 152.875 116.730469 157.035156 "/>
<path fill-rule="nonzero" fill="rgb(0%, 0%, 0%)" fill-opacity="1" stroke-width="0.901933" stroke-linecap="round" stroke-linejoin="round" stroke="rgb(0%, 0%, 0%)" stroke-opacity="1" stroke-miterlimit="10" d="M 218.589844 157.035156 C 218.589844 161.191406 212.355469 161.191406 212.355469 157.035156 C 212.355469 152.875 218.589844 152.875 218.589844 157.035156 "/>
<path fill-rule="nonzero" fill="rgb(0%, 0%, 0%)" fill-opacity="1" stroke-width="0.901933" stroke-linecap="round" stroke-linejoin="round" stroke="rgb(0%, 0%, 0%)" stroke-opacity="1" stroke-miterlimit="10" d="M 124.566406 157.035156 C 124.566406 161.191406 118.332031 161.191406 118.332031 157.035156 C 118.332031 152.875 124.566406 152.875 124.566406 157.035156 "/>
<path fill-rule="nonzero" fill="rgb(0%, 0%, 0%)" fill-opacity="1" stroke-width="0.901933" stroke-linecap="round" stroke-linejoin="round" stroke="rgb(0%, 0%, 0%)" stroke-opacity="1" stroke-miterlimit="10" d="M 150.113281 157.035156 C 150.113281 161.191406 143.875 161.191406 143.875 157.035156 C 143.875 152.875 150.113281 152.875 150.113281 157.035156 "/>
<path fill-rule="nonzero" fill="rgb(0%, 0%, 0%)" fill-opacity="1" stroke-width="0.901933" stroke-linecap="round" stroke-linejoin="round" stroke="rgb(0%, 0%, 0%)" stroke-opacity="1" stroke-miterlimit="10" d="M 142.691406 157.035156 C 142.691406 161.191406 136.453125 161.191406 136.453125 157.035156 C 136.453125 152.875 142.691406 152.875 142.691406 157.035156 "/>
<path fill-rule="nonzero" fill="rgb(0%, 0%, 0%)" fill-opacity="1" stroke-width="0.901933" stroke-linecap="round" stroke-linejoin="round" stroke="rgb(0%, 0%, 0%)" stroke-opacity="1" stroke-miterlimit="10" d="M 122.25 157.035156 C 122.25 161.191406 116.011719 161.191406 116.011719 157.035156 C 116.011719 152.875 122.25 152.875 122.25 157.035156 "/>
<path fill-rule="nonzero" fill="rgb(0%, 0%, 0%)" fill-opacity="1" stroke-width="0.901933" stroke-linecap="round" stroke-linejoin="round" stroke="rgb(0%, 0%, 0%)" stroke-opacity="1" stroke-miterlimit="10" d="M 120.292969 157.035156 C 120.292969 161.191406 114.054688 161.191406 114.054688 157.035156 C 114.054688 152.875 120.292969 152.875 120.292969 157.035156 "/>
<path fill-rule="nonzero" fill="rgb(0%, 0%, 0%)" fill-opacity="1" stroke-width="0.901933" stroke-linecap="round" stroke-linejoin="round" stroke="rgb(0%, 0%, 0%)" stroke-opacity="1" stroke-miterlimit="10" d="M 141.230469 157.035156 C 141.230469 161.191406 134.996094 161.191406 134.996094 157.035156 C 134.996094 152.875 141.230469 152.875 141.230469 157.035156 "/>
<path fill-rule="nonzero" fill="rgb(0%, 0%, 0%)" fill-opacity="1" stroke-width="0.901933" stroke-linecap="round" stroke-linejoin="round" stroke="rgb(0%, 0%, 0%)" stroke-opacity="1" stroke-miterlimit="10" d="M 138.140625 157.035156 C 138.140625 161.191406 131.902344 161.191406 131.902344 157.035156 C 131.902344 152.875 138.140625 152.875 138.140625 157.035156 "/>
<path fill-rule="nonzero" fill="rgb(0%, 0%, 0%)" fill-opacity="1" stroke-width="0.901933" stroke-linecap="round" stroke-linejoin="round" stroke="rgb(0%, 0%, 0%)" stroke-opacity="1" stroke-miterlimit="10" d="M 110.699219 157.035156 C 110.699219 161.191406 104.460938 161.191406 104.460938 157.035156 C 104.460938 152.875 110.699219 152.875 110.699219 157.035156 "/>
<path fill-rule="nonzero" fill="rgb(0%, 0%, 0%)" fill-opacity="1" stroke-width="0.901933" stroke-linecap="round" stroke-linejoin="round" stroke="rgb(0%, 0%, 0%)" stroke-opacity="1" stroke-miterlimit="10" d="M 110.285156 157.035156 C 110.285156 161.191406 104.046875 161.191406 104.046875 157.035156 C 104.046875 152.875 110.285156 152.875 110.285156 157.035156 "/>
<path fill-rule="nonzero" fill="rgb(0%, 0%, 0%)" fill-opacity="1" stroke-width="0.901933" stroke-linecap="round" stroke-linejoin="round" stroke="rgb(0%, 0%, 0%)" stroke-opacity="1" stroke-miterlimit="10" d="M 133.90625 157.035156 C 133.90625 161.191406 127.671875 161.191406 127.671875 157.035156 C 127.671875 152.875 133.90625 152.875 133.90625 157.035156 "/>
<path fill-rule="nonzero" fill="rgb(0%, 0%, 0%)" fill-opacity="1" stroke-width="0.901933" stroke-linecap="round" stroke-linejoin="round" stroke="rgb(0%, 0%, 0%)" stroke-opacity="1" stroke-miterlimit="10" d="M 217.546875 157.035156 C 217.546875 161.191406 211.308594 161.191406 211.308594 157.035156 C 211.308594 152.875 217.546875 152.875 217.546875 157.035156 "/>
<path fill-rule="nonzero" fill="rgb(0%, 0%, 0%)" fill-opacity="1" stroke-width="0.901933" stroke-linecap="round" stroke-linejoin="round" stroke="rgb(0%, 0%, 0%)" stroke-opacity="1" stroke-miterlimit="10" d="M 123.398438 157.035156 C 123.398438 161.191406 117.160156 161.191406 117.160156 157.035156 C 117.160156 152.875 123.398438 152.875 123.398438 157.035156 "/>
<path fill-rule="nonzero" fill="rgb(0%, 0%, 0%)" fill-opacity="1" stroke-width="0.901933" stroke-linecap="round" stroke-linejoin="round" stroke="rgb(0%, 0%, 0%)" stroke-opacity="1" stroke-miterlimit="10" d="M 145.289062 157.035156 C 145.289062 161.191406 139.050781 161.191406 139.050781 157.035156 C 139.050781 152.875 145.289062 152.875 145.289062 157.035156 "/>
<path fill-rule="nonzero" fill="rgb(0%, 0%, 0%)" fill-opacity="1" stroke-width="0.901933" stroke-linecap="round" stroke-linejoin="round" stroke="rgb(0%, 0%, 0%)" stroke-opacity="1" stroke-miterlimit="10" d="M 207.40625 157.035156 C 207.40625 161.191406 201.167969 161.191406 201.167969 157.035156 C 201.167969 152.875 207.40625 152.875 207.40625 157.035156 "/>
<path fill-rule="nonzero" fill="rgb(0%, 0%, 0%)" fill-opacity="1" stroke-width="0.901933" stroke-linecap="round" stroke-linejoin="round" stroke="rgb(0%, 0%, 0%)" stroke-opacity="1" stroke-miterlimit="10" d="M 112.386719 157.035156 C 112.386719 161.191406 106.152344 161.191406 106.152344 157.035156 C 106.152344 152.875 112.386719 152.875 112.386719 157.035156 "/>
<path fill-rule="nonzero" fill="rgb(0%, 0%, 0%)" fill-opacity="1" stroke-width="0.901933" stroke-linecap="round" stroke-linejoin="round" stroke="rgb(0%, 0%, 0%)" stroke-opacity="1" stroke-miterlimit="10" d="M 133.390625 157.035156 C 133.390625 161.191406 127.152344 161.191406 127.152344 157.035156 C 127.152344 152.875 133.390625 152.875 133.390625 157.035156 "/>
<path fill-rule="nonzero" fill="rgb(0%, 0%, 0%)" fill-opacity="1" stroke-width="0.901933" stroke-linecap="round" stroke-linejoin="round" stroke="rgb(0%, 0%, 0%)" stroke-opacity="1" stroke-miterlimit="10" d="M 100.988281 157.035156 C 100.988281 161.191406 94.753906 161.191406 94.753906 157.035156 C 94.753906 152.875 100.988281 152.875 100.988281 157.035156 "/>
<path fill-rule="nonzero" fill="rgb(0%, 0%, 0%)" fill-opacity="1" stroke-width="0.901933" stroke-linecap="round" stroke-linejoin="round" stroke="rgb(0%, 0%, 0%)" stroke-opacity="1" stroke-miterlimit="10" d="M 157.449219 157.035156 C 157.449219 161.191406 151.210938 161.191406 151.210938 157.035156 C 151.210938 152.875 157.449219 152.875 157.449219 157.035156 "/>
<path fill-rule="nonzero" fill="rgb(0%, 0%, 0%)" fill-opacity="1" stroke-width="0.901933" stroke-linecap="round" stroke-linejoin="round" stroke="rgb(0%, 0%, 0%)" stroke-opacity="1" stroke-miterlimit="10" d="M 169.511719 157.035156 C 169.511719 161.191406 163.273438 161.191406 163.273438 157.035156 C 163.273438 152.875 169.511719 152.875 169.511719 157.035156 "/>
<path fill-rule="nonzero" fill="rgb(0%, 0%, 0%)" fill-opacity="1" stroke-width="0.901933" stroke-linecap="round" stroke-linejoin="round" stroke="rgb(0%, 0%, 0%)" stroke-opacity="1" stroke-miterlimit="10" d="M 117.78125 157.035156 C 117.78125 161.191406 111.546875 161.191406 111.546875 157.035156 C 111.546875 152.875 117.78125 152.875 117.78125 157.035156 "/>
<path fill-rule="nonzero" fill="rgb(0%, 0%, 0%)" fill-opacity="1" stroke-width="0.901933" stroke-linecap="round" stroke-linejoin="round" stroke="rgb(0%, 0%, 0%)" stroke-opacity="1" stroke-miterlimit="10" d="M 102.867188 157.035156 C 102.867188 161.191406 96.628906 161.191406 96.628906 157.035156 C 96.628906 152.875 102.867188 152.875 102.867188 157.035156 "/>
<path fill-rule="nonzero" fill="rgb(0%, 0%, 0%)" fill-opacity="1" stroke-width="0.901933" stroke-linecap="round" stroke-linejoin="round" stroke="rgb(0%, 0%, 0%)" stroke-opacity="1" stroke-miterlimit="10" d="M 138.425781 157.035156 C 138.425781 161.191406 132.191406 161.191406 132.191406 157.035156 C 132.191406 152.875 138.425781 152.875 138.425781 157.035156 "/>
<path fill-rule="nonzero" fill="rgb(0%, 0%, 0%)" fill-opacity="1" stroke-width="0.901933" stroke-linecap="round" stroke-linejoin="round" stroke="rgb(0%, 0%, 0%)" stroke-opacity="1" stroke-miterlimit="10" d="M 122.898438 157.035156 C 122.898438 161.191406 116.660156 161.191406 116.660156 157.035156 C 116.660156 152.875 122.898438 152.875 122.898438 157.035156 "/>
<path fill-rule="nonzero" fill="rgb(0%, 0%, 0%)" fill-opacity="1" stroke-width="0.901933" stroke-linecap="round" stroke-linejoin="round" stroke="rgb(0%, 0%, 0%)" stroke-opacity="1" stroke-miterlimit="10" d="M 178.792969 157.035156 C 178.792969 161.191406 172.554688 161.191406 172.554688 157.035156 C 172.554688 152.875 178.792969 152.875 178.792969 157.035156 "/>
<path fill-rule="nonzero" fill="rgb(0%, 0%, 0%)" fill-opacity="1" stroke-width="0.901933" stroke-linecap="round" stroke-linejoin="round" stroke="rgb(0%, 0%, 0%)" stroke-opacity="1" stroke-miterlimit="10" d="M 125.007812 157.035156 C 125.007812 161.191406 118.773438 161.191406 118.773438 157.035156 C 118.773438 152.875 125.007812 152.875 125.007812 157.035156 "/>
<path fill-rule="nonzero" fill="rgb(0%, 0%, 0%)" fill-opacity="1" stroke-width="0.901933" stroke-linecap="round" stroke-linejoin="round" stroke="rgb(0%, 0%, 0%)" stroke-opacity="1" stroke-miterlimit="10" d="M 141.070312 157.035156 C 141.070312 161.191406 134.835938 161.191406 134.835938 157.035156 C 134.835938 152.875 141.070312 152.875 141.070312 157.035156 "/>
<path fill-rule="nonzero" fill="rgb(0%, 0%, 0%)" fill-opacity="1" stroke-width="0.901933" stroke-linecap="round" stroke-linejoin="round" stroke="rgb(0%, 0%, 0%)" stroke-opacity="1" stroke-miterlimit="10" d="M 126.492188 157.035156 C 126.492188 161.191406 120.253906 161.191406 120.253906 157.035156 C 120.253906 152.875 126.492188 152.875 126.492188 157.035156 "/>
<path fill-rule="nonzero" fill="rgb(0%, 0%, 0%)" fill-opacity="1" stroke-width="0.901933" stroke-linecap="round" stroke-linejoin="round" stroke="rgb(0%, 0%, 0%)" stroke-opacity="1" stroke-miterlimit="10" d="M 109.496094 157.035156 C 109.496094 161.191406 103.257812 161.191406 103.257812 157.035156 C 103.257812 152.875 109.496094 152.875 109.496094 157.035156 "/>
<path fill-rule="nonzero" fill="rgb(0%, 0%, 0%)" fill-opacity="1" stroke-width="0.901933" stroke-linecap="round" stroke-linejoin="round" stroke="rgb(0%, 0%, 0%)" stroke-opacity="1" stroke-miterlimit="10" d="M 130.035156 157.035156 C 130.035156 161.191406 123.796875 161.191406 123.796875 157.035156 C 123.796875 152.875 130.035156 152.875 130.035156 157.035156 "/>
<path fill-rule="nonzero" fill="rgb(0%, 0%, 0%)" fill-opacity="1" stroke-width="0.901933" stroke-linecap="round" stroke-linejoin="round" stroke="rgb(0%, 0%, 0%)" stroke-opacity="1" stroke-miterlimit="10" d="M 86.101562 157.035156 C 86.101562 161.191406 79.867188 161.191406 79.867188 157.035156 C 79.867188 152.875 86.101562 152.875 86.101562 157.035156 "/>
<path fill-rule="nonzero" fill="rgb(0%, 0%, 0%)" fill-opacity="1" stroke-width="0.901933" stroke-linecap="round" stroke-linejoin="round" stroke="rgb(0%, 0%, 0%)" stroke-opacity="1" stroke-miterlimit="10" d="M 158.167969 157.035156 C 158.167969 161.191406 151.929688 161.191406 151.929688 157.035156 C 151.929688 152.875 158.167969 152.875 158.167969 157.035156 "/>
<path fill-rule="nonzero" fill="rgb(0%, 0%, 0%)" fill-opacity="1" stroke-width="0.901933" stroke-linecap="round" stroke-linejoin="round" stroke="rgb(0%, 0%, 0%)" stroke-opacity="1" stroke-miterlimit="10" d="M 129.25 157.035156 C 129.25 161.191406 123.015625 161.191406 123.015625 157.035156 C 123.015625 152.875 129.25 152.875 129.25 157.035156 "/>
<path fill-rule="nonzero" fill="rgb(0%, 0%, 0%)" fill-opacity="1" stroke-width="0.901933" stroke-linecap="round" stroke-linejoin="round" stroke="rgb(0%, 0%, 0%)" stroke-opacity="1" stroke-miterlimit="10" d="M 173.746094 157.035156 C 173.746094 161.191406 167.507812 161.191406 167.507812 157.035156 C 167.507812 152.875 173.746094 152.875 173.746094 157.035156 "/>
<path fill-rule="nonzero" fill="rgb(0%, 0%, 0%)" fill-opacity="1" stroke-width="0.901933" stroke-linecap="round" stroke-linejoin="round" stroke="rgb(0%, 0%, 0%)" stroke-opacity="1" stroke-miterlimit="10" d="M 136.351562 157.035156 C 136.351562 161.191406 130.113281 161.191406 130.113281 157.035156 C 130.113281 152.875 136.351562 152.875 136.351562 157.035156 "/>
<path fill-rule="nonzero" fill="rgb(0%, 0%, 0%)" fill-opacity="1" stroke-width="0.901933" stroke-linecap="round" stroke-linejoin="round" stroke="rgb(0%, 0%, 0%)" stroke-opacity="1" stroke-miterlimit="10" d="M 110.230469 157.035156 C 110.230469 161.191406 103.992188 161.191406 103.992188 157.035156 C 103.992188 152.875 110.230469 152.875 110.230469 157.035156 "/>
<path fill-rule="nonzero" fill="rgb(0%, 0%, 0%)" fill-opacity="1" stroke-width="0.901933" stroke-linecap="round" stroke-linejoin="round" stroke="rgb(0%, 0%, 0%)" stroke-opacity="1" stroke-miterlimit="10" d="M 139.332031 157.035156 C 139.332031 161.191406 133.09375 161.191406 133.09375 157.035156 C 133.09375 152.875 139.332031 152.875 139.332031 157.035156 "/>
<path fill-rule="nonzero" fill="rgb(0%, 0%, 0%)" fill-opacity="1" stroke-width="0.901933" stroke-linecap="round" stroke-linejoin="round" stroke="rgb(0%, 0%, 0%)" stroke-opacity="1" stroke-miterlimit="10" d="M 105.292969 157.035156 C 105.292969 161.191406 99.054688 161.191406 99.054688 157.035156 C 99.054688 152.875 105.292969 152.875 105.292969 157.035156 "/>
<path fill-rule="nonzero" fill="rgb(0%, 0%, 0%)" fill-opacity="1" stroke-width="0.901933" stroke-linecap="round" stroke-linejoin="round" stroke="rgb(0%, 0%, 0%)" stroke-opacity="1" stroke-miterlimit="10" d="M 98.25 157.035156 C 98.25 161.191406 92.015625 161.191406 92.015625 157.035156 C 92.015625 152.875 98.25 152.875 98.25 157.035156 "/>
<path fill-rule="nonzero" fill="rgb(0%, 0%, 0%)" fill-opacity="1" stroke-width="0.901933" stroke-linecap="round" stroke-linejoin="round" stroke="rgb(0%, 0%, 0%)" stroke-opacity="1" stroke-miterlimit="10" d="M 132.296875 157.035156 C 132.296875 161.191406 126.058594 161.191406 126.058594 157.035156 C 126.058594 152.875 132.296875 152.875 132.296875 157.035156 "/>
<path fill-rule="nonzero" fill="rgb(0%, 0%, 0%)" fill-opacity="1" stroke-width="0.901933" stroke-linecap="round" stroke-linejoin="round" stroke="rgb(0%, 0%, 0%)" stroke-opacity="1" stroke-miterlimit="10" d="M 116.105469 157.035156 C 116.105469 161.191406 109.871094 161.191406 109.871094 157.035156 C 109.871094 152.875 116.105469 152.875 116.105469 157.035156 "/>
<path fill-rule="nonzero" fill="rgb(0%, 0%, 0%)" fill-opacity="1" stroke-width="0.901933" stroke-linecap="round" stroke-linejoin="round" stroke="rgb(0%, 0%, 0%)" stroke-opacity="1" stroke-miterlimit="10" d="M 125.898438 157.035156 C 125.898438 161.191406 119.660156 161.191406 119.660156 157.035156 C 119.660156 152.875 125.898438 152.875 125.898438 157.035156 "/>
<path fill-rule="nonzero" fill="rgb(0%, 0%, 0%)" fill-opacity="1" stroke-width="0.901933" stroke-linecap="round" stroke-linejoin="round" stroke="rgb(0%, 0%, 0%)" stroke-opacity="1" stroke-miterlimit="10" d="M 127.511719 157.035156 C 127.511719 161.191406 121.273438 161.191406 121.273438 157.035156 C 121.273438 152.875 127.511719 152.875 127.511719 157.035156 "/>
<path fill-rule="nonzero" fill="rgb(0%, 0%, 0%)" fill-opacity="1" stroke-width="0.901933" stroke-linecap="round" stroke-linejoin="round" stroke="rgb(0%, 0%, 0%)" stroke-opacity="1" stroke-miterlimit="10" d="M 112.882812 157.035156 C 112.882812 161.191406 106.648438 161.191406 106.648438 157.035156 C 106.648438 152.875 112.882812 152.875 112.882812 157.035156 "/>
<path fill-rule="nonzero" fill="rgb(0%, 0%, 0%)" fill-opacity="1" stroke-width="0.901933" stroke-linecap="round" stroke-linejoin="round" stroke="rgb(0%, 0%, 0%)" stroke-opacity="1" stroke-miterlimit="10" d="M 113.34375 157.035156 C 113.34375 161.191406 107.105469 161.191406 107.105469 157.035156 C 107.105469 152.875 113.34375 152.875 113.34375 157.035156 "/>
<path fill-rule="nonzero" fill="rgb(0%, 0%, 0%)" fill-opacity="1" stroke-width="0.901933" stroke-linecap="round" stroke-linejoin="round" stroke="rgb(0%, 0%, 0%)" stroke-opacity="1" stroke-miterlimit="10" d="M 122.894531 157.035156 C 122.894531 161.191406 116.660156 161.191406 116.660156 157.035156 C 116.660156 152.875 122.894531 152.875 122.894531 157.035156 "/>
<path fill-rule="nonzero" fill="rgb(0%, 0%, 0%)" fill-opacity="1" stroke-width="0.901933" stroke-linecap="round" stroke-linejoin="round" stroke="rgb(0%, 0%, 0%)" stroke-opacity="1" stroke-miterlimit="10" d="M 151.832031 157.035156 C 151.832031 161.191406 145.59375 161.191406 145.59375 157.035156 C 145.59375 152.875 151.832031 152.875 151.832031 157.035156 "/>
<path fill-rule="nonzero" fill="rgb(0%, 0%, 0%)" fill-opacity="1" stroke-width="0.901933" stroke-linecap="round" stroke-linejoin="round" stroke="rgb(0%, 0%, 0%)" stroke-opacity="1" stroke-miterlimit="10" d="M 92.304688 157.035156 C 92.304688 161.191406 86.066406 161.191406 86.066406 157.035156 C 86.066406 152.875 92.304688 152.875 92.304688 157.035156 "/>
<path fill-rule="nonzero" fill="rgb(0%, 0%, 0%)" fill-opacity="1" stroke-width="0.901933" stroke-linecap="round" stroke-linejoin="round" stroke="rgb(0%, 0%, 0%)" stroke-opacity="1" stroke-miterlimit="10" d="M 138.960938 157.035156 C 138.960938 161.191406 132.722656 161.191406 132.722656 157.035156 C 132.722656 152.875 138.960938 152.875 138.960938 157.035156 "/>
<path fill-rule="nonzero" fill="rgb(0%, 0%, 0%)" fill-opacity="1" stroke-width="0.901933" stroke-linecap="round" stroke-linejoin="round" stroke="rgb(0%, 0%, 0%)" stroke-opacity="1" stroke-miterlimit="10" d="M 133.210938 157.035156 C 133.210938 161.191406 126.972656 161.191406 126.972656 157.035156 C 126.972656 152.875 133.210938 152.875 133.210938 157.035156 "/>
<path fill-rule="nonzero" fill="rgb(0%, 0%, 0%)" fill-opacity="1" stroke-width="0.901933" stroke-linecap="round" stroke-linejoin="round" stroke="rgb(0%, 0%, 0%)" stroke-opacity="1" stroke-miterlimit="10" d="M 149.296875 157.035156 C 149.296875 161.191406 143.0625 161.191406 143.0625 157.035156 C 143.0625 152.875 149.296875 152.875 149.296875 157.035156 "/>
<path fill-rule="nonzero" fill="rgb(0%, 0%, 0%)" fill-opacity="1" stroke-width="0.901933" stroke-linecap="round" stroke-linejoin="round" stroke="rgb(0%, 0%, 0%)" stroke-opacity="1" stroke-miterlimit="10" d="M 119.171875 157.035156 C 119.171875 161.191406 112.933594 161.191406 112.933594 157.035156 C 112.933594 152.875 119.171875 152.875 119.171875 157.035156 "/>
<path fill-rule="nonzero" fill="rgb(0%, 0%, 0%)" fill-opacity="1" stroke-width="0.901933" stroke-linecap="round" stroke-linejoin="round" stroke="rgb(0%, 0%, 0%)" stroke-opacity="1" stroke-miterlimit="10" d="M 134.027344 157.035156 C 134.027344 161.191406 127.789062 161.191406 127.789062 157.035156 C 127.789062 152.875 134.027344 152.875 134.027344 157.035156 "/>
<path fill-rule="nonzero" fill="rgb(0%, 0%, 0%)" fill-opacity="1" stroke-width="0.901933" stroke-linecap="round" stroke-linejoin="round" stroke="rgb(0%, 0%, 0%)" stroke-opacity="1" stroke-miterlimit="10" d="M 131.757812 157.035156 C 131.757812 161.191406 125.523438 161.191406 125.523438 157.035156 C 125.523438 152.875 131.757812 152.875 131.757812 157.035156 "/>
<path fill="none" stroke-width="1.357972" stroke-linecap="butt" stroke-linejoin="round" stroke="rgb(0%, 0%, 0%)" stroke-opacity="1" stroke-miterlimit="10" d="M 46.738281 172.261719 L 46.738281 6.972656 "/>
<g fill="rgb(30.196078%, 30.196078%, 30.196078%)" fill-opacity="1">
<use xlink:href="#glyph-0-1" x="25.460938" y="157.299805"/>
<use xlink:href="#glyph-0-2" x="31.460938" y="157.299805"/>
<use xlink:href="#glyph-0-1" x="34.460938" y="157.299805"/>
</g>
<g fill="rgb(30.196078%, 30.196078%, 30.196078%)" fill-opacity="1">
<use xlink:href="#glyph-0-1" x="25.460938" y="118.72168"/>
<use xlink:href="#glyph-0-2" x="31.460938" y="118.72168"/>
<use xlink:href="#glyph-0-3" x="34.460938" y="118.72168"/>
</g>
<g fill="rgb(30.196078%, 30.196078%, 30.196078%)" fill-opacity="1">
<use xlink:href="#glyph-0-1" x="25.460938" y="80.143555"/>
<use xlink:href="#glyph-0-2" x="31.460938" y="80.143555"/>
<use xlink:href="#glyph-0-4" x="34.460938" y="80.143555"/>
</g>
<g fill="rgb(30.196078%, 30.196078%, 30.196078%)" fill-opacity="1">
<use xlink:href="#glyph-0-1" x="25.460938" y="41.561523"/>
<use xlink:href="#glyph-0-2" x="31.460938" y="41.561523"/>
<use xlink:href="#glyph-0-5" x="34.460938" y="41.561523"/>
</g>
<path fill="none" stroke-width="1.357972" stroke-linecap="butt" stroke-linejoin="round" stroke="rgb(0%, 0%, 0%)" stroke-opacity="1" stroke-miterlimit="10" d="M 46.738281 172.261719 L 264.875 172.261719 "/>
<g fill="rgb(30.196078%, 30.196078%, 30.196078%)" fill-opacity="1">
<use xlink:href="#glyph-0-1" x="75.6875" y="187.163086"/>
</g>
<g fill="rgb(30.196078%, 30.196078%, 30.196078%)" fill-opacity="1">
<use xlink:href="#glyph-0-4" x="119.753906" y="187.163086"/>
</g>
<g fill="rgb(30.196078%, 30.196078%, 30.196078%)" fill-opacity="1">
<use xlink:href="#glyph-0-6" x="163.824219" y="187.163086"/>
</g>
<g fill="rgb(30.196078%, 30.196078%, 30.196078%)" fill-opacity="1">
<use xlink:href="#glyph-0-7" x="207.894531" y="187.163086"/>
</g>
<g fill="rgb(30.196078%, 30.196078%, 30.196078%)" fill-opacity="1">
<use xlink:href="#glyph-0-8" x="251.960938" y="187.163086"/>
</g>
<g fill="rgb(0%, 0%, 0%)" fill-opacity="1">
<use xlink:href="#glyph-1-1" x="152.308594" y="204.807617"/>
</g>
<g fill="rgb(0%, 0%, 0%)" fill-opacity="1">
<use xlink:href="#glyph-2-1" x="17.75293" y="112.117188"/>
<use xlink:href="#glyph-2-2" x="17.75293" y="104.117188"/>
<use xlink:href="#glyph-2-3" x="17.75293" y="96.117188"/>
<use xlink:href="#glyph-2-4" x="17.75293" y="88.117188"/>
<use xlink:href="#glyph-2-5" x="17.75293" y="81.117188"/>
<use xlink:href="#glyph-2-6" x="17.75293" y="78.117188"/>
<use xlink:href="#glyph-2-7" x="17.75293" y="74.117188"/>
</g>
<path fill="none" stroke-width="2.774144" stroke-linecap="butt" stroke-linejoin="round" stroke="rgb(0%, 0%, 0%)" stroke-opacity="1" stroke-miterlimit="10" d="M 287.527344 72.339844 L 301.351562 72.339844 "/>
<path fill="none" stroke-width="2.133957" stroke-linecap="butt" stroke-linejoin="round" stroke="rgb(0%, 44.705882%, 69.803922%)" stroke-opacity="1" stroke-miterlimit="10" d="M 287.527344 89.617188 L 301.351562 89.617188 "/>
<path fill="none" stroke-width="2.133957" stroke-linecap="butt" stroke-linejoin="round" stroke="rgb(83.529412%, 36.862745%, 0%)" stroke-opacity="1" stroke-miterlimit="10" d="M 287.527344 106.898438 L 301.351562 106.898438 "/>
<g fill="rgb(0%, 0%, 0%)" fill-opacity="1">
<use xlink:href="#glyph-0-9" x="310.050781" y="76.463867"/>
<use xlink:href="#glyph-0-10" x="319.050781" y="76.463867"/>
<use xlink:href="#glyph-0-11" x="321.050781" y="76.463867"/>
<use xlink:href="#glyph-0-12" x="327.050781" y="76.463867"/>
<use xlink:href="#glyph-0-13" x="330.050781" y="76.463867"/>
<use xlink:href="#glyph-0-14" x="336.050781" y="76.463867"/>
<use xlink:href="#glyph-0-15" x="340.050781" y="76.463867"/>
</g>
<g fill="rgb(0%, 0%, 0%)" fill-opacity="1">
<use xlink:href="#glyph-0-1" x="310.050781" y="93.741211"/>
<use xlink:href="#glyph-0-2" x="316.050781" y="93.741211"/>
<use xlink:href="#glyph-0-16" x="319.050781" y="93.741211"/>
<use xlink:href="#glyph-0-17" x="325.050781" y="93.741211"/>
<use xlink:href="#glyph-0-18" x="328.050781" y="93.741211"/>
<use xlink:href="#glyph-0-17" x="335.050781" y="93.741211"/>
<use xlink:href="#glyph-0-19" x="338.050781" y="93.741211"/>
<use xlink:href="#glyph-0-20" x="346.050781" y="93.741211"/>
<use xlink:href="#glyph-0-4" x="350.050781" y="93.741211"/>
<use xlink:href="#glyph-0-21" x="356.050781" y="93.741211"/>
<use xlink:href="#glyph-0-3" x="359.050781" y="93.741211"/>
<use xlink:href="#glyph-0-22" x="365.050781" y="93.741211"/>
</g>
<g fill="rgb(0%, 0%, 0%)" fill-opacity="1">
<use xlink:href="#glyph-0-1" x="310.050781" y="111.022461"/>
<use xlink:href="#glyph-0-2" x="316.050781" y="111.022461"/>
<use xlink:href="#glyph-0-3" x="319.050781" y="111.022461"/>
<use xlink:href="#glyph-0-17" x="325.050781" y="111.022461"/>
<use xlink:href="#glyph-0-18" x="328.050781" y="111.022461"/>
<use xlink:href="#glyph-0-17" x="335.050781" y="111.022461"/>
<use xlink:href="#glyph-0-19" x="338.050781" y="111.022461"/>
<use xlink:href="#glyph-0-20" x="346.050781" y="111.022461"/>
<use xlink:href="#glyph-0-23" x="350.050781" y="111.022461"/>
<use xlink:href="#glyph-0-21" x="356.050781" y="111.022461"/>
<use xlink:href="#glyph-0-3" x="359.050781" y="111.022461"/>
<use xlink:href="#glyph-0-22" x="365.050781" y="111.022461"/>
</g>
</svg>
