<?xml version="1.0" encoding="UTF-8"?>
<svg xmlns="http://www.w3.org/2000/svg" xmlns:xlink="http://www.w3.org/1999/xlink" width="383pt" height="216pt" viewBox="0 0 383 216">
<defs>
<g>
<g id="glyph-0-0">
<path d="M 0.28125 0 L 0.28125 -6.3125 L 5.296875 -6.3125 L 5.296875 0 Z M 4.5 -0.796875 L 4.5 -5.515625 L 1.078125 -5.515625 L 1.078125 -0.796875 Z M 4.5 -0.796875 "/>
</g>
<g id="glyph-0-1">
<path d="M 2.375 -6.15625 C 3.175781 -6.15625 3.753906 -5.828125 4.109375 -5.171875 C 4.378906 -4.660156 4.515625 -3.960938 4.515625 -3.078125 C 4.515625 -2.242188 4.390625 -1.554688 4.140625 -1.015625 C 3.785156 -0.222656 3.195312 0.171875 2.375 0.171875 C 1.632812 0.171875 1.082031 -0.148438 0.71875 -0.796875 C 0.425781 -1.328125 0.28125 -2.046875 0.28125 -2.953125 C 0.28125 -3.648438 0.367188 -4.25 0.546875 -4.75 C 0.878906 -5.6875 1.488281 -6.15625 2.375 -6.15625 Z M 2.375 -0.53125 C 2.769531 -0.53125 3.085938 -0.707031 3.328125 -1.0625 C 3.566406 -1.425781 3.6875 -2.085938 3.6875 -3.046875 C 3.6875 -3.753906 3.597656 -4.332031 3.421875 -4.78125 C 3.253906 -5.226562 2.921875 -5.453125 2.421875 -5.453125 C 1.972656 -5.453125 1.640625 -5.238281 1.421875 -4.8125 C 1.210938 -4.382812 1.109375 -3.753906 1.109375 -2.921875 C 1.109375 -2.296875 1.175781 -1.789062 1.3125 -1.40625 C 1.519531 -0.820312 1.875 -0.53125 2.375 -0.53125 Z M 2.375 -0.53125 "/>
</g>
<g id="glyph-0-2">
<path d="M 0.84375 -4.359375 L 0.84375 -4.953125 C 1.394531 -5.003906 1.78125 -5.09375 2 -5.21875 C 2.226562 -5.34375 2.394531 -5.644531 2.5 -6.125 L 3.109375 -6.125 L 3.109375 0 L 2.296875 0 L 2.296875 -4.359375 Z M 0.84375 -4.359375 "/>
</g>
<g id="glyph-0-3">
<path d="M 0.28125 0 C 0.300781 -0.53125 0.40625 -0.988281 0.59375 -1.375 C 0.789062 -1.769531 1.164062 -2.128906 1.71875 -2.453125 L 2.546875 -2.921875 C 2.910156 -3.140625 3.164062 -3.328125 3.3125 -3.484375 C 3.550781 -3.710938 3.671875 -3.984375 3.671875 -4.296875 C 3.671875 -4.648438 3.5625 -4.929688 3.34375 -5.140625 C 3.132812 -5.359375 2.847656 -5.46875 2.484375 -5.46875 C 1.960938 -5.46875 1.597656 -5.265625 1.390625 -4.859375 C 1.285156 -4.648438 1.226562 -4.351562 1.21875 -3.96875 L 0.421875 -3.96875 C 0.429688 -4.5 0.53125 -4.9375 0.71875 -5.28125 C 1.050781 -5.875 1.644531 -6.171875 2.5 -6.171875 C 3.195312 -6.171875 3.707031 -5.976562 4.03125 -5.59375 C 4.363281 -5.21875 4.53125 -4.796875 4.53125 -4.328125 C 4.53125 -3.835938 4.351562 -3.414062 4 -3.0625 C 3.800781 -2.863281 3.441406 -2.617188 2.921875 -2.328125 L 2.34375 -2 C 2.0625 -1.84375 1.835938 -1.695312 1.671875 -1.5625 C 1.390625 -1.3125 1.210938 -1.035156 1.140625 -0.734375 L 4.5 -0.734375 L 4.5 0 Z M 0.28125 0 "/>
</g>
<g id="glyph-0-4">
<path d="M 1.09375 -1.5625 C 1.132812 -1.125 1.335938 -0.820312 1.703125 -0.65625 C 1.878906 -0.570312 2.09375 -0.53125 2.34375 -0.53125 C 2.800781 -0.53125 3.140625 -0.675781 3.359375 -0.96875 C 3.578125 -1.257812 3.6875 -1.582031 3.6875 -1.9375 C 3.6875 -2.363281 3.554688 -2.691406 3.296875 -2.921875 C 3.035156 -3.160156 2.71875 -3.28125 2.34375 -3.28125 C 2.082031 -3.28125 1.851562 -3.226562 1.65625 -3.125 C 1.46875 -3.019531 1.304688 -2.878906 1.171875 -2.703125 L 0.5 -2.734375 L 0.96875 -6.046875 L 4.171875 -6.046875 L 4.171875 -5.296875 L 1.5625 -5.296875 L 1.296875 -3.59375 C 1.429688 -3.695312 1.566406 -3.773438 1.703125 -3.828125 C 1.929688 -3.929688 2.195312 -3.984375 2.5 -3.984375 C 3.0625 -3.984375 3.535156 -3.800781 3.921875 -3.4375 C 4.316406 -3.070312 4.515625 -2.609375 4.515625 -2.046875 C 4.515625 -1.460938 4.332031 -0.945312 3.96875 -0.5 C 3.613281 -0.0625 3.046875 0.15625 2.265625 0.15625 C 1.753906 0.15625 1.304688 0.0117188 0.921875 -0.265625 C 0.546875 -0.546875 0.332031 -0.976562 0.28125 -1.5625 Z M 1.09375 -1.5625 "/>
</g>
<g id="glyph-0-5">
<path d="M 0.75 -6.3125 L 5.125 -6.3125 L 5.125 -5.53125 L 1.609375 -5.53125 L 1.609375 -3.625 L 4.703125 -3.625 L 4.703125 -2.875 L 1.609375 -2.875 L 1.609375 0 L 0.75 0 Z M 0.75 -6.3125 "/>
</g>
<g id="glyph-0-6">
<path d="M 3.90625 -2.578125 L 2.953125 -5.375 L 1.9375 -2.578125 Z M 2.5 -6.3125 L 3.46875 -6.3125 L 5.765625 0 L 4.828125 0 L 4.1875 -1.890625 L 1.6875 -1.890625 L 1 0 L 0.125 0 Z M 2.5 -6.3125 "/>
</g>
<g id="glyph-0-7">
<path d="M 0.671875 -6.3125 L 1.53125 -6.3125 L 1.53125 -0.75 L 4.71875 -0.75 L 4.71875 0 L 0.671875 0 Z M 0.671875 -6.3125 "/>
</g>
<g id="glyph-0-8">
<path d="M 1.234375 -2.03125 C 1.253906 -1.675781 1.335938 -1.382812 1.484375 -1.15625 C 1.765625 -0.738281 2.265625 -0.53125 2.984375 -0.53125 C 3.304688 -0.53125 3.597656 -0.578125 3.859375 -0.671875 C 4.367188 -0.847656 4.625 -1.164062 4.625 -1.625 C 4.625 -1.96875 4.515625 -2.210938 4.296875 -2.359375 C 4.078125 -2.503906 3.738281 -2.628906 3.28125 -2.734375 L 2.421875 -2.921875 C 1.859375 -3.054688 1.460938 -3.195312 1.234375 -3.34375 C 0.835938 -3.601562 0.640625 -4 0.640625 -4.53125 C 0.640625 -5.09375 0.832031 -5.554688 1.21875 -5.921875 C 1.613281 -6.285156 2.171875 -6.46875 2.890625 -6.46875 C 3.554688 -6.46875 4.117188 -6.304688 4.578125 -5.984375 C 5.035156 -5.671875 5.265625 -5.160156 5.265625 -4.453125 L 4.46875 -4.453125 C 4.425781 -4.796875 4.332031 -5.054688 4.1875 -5.234375 C 3.925781 -5.566406 3.484375 -5.734375 2.859375 -5.734375 C 2.359375 -5.734375 2 -5.625 1.78125 -5.40625 C 1.5625 -5.195312 1.453125 -4.953125 1.453125 -4.671875 C 1.453125 -4.359375 1.578125 -4.132812 1.828125 -4 C 2.003906 -3.90625 2.390625 -3.789062 2.984375 -3.65625 L 3.859375 -3.453125 C 4.285156 -3.347656 4.617188 -3.210938 4.859375 -3.046875 C 5.253906 -2.753906 5.453125 -2.328125 5.453125 -1.765625 C 5.453125 -1.066406 5.195312 -0.566406 4.6875 -0.265625 C 4.1875 0.0351562 3.597656 0.1875 2.921875 0.1875 C 2.140625 0.1875 1.523438 -0.015625 1.078125 -0.421875 C 0.628906 -0.816406 0.410156 -1.351562 0.421875 -2.03125 Z M 2.953125 -6.484375 Z M 2.953125 -6.484375 "/>
</g>
<g id="glyph-0-9">
<path d="M 0.75 -6.3125 L 5.359375 -6.3125 L 5.359375 -5.53125 L 1.578125 -5.53125 L 1.578125 -3.625 L 5.0625 -3.625 L 5.0625 -2.890625 L 1.578125 -2.890625 L 1.578125 -0.75 L 5.421875 -0.75 L 5.421875 0 L 0.75 0 Z M 3.078125 -6.3125 Z M 3.078125 -6.3125 "/>
</g>
<g id="glyph-0-10">
<path d="M 5.265625 -6.3125 L 5.265625 -5.5625 L 3.140625 -5.5625 L 3.140625 0 L 2.265625 0 L 2.265625 -5.5625 L 0.140625 -5.5625 L 0.140625 -6.3125 Z M 5.265625 -6.3125 "/>
</g>
<g id="glyph-0-11">
<path d="M 3.609375 -3.421875 C 4.003906 -3.421875 4.316406 -3.5 4.546875 -3.65625 C 4.785156 -3.820312 4.90625 -4.113281 4.90625 -4.53125 C 4.90625 -4.976562 4.742188 -5.285156 4.421875 -5.453125 C 4.242188 -5.535156 4.007812 -5.578125 3.71875 -5.578125 L 1.625 -5.578125 L 1.625 -3.421875 Z M 0.765625 -6.3125 L 3.6875 -6.3125 C 4.175781 -6.3125 4.578125 -6.238281 4.890625 -6.09375 C 5.472656 -5.832031 5.765625 -5.335938 5.765625 -4.609375 C 5.765625 -4.234375 5.6875 -3.921875 5.53125 -3.671875 C 5.382812 -3.429688 5.171875 -3.238281 4.890625 -3.09375 C 5.128906 -3 5.3125 -2.867188 5.4375 -2.703125 C 5.5625 -2.546875 5.628906 -2.28125 5.640625 -1.90625 L 5.671875 -1.0625 C 5.679688 -0.820312 5.703125 -0.644531 5.734375 -0.53125 C 5.785156 -0.332031 5.878906 -0.203125 6.015625 -0.140625 L 6.015625 0 L 4.96875 0 C 4.9375 -0.0507812 4.910156 -0.117188 4.890625 -0.203125 C 4.878906 -0.296875 4.867188 -0.460938 4.859375 -0.703125 L 4.796875 -1.765625 C 4.773438 -2.171875 4.625 -2.445312 4.34375 -2.59375 C 4.175781 -2.664062 3.921875 -2.703125 3.578125 -2.703125 L 1.625 -2.703125 L 1.625 0 L 0.765625 0 Z M 0.765625 -6.3125 "/>
</g>
<g id="glyph-0-12">
<path d="M 1.59375 -6.3125 L 1.59375 -2.40625 C 1.59375 -1.945312 1.679688 -1.566406 1.859375 -1.265625 C 2.109375 -0.804688 2.535156 -0.578125 3.140625 -0.578125 C 3.867188 -0.578125 4.363281 -0.828125 4.625 -1.328125 C 4.757812 -1.597656 4.828125 -1.957031 4.828125 -2.40625 L 4.828125 -6.3125 L 5.703125 -6.3125 L 5.703125 -2.765625 C 5.703125 -1.992188 5.597656 -1.394531 5.390625 -0.96875 C 5.003906 -0.207031 4.28125 0.171875 3.21875 0.171875 C 2.144531 0.171875 1.421875 -0.207031 1.046875 -0.96875 C 0.835938 -1.394531 0.734375 -1.992188 0.734375 -2.765625 L 0.734375 -6.3125 Z M 3.21875 -6.3125 Z M 3.21875 -6.3125 "/>
</g>
<g id="glyph-1-0">
<path d="M 0.359375 0 L 0.359375 -7.890625 L 6.625 -7.890625 L 6.625 0 Z M 5.625 -0.984375 L 5.625 -6.90625 L 1.34375 -6.90625 L 1.34375 -0.984375 Z M 5.625 -0.984375 "/>
</g>
<g id="glyph-1-1">
<path d="M 2.984375 -0.625 C 3.628906 -0.625 4.070312 -0.863281 4.3125 -1.34375 C 4.550781 -1.832031 4.671875 -2.375 4.671875 -2.96875 C 4.671875 -3.507812 4.582031 -3.945312 4.40625 -4.28125 C 4.132812 -4.8125 3.664062 -5.078125 3 -5.078125 C 2.40625 -5.078125 1.972656 -4.847656 1.703125 -4.390625 C 1.441406 -3.941406 1.3125 -3.398438 1.3125 -2.765625 C 1.3125 -2.148438 1.441406 -1.640625 1.703125 -1.234375 C 1.972656 -0.828125 2.398438 -0.625 2.984375 -0.625 Z M 3.03125 -5.921875 C 3.769531 -5.921875 4.394531 -5.671875 4.90625 -5.171875 C 5.414062 -4.679688 5.671875 -3.957031 5.671875 -3 C 5.671875 -2.070312 5.445312 -1.304688 5 -0.703125 C 4.550781 -0.0976562 3.851562 0.203125 2.90625 0.203125 C 2.113281 0.203125 1.484375 -0.0625 1.015625 -0.59375 C 0.546875 -1.125 0.3125 -1.84375 0.3125 -2.75 C 0.3125 -3.71875 0.554688 -4.488281 1.046875 -5.0625 C 1.535156 -5.632812 2.195312 -5.921875 3.03125 -5.921875 Z M 3 -5.890625 Z M 3 -5.890625 "/>
</g>
<g id="glyph-1-2">
<path d="M 0.640625 -7.921875 L 1.578125 -7.921875 L 1.578125 -5.046875 C 1.785156 -5.328125 2.035156 -5.539062 2.328125 -5.6875 C 2.617188 -5.832031 2.9375 -5.90625 3.28125 -5.90625 C 4 -5.90625 4.582031 -5.65625 5.03125 -5.15625 C 5.476562 -4.664062 5.703125 -3.941406 5.703125 -2.984375 C 5.703125 -2.078125 5.476562 -1.320312 5.03125 -0.71875 C 4.59375 -0.113281 3.984375 0.1875 3.203125 0.1875 C 2.765625 0.1875 2.394531 0.0742188 2.09375 -0.140625 C 1.914062 -0.265625 1.726562 -0.460938 1.53125 -0.734375 L 1.53125 0 L 0.640625 0 Z M 3.140625 -0.671875 C 3.671875 -0.671875 4.0625 -0.878906 4.3125 -1.296875 C 4.570312 -1.710938 4.703125 -2.257812 4.703125 -2.9375 C 4.703125 -3.539062 4.570312 -4.039062 4.3125 -4.4375 C 4.0625 -4.832031 3.679688 -5.03125 3.171875 -5.03125 C 2.734375 -5.03125 2.347656 -4.867188 2.015625 -4.546875 C 1.679688 -4.222656 1.515625 -3.6875 1.515625 -2.9375 C 1.515625 -2.394531 1.582031 -1.957031 1.71875 -1.625 C 1.976562 -0.988281 2.453125 -0.671875 3.140625 -0.671875 Z M 3.140625 -0.671875 "/>
</g>
<g id="glyph-1-3">
<path d="M 1.28125 -1.8125 C 1.3125 -1.488281 1.394531 -1.238281 1.53125 -1.0625 C 1.769531 -0.75 2.191406 -0.59375 2.796875 -0.59375 C 3.148438 -0.59375 3.460938 -0.671875 3.734375 -0.828125 C 4.003906 -0.984375 4.140625 -1.222656 4.140625 -1.546875 C 4.140625 -1.796875 4.03125 -1.984375 3.8125 -2.109375 C 3.675781 -2.191406 3.398438 -2.285156 2.984375 -2.390625 L 2.21875 -2.578125 C 1.726562 -2.703125 1.367188 -2.835938 1.140625 -2.984375 C 0.722656 -3.253906 0.515625 -3.617188 0.515625 -4.078125 C 0.515625 -4.617188 0.707031 -5.054688 1.09375 -5.390625 C 1.488281 -5.734375 2.019531 -5.90625 2.6875 -5.90625 C 3.550781 -5.90625 4.175781 -5.648438 4.5625 -5.140625 C 4.800781 -4.816406 4.914062 -4.46875 4.90625 -4.09375 L 4 -4.09375 C 3.976562 -4.3125 3.898438 -4.507812 3.765625 -4.6875 C 3.546875 -4.945312 3.160156 -5.078125 2.609375 -5.078125 C 2.242188 -5.078125 1.96875 -5.003906 1.78125 -4.859375 C 1.59375 -4.722656 1.5 -4.539062 1.5 -4.3125 C 1.5 -4.0625 1.625 -3.863281 1.875 -3.71875 C 2.007812 -3.625 2.21875 -3.539062 2.5 -3.46875 L 3.140625 -3.3125 C 3.835938 -3.144531 4.300781 -2.984375 4.53125 -2.828125 C 4.914062 -2.578125 5.109375 -2.191406 5.109375 -1.671875 C 5.109375 -1.148438 4.910156 -0.703125 4.515625 -0.328125 C 4.128906 0.0351562 3.539062 0.21875 2.75 0.21875 C 1.894531 0.21875 1.285156 0.0234375 0.921875 -0.359375 C 0.566406 -0.753906 0.378906 -1.238281 0.359375 -1.8125 Z M 2.71875 -5.890625 Z M 2.71875 -5.890625 "/>
</g>
<g id="glyph-1-4">
<path d="M 4.75 0 L 3.78125 0 L 3.78125 -7.890625 L 4.75 -7.890625 Z M 1.90625 0 L 0.953125 0 L 0.953125 -4.96875 L 0.15625 -4.96875 L 0.15625 -5.71875 L 0.953125 -5.71875 L 0.953125 -6.75 C 0.953125 -7.175781 1.082031 -7.488281 1.34375 -7.6875 C 1.601562 -7.894531 1.957031 -8 2.40625 -8 C 2.488281 -8 2.5625 -7.992188 2.625 -7.984375 C 2.695312 -7.984375 2.78125 -7.976562 2.875 -7.96875 L 2.875 -7.09375 C 2.769531 -7.101562 2.695312 -7.109375 2.65625 -7.109375 C 2.613281 -7.109375 2.570312 -7.109375 2.53125 -7.109375 C 2.257812 -7.109375 2.078125 -7.03125 1.984375 -6.875 C 1.929688 -6.789062 1.90625 -6.644531 1.90625 -6.4375 L 1.90625 -5.71875 L 2.875 -5.71875 L 2.875 -4.96875 L 1.90625 -4.96875 Z M 1.90625 0 "/>
</g>
<g id="glyph-1-5">
<path d="M 1.453125 -1.53125 C 1.453125 -1.25 1.550781 -1.023438 1.75 -0.859375 C 1.957031 -0.703125 2.203125 -0.625 2.484375 -0.625 C 2.816406 -0.625 3.144531 -0.703125 3.46875 -0.859375 C 4.007812 -1.117188 4.28125 -1.550781 4.28125 -2.15625 L 4.28125 -2.921875 C 4.15625 -2.847656 4 -2.785156 3.8125 -2.734375 C 3.632812 -2.691406 3.453125 -2.65625 3.265625 -2.625 L 2.6875 -2.5625 C 2.332031 -2.507812 2.066406 -2.4375 1.890625 -2.34375 C 1.597656 -2.164062 1.453125 -1.894531 1.453125 -1.53125 Z M 3.796875 -3.484375 C 4.015625 -3.515625 4.160156 -3.609375 4.234375 -3.765625 C 4.273438 -3.847656 4.296875 -3.972656 4.296875 -4.140625 C 4.296875 -4.460938 4.175781 -4.695312 3.9375 -4.84375 C 3.707031 -5 3.375 -5.078125 2.9375 -5.078125 C 2.4375 -5.078125 2.082031 -4.941406 1.875 -4.671875 C 1.75 -4.515625 1.671875 -4.289062 1.640625 -4 L 0.734375 -4 C 0.753906 -4.707031 0.984375 -5.195312 1.421875 -5.46875 C 1.867188 -5.75 2.382812 -5.890625 2.96875 -5.890625 C 3.644531 -5.890625 4.191406 -5.757812 4.609375 -5.5 C 5.035156 -5.25 5.25 -4.847656 5.25 -4.296875 L 5.25 -0.984375 C 5.25 -0.890625 5.265625 -0.8125 5.296875 -0.75 C 5.335938 -0.6875 5.425781 -0.65625 5.5625 -0.65625 C 5.601562 -0.65625 5.648438 -0.65625 5.703125 -0.65625 C 5.765625 -0.664062 5.820312 -0.675781 5.875 -0.6875 L 5.875 0.03125 C 5.726562 0.0703125 5.613281 0.0976562 5.53125 0.109375 C 5.457031 0.117188 5.351562 0.125 5.21875 0.125 C 4.882812 0.125 4.640625 0.00390625 4.484375 -0.234375 C 4.410156 -0.359375 4.359375 -0.535156 4.328125 -0.765625 C 4.128906 -0.503906 3.84375 -0.28125 3.46875 -0.09375 C 3.101562 0.0898438 2.695312 0.1875 2.25 0.1875 C 1.71875 0.1875 1.28125 0.0234375 0.9375 -0.296875 C 0.601562 -0.617188 0.4375 -1.023438 0.4375 -1.515625 C 0.4375 -2.046875 0.601562 -2.457031 0.9375 -2.75 C 1.269531 -3.039062 1.707031 -3.222656 2.25 -3.296875 Z M 2.984375 -5.890625 Z M 2.984375 -5.890625 "/>
</g>
<g id="glyph-1-6">
<path d="M 2.734375 -5.859375 C 3.191406 -5.859375 3.585938 -5.742188 3.921875 -5.515625 C 4.097656 -5.390625 4.285156 -5.207031 4.484375 -4.96875 L 4.484375 -5.703125 L 5.375 -5.703125 L 5.375 -0.46875 C 5.375 0.257812 5.265625 0.835938 5.046875 1.265625 C 4.648438 2.046875 3.894531 2.4375 2.78125 2.4375 C 2.15625 2.4375 1.628906 2.296875 1.203125 2.015625 C 0.785156 1.734375 0.550781 1.300781 0.5 0.71875 L 1.484375 0.71875 C 1.535156 0.96875 1.628906 1.164062 1.765625 1.3125 C 1.984375 1.53125 2.328125 1.640625 2.796875 1.640625 C 3.535156 1.640625 4.019531 1.375 4.25 0.84375 C 4.382812 0.539062 4.445312 -0.00390625 4.4375 -0.796875 C 4.25 -0.503906 4.015625 -0.285156 3.734375 -0.140625 C 3.460938 -0.00390625 3.109375 0.0625 2.671875 0.0625 C 2.046875 0.0625 1.5 -0.15625 1.03125 -0.59375 C 0.5625 -1.03125 0.328125 -1.757812 0.328125 -2.78125 C 0.328125 -3.75 0.5625 -4.503906 1.03125 -5.046875 C 1.5 -5.585938 2.066406 -5.859375 2.734375 -5.859375 Z M 4.484375 -2.90625 C 4.484375 -3.613281 4.332031 -4.140625 4.03125 -4.484375 C 3.738281 -4.828125 3.367188 -5 2.921875 -5 C 2.234375 -5 1.765625 -4.679688 1.515625 -4.046875 C 1.390625 -3.703125 1.328125 -3.253906 1.328125 -2.703125 C 1.328125 -2.054688 1.457031 -1.5625 1.71875 -1.21875 C 1.976562 -0.882812 2.332031 -0.71875 2.78125 -0.71875 C 3.46875 -0.71875 3.957031 -1.03125 4.25 -1.65625 C 4.40625 -2.007812 4.484375 -2.425781 4.484375 -2.90625 Z M 2.859375 -5.890625 Z M 2.859375 -5.890625 "/>
</g>
<g id="glyph-2-0">
<path d="M 0 -0.359375 L -7.890625 -0.359375 L -7.890625 -6.625 L 0 -6.625 Z M -0.984375 -5.625 L -6.90625 -5.625 L -6.90625 -1.34375 L -0.984375 -1.34375 Z M -0.984375 -5.625 "/>
</g>
<g id="glyph-2-1">
<path d="M -4.28125 -4.5 C -4.28125 -5.007812 -4.378906 -5.410156 -4.578125 -5.703125 C -4.773438 -5.992188 -5.132812 -6.140625 -5.65625 -6.140625 C -6.21875 -6.140625 -6.601562 -5.929688 -6.8125 -5.515625 C -6.914062 -5.296875 -6.96875 -5.003906 -6.96875 -4.640625 L -6.96875 -2.03125 L -4.28125 -2.03125 Z M -7.890625 -0.96875 L -7.890625 -4.625 C -7.890625 -5.21875 -7.800781 -5.710938 -7.625 -6.109375 C -7.289062 -6.847656 -6.671875 -7.21875 -5.765625 -7.21875 C -5.285156 -7.21875 -4.894531 -7.117188 -4.59375 -6.921875 C -4.300781 -6.734375 -4.0625 -6.460938 -3.875 -6.109375 C -3.75 -6.410156 -3.582031 -6.640625 -3.375 -6.796875 C -3.175781 -6.953125 -2.847656 -7.039062 -2.390625 -7.0625 L -1.328125 -7.09375 C -1.023438 -7.101562 -0.800781 -7.128906 -0.65625 -7.171875 C -0.40625 -7.234375 -0.242188 -7.347656 -0.171875 -7.515625 L 0 -7.515625 L 0 -6.203125 C -0.0703125 -6.171875 -0.160156 -6.144531 -0.265625 -6.125 C -0.367188 -6.101562 -0.578125 -6.082031 -0.890625 -6.0625 L -2.203125 -6 C -2.710938 -5.976562 -3.054688 -5.789062 -3.234375 -5.4375 C -3.335938 -5.226562 -3.390625 -4.90625 -3.390625 -4.46875 L -3.390625 -2.03125 L 0 -2.03125 L 0 -0.96875 Z M -7.890625 -0.96875 "/>
</g>
<g id="glyph-2-2">
<path d="M -0.90625 -3.875 C -0.90625 -4.226562 -0.945312 -4.523438 -1.03125 -4.765625 C -1.164062 -5.171875 -1.429688 -5.507812 -1.828125 -5.78125 C -2.148438 -5.988281 -2.5625 -6.140625 -3.0625 -6.234375 C -3.351562 -6.285156 -3.628906 -6.3125 -3.890625 -6.3125 C -4.859375 -6.3125 -5.613281 -6.117188 -6.15625 -5.734375 C -6.695312 -5.347656 -6.96875 -4.722656 -6.96875 -3.859375 L -6.96875 -1.953125 L -0.90625 -1.953125 Z M -7.890625 -0.890625 L -7.890625 -4.078125 C -7.890625 -5.160156 -7.503906 -6.003906 -6.734375 -6.609375 C -6.035156 -7.140625 -5.144531 -7.40625 -4.0625 -7.40625 C -3.226562 -7.40625 -2.472656 -7.25 -1.796875 -6.9375 C -0.597656 -6.382812 0 -5.429688 0 -4.078125 L 0 -0.890625 Z M -7.890625 -0.890625 "/>
</g>
<g id="glyph-2-3">
<path d="M 0 -0.34375 C -0.664062 -0.375 -1.242188 -0.507812 -1.734375 -0.75 C -2.222656 -0.988281 -2.664062 -1.457031 -3.0625 -2.15625 L -3.65625 -3.1875 C -3.925781 -3.644531 -4.15625 -3.96875 -4.34375 -4.15625 C -4.644531 -4.445312 -4.988281 -4.59375 -5.375 -4.59375 C -5.820312 -4.59375 -6.175781 -4.457031 -6.4375 -4.1875 C -6.695312 -3.914062 -6.828125 -3.554688 -6.828125 -3.109375 C -6.828125 -2.453125 -6.578125 -1.992188 -6.078125 -1.734375 C -5.804688 -1.597656 -5.4375 -1.523438 -4.96875 -1.515625 L -4.96875 -0.53125 C -5.632812 -0.539062 -6.175781 -0.664062 -6.59375 -0.90625 C -7.34375 -1.320312 -7.71875 -2.0625 -7.71875 -3.125 C -7.71875 -4 -7.476562 -4.640625 -7 -5.046875 C -6.53125 -5.453125 -6.003906 -5.65625 -5.421875 -5.65625 C -4.796875 -5.65625 -4.265625 -5.441406 -3.828125 -5.015625 C -3.578125 -4.765625 -3.269531 -4.3125 -2.90625 -3.65625 L -2.5 -2.921875 C -2.3125 -2.578125 -2.128906 -2.300781 -1.953125 -2.09375 C -1.640625 -1.738281 -1.289062 -1.515625 -0.90625 -1.421875 L -0.90625 -5.625 L 0 -5.625 Z M 0 -0.34375 "/>
</g>
</g>
<clipPath id="clip-0">
<path clip-rule="nonzero" d="M 34.152344 5.480469 L 304.84375 5.480469 L 304.84375 182.851562 L 34.152344 182.851562 Z M 34.152344 5.480469 "/>
</clipPath>
<clipPath id="clip-1">
<path clip-rule="nonzero" d="M 34.152344 144 L 304.84375 144 L 304.84375 145 L 34.152344 145 Z M 34.152344 144 "/>
</clipPath>
<clipPath id="clip-2">
<path clip-rule="nonzero" d="M 34.152344 80 L 304.84375 80 L 304.84375 81 L 34.152344 81 Z M 34.152344 80 "/>
</clipPath>
<clipPath id="clip-3">
<path clip-rule="nonzero" d="M 34.152344 16 L 304.84375 16 L 304.84375 18 L 34.152344 18 Z M 34.152344 16 "/>
</clipPath>
<clipPath id="clip-4">
<path clip-rule="nonzero" d="M 79 5.480469 L 80 5.480469 L 80 182.851562 L 79 182.851562 Z M 79 5.480469 "/>
</clipPath>
<clipPath id="clip-5">
<path clip-rule="nonzero" d="M 147 5.480469 L 149 5.480469 L 149 182.851562 L 147 182.851562 Z M 147 5.480469 "/>
</clipPath>
<clipPath id="clip-6">
<path clip-rule="nonzero" d="M 216 5.480469 L 218 5.480469 L 218 182.851562 L 216 182.851562 Z M 216 5.480469 "/>
</clipPath>
<clipPath id="clip-7">
<path clip-rule="nonzero" d="M 285 5.480469 L 286 5.480469 L 286 182.851562 L 285 182.851562 Z M 285 5.480469 "/>
</clipPath>
<clipPath id="clip-8">
<path clip-rule="nonzero" d="M 34.152344 176 L 304.84375 176 L 304.84375 178 L 34.152344 178 Z M 34.152344 176 "/>
</clipPath>
<clipPath id="clip-9">
<path clip-rule="nonzero" d="M 34.152344 112 L 304.84375 112 L 304.84375 114 L 34.152344 114 Z M 34.152344 112 "/>
</clipPath>
<clipPath id="clip-10">
<path clip-rule="nonzero" d="M 34.152344 48 L 304.84375 48 L 304.84375 50 L 34.152344 50 Z M 34.152344 48 "/>
</clipPath>
<clipPath id="clip-11">
<path clip-rule="nonzero" d="M 44 5.480469 L 46 5.480469 L 46 182.851562 L 44 182.851562 Z M 44 5.480469 "/>
</clipPath>
<clipPath id="clip-12">
<path clip-rule="nonzero" d="M 113 5.480469 L 115 5.480469 L 115 182.851562 L 113 182.851562 Z M 113 5.480469 "/>
</clipPath>
<clipPath id="clip-13">
<path clip-rule="nonzero" d="M 182 5.480469 L 184 5.480469 L 184 182.851562 L 182 182.851562 Z M 182 5.480469 "/>
</clipPath>
<clipPath id="clip-14">
<path clip-rule="nonzero" d="M 250 5.480469 L 252 5.480469 L 252 182.851562 L 250 182.851562 Z M 250 5.480469 "/>
</clipPath>
<clipPath id="clip-15">
<path clip-rule="nonzero" d="M 34.152344 104 L 304.84375 104 L 304.84375 106 L 34.152344 106 Z M 34.152344 104 "/>
</clipPath>
</defs>
<rect x="-38.3" y="-21.6" width="459.6" height="259.2" fill="rgb(100%, 100%, 100%)" fill-opacity="1"/>
<rect x="-38.3" y="-21.6" width="459.6" height="259.2" fill="rgb(100%, 100%, 100%)" fill-opacity="1"/>
<path fill="none" stroke-width="1.066978" stroke-linecap="round" stroke-linejoin="round" stroke="rgb(100%, 100%, 100%)" stroke-opacity="1" stroke-miterlimit="10" d="M 0 216 L 383 216 L 383 0 L 0 0 Z M 0 216 "/>
<g clip-path="url(#clip-0)">
<path fill-rule="nonzero" fill="rgb(92.156863%, 92.156863%, 92.156863%)" fill-opacity="1" d="M 34.152344 182.847656 L 304.84375 182.847656 L 304.84375 5.476562 L 34.152344 5.476562 Z M 34.152344 182.847656 "/>
</g>
<g clip-path="url(#clip-1)">
<path fill="none" stroke-width="0.533489" stroke-linecap="butt" stroke-linejoin="round" stroke="rgb(100%, 100%, 100%)" stroke-opacity="1" stroke-miterlimit="10" d="M 34.152344 144.71875 L 304.84375 144.71875 "/>
</g>
<g clip-path="url(#clip-2)">
<path fill="none" stroke-width="0.533489" stroke-linecap="butt" stroke-linejoin="round" stroke="rgb(100%, 100%, 100%)" stroke-opacity="1" stroke-miterlimit="10" d="M 34.152344 80.734375 L 304.84375 80.734375 "/>
</g>
<g clip-path="url(#clip-3)">
<path fill="none" stroke-width="0.533489" stroke-linecap="butt" stroke-linejoin="round" stroke="rgb(100%, 100%, 100%)" stroke-opacity="1" stroke-miterlimit="10" d="M 34.152344 16.75 L 304.84375 16.75 "/>
</g>
<g clip-path="url(#clip-4)">
<path fill="none" stroke-width="0.533489" stroke-linecap="butt" stroke-linejoin="round" stroke="rgb(100%, 100%, 100%)" stroke-opacity="1" stroke-miterlimit="10" d="M 79.449219 182.847656 L 79.449219 5.480469 "/>
</g>
<g clip-path="url(#clip-5)">
<path fill="none" stroke-width="0.533489" stroke-linecap="butt" stroke-linejoin="round" stroke="rgb(100%, 100%, 100%)" stroke-opacity="1" stroke-miterlimit="10" d="M 148.1875 182.847656 L 148.1875 5.480469 "/>
</g>
<g clip-path="url(#clip-6)">
<path fill="none" stroke-width="0.533489" stroke-linecap="butt" stroke-linejoin="round" stroke="rgb(100%, 100%, 100%)" stroke-opacity="1" stroke-miterlimit="10" d="M 216.925781 182.847656 L 216.925781 5.480469 "/>
</g>
<g clip-path="url(#clip-7)">
<path fill="none" stroke-width="0.533489" stroke-linecap="butt" stroke-linejoin="round" stroke="rgb(100%, 100%, 100%)" stroke-opacity="1" stroke-miterlimit="10" d="M 285.664062 182.847656 L 285.664062 5.480469 "/>
</g>
<g clip-path="url(#clip-8)">
<path fill="none" stroke-width="1.066978" stroke-linecap="butt" stroke-linejoin="round" stroke="rgb(100%, 100%, 100%)" stroke-opacity="1" stroke-miterlimit="10" d="M 34.152344 176.710938 L 304.84375 176.710938 "/>
</g>
<g clip-path="url(#clip-9)">
<path fill="none" stroke-width="1.066978" stroke-linecap="butt" stroke-linejoin="round" stroke="rgb(100%, 100%, 100%)" stroke-opacity="1" stroke-miterlimit="10" d="M 34.152344 112.726562 L 304.84375 112.726562 "/>
</g>
<g clip-path="url(#clip-10)">
<path fill="none" stroke-width="1.066978" stroke-linecap="butt" stroke-linejoin="round" stroke="rgb(100%, 100%, 100%)" stroke-opacity="1" stroke-miterlimit="10" d="M 34.152344 48.742188 L 304.84375 48.742188 "/>
</g>
<g clip-path="url(#clip-11)">
<path fill="none" stroke-width="1.066978" stroke-linecap="butt" stroke-linejoin="round" stroke="rgb(100%, 100%, 100%)" stroke-opacity="1" stroke-miterlimit="10" d="M 45.082031 182.847656 L 45.082031 5.480469 "/>
</g>
<g clip-path="url(#clip-12)">
<path fill="none" stroke-width="1.066978" stroke-linecap="butt" stroke-linejoin="round" stroke="rgb(100%, 100%, 100%)" stroke-opacity="1" stroke-miterlimit="10" d="M 113.820312 182.847656 L 113.820312 5.480469 "/>
</g>
<g clip-path="url(#clip-13)">
<path fill="none" stroke-width="1.066978" stroke-linecap="butt" stroke-linejoin="round" stroke="rgb(100%, 100%, 100%)" stroke-opacity="1" stroke-miterlimit="10" d="M 182.558594 182.847656 L 182.558594 5.480469 "/>
</g>
<g clip-path="url(#clip-14)">
<path fill="none" stroke-width="1.066978" stroke-linecap="butt" stroke-linejoin="round" stroke="rgb(100%, 100%, 100%)" stroke-opacity="1" stroke-miterlimit="10" d="M 251.296875 182.847656 L 251.296875 5.480469 "/>
</g>
<path fill-rule="nonzero" fill="rgb(0%, 0%, 0%)" fill-opacity="1" d="M 48.941406 153.699219 C 48.941406 157.015625 43.964844 157.015625 43.964844 153.699219 C 43.964844 150.382812 48.941406 150.382812 48.941406 153.699219 "/>
<path fill-rule="nonzero" fill="rgb(0%, 0%, 0%)" fill-opacity="1" d="M 50.316406 168.257812 C 50.316406 171.574219 45.339844 171.574219 45.339844 168.257812 C 45.339844 164.941406 50.316406 164.941406 50.316406 168.257812 "/>
<path fill-rule="nonzero" fill="rgb(0%, 0%, 0%)" fill-opacity="1" d="M 51.691406 173.5 C 51.691406 176.820312 46.714844 176.820312 46.714844 173.5 C 46.714844 170.183594 51.691406 170.183594 51.691406 173.5 "/>
<path fill-rule="nonzero" fill="rgb(0%, 0%, 0%)" fill-opacity="1" d="M 53.066406 168.613281 C 53.066406 171.933594 48.089844 171.933594 48.089844 168.613281 C 48.089844 165.296875 53.066406 165.296875 53.066406 168.613281 "/>
<path fill-rule="nonzero" fill="rgb(0%, 0%, 0%)" fill-opacity="1" d="M 54.441406 142.578125 C 54.441406 145.894531 49.464844 145.894531 49.464844 142.578125 C 49.464844 139.257812 54.441406 139.257812 54.441406 142.578125 "/>
<path fill-rule="nonzero" fill="rgb(0%, 0%, 0%)" fill-opacity="1" d="M 55.816406 149.285156 C 55.816406 152.601562 50.839844 152.601562 50.839844 149.285156 C 50.839844 145.964844 55.816406 145.964844 55.816406 149.285156 "/>
<path fill-rule="nonzero" fill="rgb(0%, 0%, 0%)" fill-opacity="1" d="M 57.191406 164.050781 C 57.191406 167.371094 52.214844 167.371094 52.214844 164.050781 C 52.214844 160.734375 57.191406 160.734375 57.191406 164.050781 "/>
<path fill-rule="nonzero" fill="rgb(0%, 0%, 0%)" fill-opacity="1" d="M 58.566406 169.113281 C 58.566406 172.429688 53.589844 172.429688 53.589844 169.113281 C 53.589844 165.792969 58.566406 165.792969 58.566406 169.113281 "/>
<path fill-rule="nonzero" fill="rgb(0%, 0%, 0%)" fill-opacity="1" d="M 59.941406 172.410156 C 59.941406 175.726562 54.964844 175.726562 54.964844 172.410156 C 54.964844 169.089844 59.941406 169.089844 59.941406 172.410156 "/>
<path fill-rule="nonzero" fill="rgb(0%, 0%, 0%)" fill-opacity="1" d="M 61.316406 156.574219 C 61.316406 159.894531 56.339844 159.894531 56.339844 156.574219 C 56.339844 153.257812 61.316406 153.257812 61.316406 156.574219 "/>
<path fill-rule="nonzero" fill="rgb(0%, 0%, 0%)" fill-opacity="1" d="M 62.691406 137.257812 C 62.691406 140.574219 57.714844 140.574219 57.714844 137.257812 C 57.714844 133.941406 62.691406 133.941406 62.691406 137.257812 "/>
<path fill-rule="nonzero" fill="rgb(0%, 0%, 0%)" fill-opacity="1" d="M 64.066406 147.878906 C 64.066406 151.195312 59.089844 151.195312 59.089844 147.878906 C 59.089844 144.558594 64.066406 144.558594 64.066406 147.878906 "/>
<path fill-rule="nonzero" fill="rgb(0%, 0%, 0%)" fill-opacity="1" d="M 65.441406 161.675781 C 65.441406 164.992188 60.464844 164.992188 60.464844 161.675781 C 60.464844 158.355469 65.441406 158.355469 65.441406 161.675781 "/>
<path fill-rule="nonzero" fill="rgb(0%, 0%, 0%)" fill-opacity="1" d="M 66.816406 166.890625 C 66.816406 170.207031 61.839844 170.207031 61.839844 166.890625 C 61.839844 163.574219 66.816406 163.574219 66.816406 166.890625 "/>
<path fill-rule="nonzero" fill="rgb(0%, 0%, 0%)" fill-opacity="1" d="M 68.191406 114.976562 C 68.191406 118.296875 63.214844 118.296875 63.214844 114.976562 C 63.214844 111.660156 68.191406 111.660156 68.191406 114.976562 "/>
<path fill-rule="nonzero" fill="rgb(0%, 0%, 0%)" fill-opacity="1" d="M 69.566406 161.90625 C 69.566406 165.222656 64.589844 165.222656 64.589844 161.90625 C 64.589844 158.585938 69.566406 158.585938 69.566406 161.90625 "/>
<path fill-rule="nonzero" fill="rgb(0%, 0%, 0%)" fill-opacity="1" d="M 70.941406 167.972656 C 70.941406 171.289062 65.964844 171.289062 65.964844 167.972656 C 65.964844 164.65625 70.941406 164.65625 70.941406 167.972656 "/>
<path fill-rule="nonzero" fill="rgb(0%, 0%, 0%)" fill-opacity="1" d="M 72.3125 163.570312 C 72.3125 166.890625 67.335938 166.890625 67.335938 163.570312 C 67.335938 160.253906 72.3125 160.253906 72.3125 163.570312 "/>
<path fill-rule="nonzero" fill="rgb(0%, 0%, 0%)" fill-opacity="1" d="M 73.6875 153.453125 C 73.6875 156.769531 68.710938 156.769531 68.710938 153.453125 C 68.710938 150.132812 73.6875 150.132812 73.6875 153.453125 "/>
<path fill-rule="nonzero" fill="rgb(0%, 0%, 0%)" fill-opacity="1" d="M 75.0625 133.703125 C 75.0625 137.019531 70.085938 137.019531 70.085938 133.703125 C 70.085938 130.386719 75.0625 130.386719 75.0625 133.703125 "/>
<path fill-rule="nonzero" fill="rgb(0%, 0%, 0%)" fill-opacity="1" d="M 76.4375 143.9375 C 76.4375 147.257812 71.460938 147.257812 71.460938 143.9375 C 71.460938 140.621094 76.4375 140.621094 76.4375 143.9375 "/>
<path fill-rule="nonzero" fill="rgb(0%, 0%, 100%)" fill-opacity="1" d="M 75.324219 92.308594 L 78.675781 98.113281 L 71.972656 98.113281 Z M 75.324219 92.308594 "/>
<path fill-rule="nonzero" fill="rgb(0%, 0%, 0%)" fill-opacity="1" d="M 79.1875 119.910156 C 79.1875 123.226562 74.210938 123.226562 74.210938 119.910156 C 74.210938 116.589844 79.1875 116.589844 79.1875 119.910156 "/>
<path fill-rule="nonzero" fill="rgb(0%, 0%, 0%)" fill-opacity="1" d="M 80.5625 154.667969 C 80.5625 157.984375 75.585938 157.984375 75.585938 154.667969 C 75.585938 151.351562 80.5625 151.351562 80.5625 154.667969 "/>
<path fill-rule="nonzero" fill="rgb(0%, 0%, 0%)" fill-opacity="1" d="M 81.9375 172.554688 C 81.9375 175.875 76.960938 175.875 76.960938 172.554688 C 76.960938 169.238281 81.9375 169.238281 81.9375 172.554688 "/>
<path fill-rule="nonzero" fill="rgb(0%, 0%, 0%)" fill-opacity="1" d="M 83.3125 155.621094 C 83.3125 158.9375 78.335938 158.9375 78.335938 155.621094 C 78.335938 152.304688 83.3125 152.304688 83.3125 155.621094 "/>
<path fill-rule="nonzero" fill="rgb(0%, 0%, 0%)" fill-opacity="1" d="M 84.6875 157.773438 C 84.6875 161.09375 79.710938 161.09375 79.710938 157.773438 C 79.710938 154.457031 84.6875 154.457031 84.6875 157.773438 "/>
<path fill-rule="nonzero" fill="rgb(0%, 0%, 0%)" fill-opacity="1" d="M 86.0625 137.988281 C 86.0625 141.308594 81.085938 141.308594 81.085938 137.988281 C 81.085938 134.671875 86.0625 134.671875 86.0625 137.988281 "/>
<path fill-rule="nonzero" fill="rgb(0%, 0%, 0%)" fill-opacity="1" d="M 87.4375 166.972656 C 87.4375 170.292969 82.460938 170.292969 82.460938 166.972656 C 82.460938 163.65625 87.4375 163.65625 87.4375 166.972656 "/>
<path fill-rule="nonzero" fill="rgb(0%, 0%, 100%)" fill-opacity="1" d="M 86.324219 9.671875 L 89.675781 15.476562 L 82.972656 15.476562 Z M 86.324219 9.671875 "/>
<path fill-rule="nonzero" fill="rgb(0%, 0%, 0%)" fill-opacity="1" d="M 90.1875 126.742188 C 90.1875 130.058594 85.210938 130.058594 85.210938 126.742188 C 85.210938 123.425781 90.1875 123.425781 90.1875 126.742188 "/>
<path fill-rule="nonzero" fill="rgb(0%, 0%, 0%)" fill-opacity="1" d="M 91.5625 147.523438 C 91.5625 150.839844 86.585938 150.839844 86.585938 147.523438 C 86.585938 144.203125 91.5625 144.203125 91.5625 147.523438 "/>
<path fill-rule="nonzero" fill="rgb(0%, 0%, 0%)" fill-opacity="1" d="M 92.9375 117.511719 C 92.9375 120.832031 87.960938 120.832031 87.960938 117.511719 C 87.960938 114.195312 92.9375 114.195312 92.9375 117.511719 "/>
<path fill-rule="nonzero" fill="rgb(0%, 0%, 0%)" fill-opacity="1" d="M 94.3125 169.664062 C 94.3125 172.984375 89.335938 172.984375 89.335938 169.664062 C 89.335938 166.347656 94.3125 166.347656 94.3125 169.664062 "/>
<path fill-rule="nonzero" fill="rgb(0%, 0%, 0%)" fill-opacity="1" d="M 95.683594 147.144531 C 95.683594 150.460938 90.707031 150.460938 90.707031 147.144531 C 90.707031 143.824219 95.683594 143.824219 95.683594 147.144531 "/>
<path fill-rule="nonzero" fill="rgb(0%, 0%, 0%)" fill-opacity="1" d="M 97.058594 160.898438 C 97.058594 164.21875 92.082031 164.21875 92.082031 160.898438 C 92.082031 157.582031 97.058594 157.582031 97.058594 160.898438 "/>
<path fill-rule="nonzero" fill="rgb(0%, 0%, 0%)" fill-opacity="1" d="M 98.433594 131.984375 C 98.433594 135.300781 93.457031 135.300781 93.457031 131.984375 C 93.457031 128.667969 98.433594 128.667969 98.433594 131.984375 "/>
<path fill-rule="nonzero" fill="rgb(0%, 0%, 0%)" fill-opacity="1" d="M 99.808594 141.027344 C 99.808594 144.347656 94.832031 144.347656 94.832031 141.027344 C 94.832031 137.710938 99.808594 137.710938 99.808594 141.027344 "/>
<path fill-rule="nonzero" fill="rgb(0%, 0%, 0%)" fill-opacity="1" d="M 101.183594 169.691406 C 101.183594 173.007812 96.207031 173.007812 96.207031 169.691406 C 96.207031 166.371094 101.183594 166.371094 101.183594 169.691406 "/>
<path fill-rule="nonzero" fill="rgb(0%, 0%, 0%)" fill-opacity="1" d="M 102.558594 131.425781 C 102.558594 134.742188 97.582031 134.742188 97.582031 131.425781 C 97.582031 128.109375 102.558594 128.109375 102.558594 131.425781 "/>
<path fill-rule="nonzero" fill="rgb(0%, 0%, 0%)" fill-opacity="1" d="M 103.933594 170.726562 C 103.933594 174.046875 98.957031 174.046875 98.957031 170.726562 C 98.957031 167.410156 103.933594 167.410156 103.933594 170.726562 "/>
<path fill-rule="nonzero" fill="rgb(0%, 0%, 0%)" fill-opacity="1" d="M 105.308594 166.8125 C 105.308594 170.132812 100.332031 170.132812 100.332031 166.8125 C 100.332031 163.496094 105.308594 163.496094 105.308594 166.8125 "/>
<path fill-rule="nonzero" fill="rgb(0%, 0%, 0%)" fill-opacity="1" d="M 106.683594 167.792969 C 106.683594 171.109375 101.707031 171.109375 101.707031 167.792969 C 101.707031 164.476562 106.683594 164.476562 106.683594 167.792969 "/>
<path fill-rule="nonzero" fill="rgb(0%, 0%, 0%)" fill-opacity="1" d="M 108.058594 155.820312 C 108.058594 159.136719 103.082031 159.136719 103.082031 155.820312 C 103.082031 152.5 108.058594 152.5 108.058594 155.820312 "/>
<path fill-rule="nonzero" fill="rgb(0%, 0%, 0%)" fill-opacity="1" d="M 109.433594 168.316406 C 109.433594 171.632812 104.457031 171.632812 104.457031 168.316406 C 104.457031 164.996094 109.433594 164.996094 109.433594 168.316406 "/>
<path fill-rule="nonzero" fill="rgb(0%, 0%, 0%)" fill-opacity="1" d="M 110.808594 165.550781 C 110.808594 168.867188 105.832031 168.867188 105.832031 165.550781 C 105.832031 162.234375 110.808594 162.234375 110.808594 165.550781 "/>
<path fill-rule="nonzero" fill="rgb(0%, 0%, 0%)" fill-opacity="1" d="M 112.183594 168.3125 C 112.183594 171.628906 107.207031 171.628906 107.207031 168.3125 C 107.207031 164.996094 112.183594 164.996094 112.183594 168.3125 "/>
<path fill-rule="nonzero" fill="rgb(0%, 0%, 0%)" fill-opacity="1" d="M 113.558594 165.890625 C 113.558594 169.207031 108.582031 169.207031 108.582031 165.890625 C 108.582031 162.570312 113.558594 162.570312 113.558594 165.890625 "/>
<path fill-rule="nonzero" fill="rgb(0%, 0%, 0%)" fill-opacity="1" d="M 114.933594 148.117188 C 114.933594 151.433594 109.957031 151.433594 109.957031 148.117188 C 109.957031 144.800781 114.933594 144.800781 114.933594 148.117188 "/>
<path fill-rule="nonzero" fill="rgb(0%, 0%, 0%)" fill-opacity="1" d="M 116.308594 174.785156 C 116.308594 178.105469 111.332031 178.105469 111.332031 174.785156 C 111.332031 171.46875 116.308594 171.46875 116.308594 174.785156 "/>
<path fill-rule="nonzero" fill="rgb(0%, 0%, 0%)" fill-opacity="1" d="M 117.683594 170.617188 C 117.683594 173.933594 112.707031 173.933594 112.707031 170.617188 C 112.707031 167.300781 117.683594 167.300781 117.683594 170.617188 "/>
<path fill-rule="nonzero" fill="rgb(0%, 0%, 0%)" fill-opacity="1" d="M 119.054688 162.746094 C 119.054688 166.0625 114.078125 166.0625 114.078125 162.746094 C 114.078125 159.429688 119.054688 159.429688 119.054688 162.746094 "/>
<path fill-rule="nonzero" fill="rgb(0%, 0%, 0%)" fill-opacity="1" d="M 120.429688 164.367188 C 120.429688 167.6875 115.453125 167.6875 115.453125 164.367188 C 115.453125 161.050781 120.429688 161.050781 120.429688 164.367188 "/>
<path fill-rule="nonzero" fill="rgb(0%, 0%, 0%)" fill-opacity="1" d="M 121.804688 158.660156 C 121.804688 161.976562 116.828125 161.976562 116.828125 158.660156 C 116.828125 155.34375 121.804688 155.34375 121.804688 158.660156 "/>
<path fill-rule="nonzero" fill="rgb(0%, 0%, 0%)" fill-opacity="1" d="M 123.179688 140.351562 C 123.179688 143.671875 118.203125 143.671875 118.203125 140.351562 C 118.203125 137.035156 123.179688 137.035156 123.179688 140.351562 "/>
<path fill-rule="nonzero" fill="rgb(0%, 0%, 0%)" fill-opacity="1" d="M 124.554688 170.164062 C 124.554688 173.484375 119.578125 173.484375 119.578125 170.164062 C 119.578125 166.847656 124.554688 166.847656 124.554688 170.164062 "/>
<path fill-rule="nonzero" fill="rgb(0%, 0%, 0%)" fill-opacity="1" d="M 125.929688 120.917969 C 125.929688 124.238281 120.953125 124.238281 120.953125 120.917969 C 120.953125 117.601562 125.929688 117.601562 125.929688 120.917969 "/>
<path fill-rule="nonzero" fill="rgb(0%, 0%, 0%)" fill-opacity="1" d="M 127.304688 125.875 C 127.304688 129.191406 122.328125 129.191406 122.328125 125.875 C 122.328125 122.558594 127.304688 122.558594 127.304688 125.875 "/>
<path fill-rule="nonzero" fill="rgb(0%, 0%, 100%)" fill-opacity="1" d="M 126.191406 39.089844 L 129.542969 44.894531 L 122.839844 44.894531 Z M 126.191406 39.089844 "/>
<path fill-rule="nonzero" fill="rgb(0%, 0%, 0%)" fill-opacity="1" d="M 130.054688 111.777344 C 130.054688 115.097656 125.078125 115.097656 125.078125 111.777344 C 125.078125 108.460938 130.054688 108.460938 130.054688 111.777344 "/>
<path fill-rule="nonzero" fill="rgb(0%, 0%, 0%)" fill-opacity="1" d="M 131.429688 155.5 C 131.429688 158.816406 126.453125 158.816406 126.453125 155.5 C 126.453125 152.183594 131.429688 152.183594 131.429688 155.5 "/>
<path fill-rule="nonzero" fill="rgb(0%, 0%, 100%)" fill-opacity="1" d="M 130.316406 95.523438 L 133.667969 101.328125 L 126.964844 101.328125 Z M 130.316406 95.523438 "/>
<path fill-rule="nonzero" fill="rgb(0%, 0%, 100%)" fill-opacity="1" d="M 131.691406 65.871094 L 135.042969 71.675781 L 128.339844 71.675781 Z M 131.691406 65.871094 "/>
<path fill-rule="nonzero" fill="rgb(0%, 0%, 0%)" fill-opacity="1" d="M 135.554688 172.894531 C 135.554688 176.210938 130.578125 176.210938 130.578125 172.894531 C 130.578125 169.578125 135.554688 169.578125 135.554688 172.894531 "/>
<path fill-rule="nonzero" fill="rgb(0%, 0%, 0%)" fill-opacity="1" d="M 136.929688 167.492188 C 136.929688 170.8125 131.953125 170.8125 131.953125 167.492188 C 131.953125 164.175781 136.929688 164.175781 136.929688 167.492188 "/>
<path fill-rule="nonzero" fill="rgb(0%, 0%, 0%)" fill-opacity="1" d="M 138.304688 147.257812 C 138.304688 150.574219 133.328125 150.574219 133.328125 147.257812 C 133.328125 143.9375 138.304688 143.9375 138.304688 147.257812 "/>
<path fill-rule="nonzero" fill="rgb(0%, 0%, 0%)" fill-opacity="1" d="M 139.679688 161.484375 C 139.679688 164.800781 134.703125 164.800781 134.703125 161.484375 C 134.703125 158.164062 139.679688 158.164062 139.679688 161.484375 "/>
<path fill-rule="nonzero" fill="rgb(0%, 0%, 0%)" fill-opacity="1" d="M 141.054688 135.9375 C 141.054688 139.253906 136.078125 139.253906 136.078125 135.9375 C 136.078125 132.617188 141.054688 132.617188 141.054688 135.9375 "/>
<path fill-rule="nonzero" fill="rgb(0%, 0%, 0%)" fill-opacity="1" d="M 142.425781 133.667969 C 142.425781 136.984375 137.449219 136.984375 137.449219 133.667969 C 137.449219 130.351562 142.425781 130.351562 142.425781 133.667969 "/>
<path fill-rule="nonzero" fill="rgb(0%, 0%, 0%)" fill-opacity="1" d="M 143.800781 162.097656 C 143.800781 165.417969 138.824219 165.417969 138.824219 162.097656 C 138.824219 158.78125 143.800781 158.78125 143.800781 162.097656 "/>
<path fill-rule="nonzero" fill="rgb(0%, 0%, 0%)" fill-opacity="1" d="M 145.175781 161.296875 C 145.175781 164.613281 140.199219 164.613281 140.199219 161.296875 C 140.199219 157.976562 145.175781 157.976562 145.175781 161.296875 "/>
<path fill-rule="nonzero" fill="rgb(0%, 0%, 0%)" fill-opacity="1" d="M 146.550781 145.4375 C 146.550781 148.757812 141.574219 148.757812 141.574219 145.4375 C 141.574219 142.121094 146.550781 142.121094 146.550781 145.4375 "/>
<path fill-rule="nonzero" fill="rgb(0%, 0%, 0%)" fill-opacity="1" d="M 147.925781 153.636719 C 147.925781 156.957031 142.949219 156.957031 142.949219 153.636719 C 142.949219 150.320312 147.925781 150.320312 147.925781 153.636719 "/>
<path fill-rule="nonzero" fill="rgb(0%, 0%, 0%)" fill-opacity="1" d="M 149.300781 140.199219 C 149.300781 143.515625 144.324219 143.515625 144.324219 140.199219 C 144.324219 136.882812 149.300781 136.882812 149.300781 140.199219 "/>
<path fill-rule="nonzero" fill="rgb(0%, 0%, 0%)" fill-opacity="1" d="M 150.675781 165.949219 C 150.675781 169.265625 145.699219 169.265625 145.699219 165.949219 C 145.699219 162.628906 150.675781 162.628906 150.675781 165.949219 "/>
<path fill-rule="nonzero" fill="rgb(0%, 0%, 0%)" fill-opacity="1" d="M 152.050781 149.039062 C 152.050781 152.355469 147.074219 152.355469 147.074219 149.039062 C 147.074219 145.71875 152.050781 145.71875 152.050781 149.039062 "/>
<path fill-rule="nonzero" fill="rgb(0%, 0%, 0%)" fill-opacity="1" d="M 153.425781 129.816406 C 153.425781 133.132812 148.449219 133.132812 148.449219 129.816406 C 148.449219 126.496094 153.425781 126.496094 153.425781 129.816406 "/>
<path fill-rule="nonzero" fill="rgb(0%, 0%, 0%)" fill-opacity="1" d="M 154.800781 137.402344 C 154.800781 140.71875 149.824219 140.71875 149.824219 137.402344 C 149.824219 134.082031 154.800781 134.082031 154.800781 137.402344 "/>
<path fill-rule="nonzero" fill="rgb(0%, 0%, 0%)" fill-opacity="1" d="M 156.175781 160.609375 C 156.175781 163.925781 151.199219 163.925781 151.199219 160.609375 C 151.199219 157.292969 156.175781 157.292969 156.175781 160.609375 "/>
<path fill-rule="nonzero" fill="rgb(0%, 0%, 0%)" fill-opacity="1" d="M 157.550781 155.371094 C 157.550781 158.691406 152.574219 158.691406 152.574219 155.371094 C 152.574219 152.054688 157.550781 152.054688 157.550781 155.371094 "/>
<path fill-rule="nonzero" fill="rgb(0%, 0%, 0%)" fill-opacity="1" d="M 158.925781 163.40625 C 158.925781 166.726562 153.949219 166.726562 153.949219 163.40625 C 153.949219 160.089844 158.925781 160.089844 158.925781 163.40625 "/>
<path fill-rule="nonzero" fill="rgb(0%, 0%, 0%)" fill-opacity="1" d="M 160.300781 154.757812 C 160.300781 158.074219 155.324219 158.074219 155.324219 154.757812 C 155.324219 151.4375 160.300781 151.4375 160.300781 154.757812 "/>
<path fill-rule="nonzero" fill="rgb(0%, 0%, 0%)" fill-opacity="1" d="M 161.675781 130.148438 C 161.675781 133.464844 156.699219 133.464844 156.699219 130.148438 C 156.699219 126.828125 161.675781 126.828125 161.675781 130.148438 "/>
<path fill-rule="nonzero" fill="rgb(0%, 0%, 0%)" fill-opacity="1" d="M 163.050781 147.734375 C 163.050781 151.054688 158.074219 151.054688 158.074219 147.734375 C 158.074219 144.417969 163.050781 144.417969 163.050781 147.734375 "/>
<path fill-rule="nonzero" fill="rgb(0%, 0%, 0%)" fill-opacity="1" d="M 164.425781 162.417969 C 164.425781 165.734375 159.449219 165.734375 159.449219 162.417969 C 159.449219 159.097656 164.425781 159.097656 164.425781 162.417969 "/>
<path fill-rule="nonzero" fill="rgb(0%, 0%, 0%)" fill-opacity="1" d="M 165.796875 152.878906 C 165.796875 156.195312 160.820312 156.195312 160.820312 152.878906 C 160.820312 149.558594 165.796875 149.558594 165.796875 152.878906 "/>
<path fill-rule="nonzero" fill="rgb(0%, 0%, 0%)" fill-opacity="1" d="M 167.171875 139.519531 C 167.171875 142.835938 162.195312 142.835938 162.195312 139.519531 C 162.195312 136.199219 167.171875 136.199219 167.171875 139.519531 "/>
<path fill-rule="nonzero" fill="rgb(0%, 0%, 0%)" fill-opacity="1" d="M 168.546875 120.75 C 168.546875 124.066406 163.570312 124.066406 163.570312 120.75 C 163.570312 117.433594 168.546875 117.433594 168.546875 120.75 "/>
<path fill-rule="nonzero" fill="rgb(0%, 0%, 0%)" fill-opacity="1" d="M 169.921875 150.769531 C 169.921875 154.085938 164.945312 154.085938 164.945312 150.769531 C 164.945312 147.449219 169.921875 147.449219 169.921875 150.769531 "/>
<path fill-rule="nonzero" fill="rgb(0%, 0%, 0%)" fill-opacity="1" d="M 171.296875 135.949219 C 171.296875 139.265625 166.320312 139.265625 166.320312 135.949219 C 166.320312 132.632812 171.296875 132.632812 171.296875 135.949219 "/>
<path fill-rule="nonzero" fill="rgb(0%, 0%, 0%)" fill-opacity="1" d="M 172.671875 143.894531 C 172.671875 147.210938 167.695312 147.210938 167.695312 143.894531 C 167.695312 140.574219 172.671875 140.574219 172.671875 143.894531 "/>
<path fill-rule="nonzero" fill="rgb(0%, 0%, 0%)" fill-opacity="1" d="M 174.046875 142.136719 C 174.046875 145.453125 169.070312 145.453125 169.070312 142.136719 C 169.070312 138.820312 174.046875 138.820312 174.046875 142.136719 "/>
<path fill-rule="nonzero" fill="rgb(0%, 0%, 0%)" fill-opacity="1" d="M 175.421875 168.617188 C 175.421875 171.933594 170.445312 171.933594 170.445312 168.617188 C 170.445312 165.296875 175.421875 165.296875 175.421875 168.617188 "/>
<path fill-rule="nonzero" fill="rgb(0%, 0%, 0%)" fill-opacity="1" d="M 176.796875 123.363281 C 176.796875 126.679688 171.820312 126.679688 171.820312 123.363281 C 171.820312 120.046875 176.796875 120.046875 176.796875 123.363281 "/>
<path fill-rule="nonzero" fill="rgb(0%, 0%, 0%)" fill-opacity="1" d="M 178.171875 157.546875 C 178.171875 160.863281 173.195312 160.863281 173.195312 157.546875 C 173.195312 154.230469 178.171875 154.230469 178.171875 157.546875 "/>
<path fill-rule="nonzero" fill="rgb(0%, 0%, 0%)" fill-opacity="1" d="M 179.546875 149.785156 C 179.546875 153.101562 174.570312 153.101562 174.570312 149.785156 C 174.570312 146.46875 179.546875 146.46875 179.546875 149.785156 "/>
<path fill-rule="nonzero" fill="rgb(0%, 0%, 0%)" fill-opacity="1" d="M 180.921875 168.910156 C 180.921875 172.230469 175.945312 172.230469 175.945312 168.910156 C 175.945312 165.59375 180.921875 165.59375 180.921875 168.910156 "/>
<path fill-rule="nonzero" fill="rgb(0%, 0%, 100%)" fill-opacity="1" d="M 179.808594 101.167969 L 183.160156 106.972656 L 176.457031 106.972656 Z M 179.808594 101.167969 "/>
<path fill-rule="nonzero" fill="rgb(0%, 0%, 0%)" fill-opacity="1" d="M 183.671875 170.253906 C 183.671875 173.574219 178.695312 173.574219 178.695312 170.253906 C 178.695312 166.9375 183.671875 166.9375 183.671875 170.253906 "/>
<path fill-rule="nonzero" fill="rgb(0%, 0%, 0%)" fill-opacity="1" d="M 185.046875 152.359375 C 185.046875 155.675781 180.070312 155.675781 180.070312 152.359375 C 180.070312 149.039062 185.046875 149.039062 185.046875 152.359375 "/>
<path fill-rule="nonzero" fill="rgb(0%, 0%, 0%)" fill-opacity="1" d="M 186.421875 126.605469 C 186.421875 129.921875 181.445312 129.921875 181.445312 126.605469 C 181.445312 123.285156 186.421875 123.285156 186.421875 126.605469 "/>
<path fill-rule="nonzero" fill="rgb(0%, 0%, 0%)" fill-opacity="1" d="M 187.796875 150.894531 C 187.796875 154.214844 182.820312 154.214844 182.820312 150.894531 C 182.820312 147.578125 187.796875 147.578125 187.796875 150.894531 "/>
<path fill-rule="nonzero" fill="rgb(0%, 0%, 0%)" fill-opacity="1" d="M 189.171875 166.503906 C 189.171875 169.824219 184.191406 169.824219 184.191406 166.503906 C 184.191406 163.1875 189.171875 163.1875 189.171875 166.503906 "/>
<path fill-rule="nonzero" fill="rgb(0%, 0%, 0%)" fill-opacity="1" d="M 190.542969 144.089844 C 190.542969 147.40625 185.566406 147.40625 185.566406 144.089844 C 185.566406 140.773438 190.542969 140.773438 190.542969 144.089844 "/>
<path fill-rule="nonzero" fill="rgb(0%, 0%, 0%)" fill-opacity="1" d="M 191.917969 140.601562 C 191.917969 143.917969 186.941406 143.917969 186.941406 140.601562 C 186.941406 137.28125 191.917969 137.28125 191.917969 140.601562 "/>
<path fill-rule="nonzero" fill="rgb(0%, 0%, 0%)" fill-opacity="1" d="M 193.292969 166.742188 C 193.292969 170.0625 188.316406 170.0625 188.316406 166.742188 C 188.316406 163.425781 193.292969 163.425781 193.292969 166.742188 "/>
<path fill-rule="nonzero" fill="rgb(0%, 0%, 0%)" fill-opacity="1" d="M 194.667969 169.261719 C 194.667969 172.582031 189.691406 172.582031 189.691406 169.261719 C 189.691406 165.945312 194.667969 165.945312 194.667969 169.261719 "/>
<path fill-rule="nonzero" fill="rgb(0%, 0%, 0%)" fill-opacity="1" d="M 196.042969 151.363281 C 196.042969 154.679688 191.066406 154.679688 191.066406 151.363281 C 191.066406 148.046875 196.042969 148.046875 196.042969 151.363281 "/>
<path fill-rule="nonzero" fill="rgb(0%, 0%, 0%)" fill-opacity="1" d="M 197.417969 164.558594 C 197.417969 167.875 192.441406 167.875 192.441406 164.558594 C 192.441406 161.238281 197.417969 161.238281 197.417969 164.558594 "/>
<path fill-rule="nonzero" fill="rgb(0%, 0%, 0%)" fill-opacity="1" d="M 198.792969 146.890625 C 198.792969 150.207031 193.816406 150.207031 193.816406 146.890625 C 193.816406 143.570312 198.792969 143.570312 198.792969 146.890625 "/>
<path fill-rule="nonzero" fill="rgb(0%, 0%, 0%)" fill-opacity="1" d="M 200.167969 155.707031 C 200.167969 159.023438 195.191406 159.023438 195.191406 155.707031 C 195.191406 152.386719 200.167969 152.386719 200.167969 155.707031 "/>
<path fill-rule="nonzero" fill="rgb(0%, 0%, 0%)" fill-opacity="1" d="M 201.542969 162.4375 C 201.542969 165.757812 196.566406 165.757812 196.566406 162.4375 C 196.566406 159.121094 201.542969 159.121094 201.542969 162.4375 "/>
<path fill-rule="nonzero" fill="rgb(0%, 0%, 0%)" fill-opacity="1" d="M 202.917969 156.984375 C 202.917969 160.300781 197.941406 160.300781 197.941406 156.984375 C 197.941406 153.664062 202.917969 153.664062 202.917969 156.984375 "/>
<path fill-rule="nonzero" fill="rgb(0%, 0%, 0%)" fill-opacity="1" d="M 204.292969 151.394531 C 204.292969 154.710938 199.316406 154.710938 199.316406 151.394531 C 199.316406 148.078125 204.292969 148.078125 204.292969 151.394531 "/>
<path fill-rule="nonzero" fill="rgb(0%, 0%, 0%)" fill-opacity="1" d="M 205.667969 166.457031 C 205.667969 169.777344 200.691406 169.777344 200.691406 166.457031 C 200.691406 163.140625 205.667969 163.140625 205.667969 166.457031 "/>
<path fill-rule="nonzero" fill="rgb(0%, 0%, 0%)" fill-opacity="1" d="M 207.042969 159.742188 C 207.042969 163.0625 202.066406 163.0625 202.066406 159.742188 C 202.066406 156.425781 207.042969 156.425781 207.042969 159.742188 "/>
<path fill-rule="nonzero" fill="rgb(0%, 0%, 0%)" fill-opacity="1" d="M 208.417969 138.132812 C 208.417969 141.449219 203.441406 141.449219 203.441406 138.132812 C 203.441406 134.816406 208.417969 134.816406 208.417969 138.132812 "/>
<path fill-rule="nonzero" fill="rgb(0%, 0%, 0%)" fill-opacity="1" d="M 209.792969 162.433594 C 209.792969 165.75 204.816406 165.75 204.816406 162.433594 C 204.816406 159.117188 209.792969 159.117188 209.792969 162.433594 "/>
<path fill-rule="nonzero" fill="rgb(0%, 0%, 0%)" fill-opacity="1" d="M 211.167969 168.910156 C 211.167969 172.230469 206.191406 172.230469 206.191406 168.910156 C 206.191406 165.59375 211.167969 165.59375 211.167969 168.910156 "/>
<path fill-rule="nonzero" fill="rgb(0%, 0%, 0%)" fill-opacity="1" d="M 212.542969 169.605469 C 212.542969 172.921875 207.566406 172.921875 207.566406 169.605469 C 207.566406 166.289062 212.542969 166.289062 212.542969 169.605469 "/>
<path fill-rule="nonzero" fill="rgb(0%, 0%, 0%)" fill-opacity="1" d="M 213.914062 162.199219 C 213.914062 165.519531 208.9375 165.519531 208.9375 162.199219 C 208.9375 158.882812 213.914062 158.882812 213.914062 162.199219 "/>
<path fill-rule="nonzero" fill="rgb(0%, 0%, 0%)" fill-opacity="1" d="M 215.289062 159.792969 C 215.289062 163.113281 210.3125 163.113281 210.3125 159.792969 C 210.3125 156.476562 215.289062 156.476562 215.289062 159.792969 "/>
<path fill-rule="nonzero" fill="rgb(0%, 0%, 0%)" fill-opacity="1" d="M 216.664062 151.742188 C 216.664062 155.0625 211.6875 155.0625 211.6875 151.742188 C 211.6875 148.425781 216.664062 148.425781 216.664062 151.742188 "/>
<path fill-rule="nonzero" fill="rgb(0%, 0%, 0%)" fill-opacity="1" d="M 218.039062 125.679688 C 218.039062 129 213.0625 129 213.0625 125.679688 C 213.0625 122.363281 218.039062 122.363281 218.039062 125.679688 "/>
<path fill-rule="nonzero" fill="rgb(0%, 0%, 0%)" fill-opacity="1" d="M 219.414062 169.921875 C 219.414062 173.238281 214.4375 173.238281 214.4375 169.921875 C 214.4375 166.601562 219.414062 166.601562 219.414062 169.921875 "/>
<path fill-rule="nonzero" fill="rgb(0%, 0%, 0%)" fill-opacity="1" d="M 220.789062 149.308594 C 220.789062 152.625 215.8125 152.625 215.8125 149.308594 C 215.8125 145.992188 220.789062 145.992188 220.789062 149.308594 "/>
<path fill-rule="nonzero" fill="rgb(0%, 0%, 0%)" fill-opacity="1" d="M 222.164062 151.121094 C 222.164062 154.4375 217.1875 154.4375 217.1875 151.121094 C 217.1875 147.804688 222.164062 147.804688 222.164062 151.121094 "/>
<path fill-rule="nonzero" fill="rgb(0%, 0%, 0%)" fill-opacity="1" d="M 223.539062 154.167969 C 223.539062 157.484375 218.5625 157.484375 218.5625 154.167969 C 218.5625 150.847656 223.539062 150.847656 223.539062 154.167969 "/>
<path fill-rule="nonzero" fill="rgb(0%, 0%, 0%)" fill-opacity="1" d="M 224.914062 160.824219 C 224.914062 164.140625 219.9375 164.140625 219.9375 160.824219 C 219.9375 157.503906 224.914062 157.503906 224.914062 160.824219 "/>
<path fill-rule="nonzero" fill="rgb(0%, 0%, 0%)" fill-opacity="1" d="M 226.289062 152.167969 C 226.289062 155.484375 221.3125 155.484375 221.3125 152.167969 C 221.3125 148.847656 226.289062 148.847656 226.289062 152.167969 "/>
<path fill-rule="nonzero" fill="rgb(0%, 0%, 0%)" fill-opacity="1" d="M 227.664062 156.269531 C 227.664062 159.585938 222.6875 159.585938 222.6875 156.269531 C 222.6875 152.949219 227.664062 152.949219 227.664062 156.269531 "/>
<path fill-rule="nonzero" fill="rgb(0%, 0%, 0%)" fill-opacity="1" d="M 229.039062 127.703125 C 229.039062 131.019531 224.0625 131.019531 224.0625 127.703125 C 224.0625 124.382812 229.039062 124.382812 229.039062 127.703125 "/>
<path fill-rule="nonzero" fill="rgb(0%, 0%, 0%)" fill-opacity="1" d="M 230.414062 158.441406 C 230.414062 161.761719 225.4375 161.761719 225.4375 158.441406 C 225.4375 155.125 230.414062 155.125 230.414062 158.441406 "/>
<path fill-rule="nonzero" fill="rgb(0%, 0%, 100%)" fill-opacity="1" d="M 229.300781 99.675781 L 232.652344 105.480469 L 225.949219 105.480469 Z M 229.300781 99.675781 "/>
<path fill-rule="nonzero" fill="rgb(0%, 0%, 0%)" fill-opacity="1" d="M 233.164062 169.992188 C 233.164062 173.308594 228.1875 173.308594 228.1875 169.992188 C 228.1875 166.671875 233.164062 166.671875 233.164062 169.992188 "/>
<path fill-rule="nonzero" fill="rgb(0%, 0%, 0%)" fill-opacity="1" d="M 234.539062 155.839844 C 234.539062 159.15625 229.5625 159.15625 229.5625 155.839844 C 229.5625 152.519531 234.539062 152.519531 234.539062 155.839844 "/>
<path fill-rule="nonzero" fill="rgb(0%, 0%, 0%)" fill-opacity="1" d="M 235.914062 154.757812 C 235.914062 158.078125 230.9375 158.078125 230.9375 154.757812 C 230.9375 151.441406 235.914062 151.441406 235.914062 154.757812 "/>
<path fill-rule="nonzero" fill="rgb(0%, 0%, 0%)" fill-opacity="1" d="M 237.285156 156.488281 C 237.285156 159.804688 232.308594 159.804688 232.308594 156.488281 C 232.308594 153.171875 237.285156 153.171875 237.285156 156.488281 "/>
<path fill-rule="nonzero" fill="rgb(0%, 0%, 0%)" fill-opacity="1" d="M 238.660156 158.113281 C 238.660156 161.433594 233.683594 161.433594 233.683594 158.113281 C 233.683594 154.796875 238.660156 154.796875 238.660156 158.113281 "/>
<path fill-rule="nonzero" fill="rgb(0%, 0%, 0%)" fill-opacity="1" d="M 240.035156 166.84375 C 240.035156 170.160156 235.058594 170.160156 235.058594 166.84375 C 235.058594 163.523438 240.035156 163.523438 240.035156 166.84375 "/>
<path fill-rule="nonzero" fill="rgb(0%, 0%, 0%)" fill-opacity="1" d="M 241.410156 145.640625 C 241.410156 148.957031 236.433594 148.957031 236.433594 145.640625 C 236.433594 142.320312 241.410156 142.320312 241.410156 145.640625 "/>
<path fill-rule="nonzero" fill="rgb(0%, 0%, 0%)" fill-opacity="1" d="M 242.785156 154.851562 C 242.785156 158.171875 237.808594 158.171875 237.808594 154.851562 C 237.808594 151.535156 242.785156 151.535156 242.785156 154.851562 "/>
<path fill-rule="nonzero" fill="rgb(0%, 0%, 0%)" fill-opacity="1" d="M 244.160156 136.015625 C 244.160156 139.335938 239.183594 139.335938 239.183594 136.015625 C 239.183594 132.699219 244.160156 132.699219 244.160156 136.015625 "/>
<path fill-rule="nonzero" fill="rgb(0%, 0%, 0%)" fill-opacity="1" d="M 245.535156 160.050781 C 245.535156 163.367188 240.558594 163.367188 240.558594 160.050781 C 240.558594 156.730469 245.535156 156.730469 245.535156 160.050781 "/>
<path fill-rule="nonzero" fill="rgb(0%, 0%, 0%)" fill-opacity="1" d="M 246.910156 156.445312 C 246.910156 159.761719 241.933594 159.761719 241.933594 156.445312 C 241.933594 153.125 246.910156 153.125 246.910156 156.445312 "/>
<path fill-rule="nonzero" fill="rgb(0%, 0%, 0%)" fill-opacity="1" d="M 248.285156 156.601562 C 248.285156 159.917969 243.308594 159.917969 243.308594 156.601562 C 243.308594 153.28125 248.285156 153.28125 248.285156 156.601562 "/>
<path fill-rule="nonzero" fill="rgb(0%, 0%, 100%)" fill-opacity="1" d="M 247.171875 96.492188 L 250.523438 102.296875 L 243.820312 102.296875 Z M 247.171875 96.492188 "/>
<path fill-rule="nonzero" fill="rgb(0%, 0%, 0%)" fill-opacity="1" d="M 251.035156 155.296875 C 251.035156 158.617188 246.058594 158.617188 246.058594 155.296875 C 246.058594 151.980469 251.035156 151.980469 251.035156 155.296875 "/>
<path fill-rule="nonzero" fill="rgb(0%, 0%, 0%)" fill-opacity="1" d="M 252.410156 149.277344 C 252.410156 152.59375 247.433594 152.59375 247.433594 149.277344 C 247.433594 145.960938 252.410156 145.960938 252.410156 149.277344 "/>
<path fill-rule="nonzero" fill="rgb(0%, 0%, 0%)" fill-opacity="1" d="M 253.785156 156.449219 C 253.785156 159.765625 248.808594 159.765625 248.808594 156.449219 C 248.808594 153.132812 253.785156 153.132812 253.785156 156.449219 "/>
<path fill-rule="nonzero" fill="rgb(0%, 0%, 0%)" fill-opacity="1" d="M 255.160156 155.207031 C 255.160156 158.523438 250.183594 158.523438 250.183594 155.207031 C 250.183594 151.890625 255.160156 151.890625 255.160156 155.207031 "/>
<path fill-rule="nonzero" fill="rgb(0%, 0%, 0%)" fill-opacity="1" d="M 256.535156 149.101562 C 256.535156 152.421875 251.558594 152.421875 251.558594 149.101562 C 251.558594 145.785156 256.535156 145.785156 256.535156 149.101562 "/>
<path fill-rule="nonzero" fill="rgb(0%, 0%, 0%)" fill-opacity="1" d="M 257.910156 168.769531 C 257.910156 172.085938 252.933594 172.085938 252.933594 168.769531 C 252.933594 165.449219 257.910156 165.449219 257.910156 168.769531 "/>
<path fill-rule="nonzero" fill="rgb(0%, 0%, 0%)" fill-opacity="1" d="M 259.285156 168.109375 C 259.285156 171.425781 254.308594 171.425781 254.308594 168.109375 C 254.308594 164.789062 259.285156 164.789062 259.285156 168.109375 "/>
<path fill-rule="nonzero" fill="rgb(0%, 0%, 0%)" fill-opacity="1" d="M 260.65625 130.34375 C 260.65625 133.660156 255.679688 133.660156 255.679688 130.34375 C 255.679688 127.027344 260.65625 127.027344 260.65625 130.34375 "/>
<path fill-rule="nonzero" fill="rgb(0%, 0%, 0%)" fill-opacity="1" d="M 262.03125 156.441406 C 262.03125 159.761719 257.054688 159.761719 257.054688 156.441406 C 257.054688 153.125 262.03125 153.125 262.03125 156.441406 "/>
<path fill-rule="nonzero" fill="rgb(0%, 0%, 0%)" fill-opacity="1" d="M 263.40625 145.371094 C 263.40625 148.6875 258.429688 148.6875 258.429688 145.371094 C 258.429688 142.054688 263.40625 142.054688 263.40625 145.371094 "/>
<path fill-rule="nonzero" fill="rgb(0%, 0%, 0%)" fill-opacity="1" d="M 264.78125 143.3125 C 264.78125 146.628906 259.804688 146.628906 259.804688 143.3125 C 259.804688 139.996094 264.78125 139.996094 264.78125 143.3125 "/>
<path fill-rule="nonzero" fill="rgb(0%, 0%, 0%)" fill-opacity="1" d="M 266.15625 124.503906 C 266.15625 127.824219 261.179688 127.824219 261.179688 124.503906 C 261.179688 121.1875 266.15625 121.1875 266.15625 124.503906 "/>
<path fill-rule="nonzero" fill="rgb(0%, 0%, 0%)" fill-opacity="1" d="M 267.53125 158.546875 C 267.53125 161.863281 262.554688 161.863281 262.554688 158.546875 C 262.554688 155.226562 267.53125 155.226562 267.53125 158.546875 "/>
<path fill-rule="nonzero" fill="rgb(0%, 0%, 0%)" fill-opacity="1" d="M 268.90625 157.546875 C 268.90625 160.867188 263.929688 160.867188 263.929688 157.546875 C 263.929688 154.230469 268.90625 154.230469 268.90625 157.546875 "/>
<path fill-rule="nonzero" fill="rgb(0%, 0%, 0%)" fill-opacity="1" d="M 270.28125 149.554688 C 270.28125 152.875 265.304688 152.875 265.304688 149.554688 C 265.304688 146.238281 270.28125 146.238281 270.28125 149.554688 "/>
<path fill-rule="nonzero" fill="rgb(0%, 0%, 0%)" fill-opacity="1" d="M 271.65625 120.832031 C 271.65625 124.152344 266.679688 124.152344 266.679688 120.832031 C 266.679688 117.515625 271.65625 117.515625 271.65625 120.832031 "/>
<path fill-rule="nonzero" fill="rgb(0%, 0%, 0%)" fill-opacity="1" d="M 273.03125 164.828125 C 273.03125 168.144531 268.054688 168.144531 268.054688 164.828125 C 268.054688 161.507812 273.03125 161.507812 273.03125 164.828125 "/>
<path fill-rule="nonzero" fill="rgb(0%, 0%, 0%)" fill-opacity="1" d="M 274.40625 163.441406 C 274.40625 166.757812 269.429688 166.757812 269.429688 163.441406 C 269.429688 160.125 274.40625 160.125 274.40625 163.441406 "/>
<path fill-rule="nonzero" fill="rgb(0%, 0%, 0%)" fill-opacity="1" d="M 275.78125 162.957031 C 275.78125 166.273438 270.804688 166.273438 270.804688 162.957031 C 270.804688 159.640625 275.78125 159.640625 275.78125 162.957031 "/>
<path fill-rule="nonzero" fill="rgb(0%, 0%, 0%)" fill-opacity="1" d="M 277.15625 141.535156 C 277.15625 144.855469 272.179688 144.855469 272.179688 141.535156 C 272.179688 138.21875 277.15625 138.21875 277.15625 141.535156 "/>
<path fill-rule="nonzero" fill="rgb(0%, 0%, 0%)" fill-opacity="1" d="M 278.53125 131.945312 C 278.53125 135.261719 273.554688 135.261719 273.554688 131.945312 C 273.554688 128.625 278.53125 128.625 278.53125 131.945312 "/>
<path fill-rule="nonzero" fill="rgb(0%, 0%, 0%)" fill-opacity="1" d="M 279.90625 106.867188 C 279.90625 110.1875 274.929688 110.1875 274.929688 106.867188 C 274.929688 103.550781 279.90625 103.550781 279.90625 106.867188 "/>
<path fill-rule="nonzero" fill="rgb(0%, 0%, 0%)" fill-opacity="1" d="M 281.28125 157.691406 C 281.28125 161.007812 276.304688 161.007812 276.304688 157.691406 C 276.304688 154.371094 281.28125 154.371094 281.28125 157.691406 "/>
<path fill-rule="nonzero" fill="rgb(0%, 0%, 0%)" fill-opacity="1" d="M 282.65625 140.101562 C 282.65625 143.417969 277.679688 143.417969 277.679688 140.101562 C 277.679688 136.785156 282.65625 136.785156 282.65625 140.101562 "/>
<path fill-rule="nonzero" fill="rgb(0%, 0%, 0%)" fill-opacity="1" d="M 284.027344 110.597656 C 284.027344 113.914062 279.050781 113.914062 279.050781 110.597656 C 279.050781 107.277344 284.027344 107.277344 284.027344 110.597656 "/>
<path fill-rule="nonzero" fill="rgb(0%, 0%, 0%)" fill-opacity="1" d="M 285.402344 136.925781 C 285.402344 140.246094 280.425781 140.246094 280.425781 136.925781 C 280.425781 133.609375 285.402344 133.609375 285.402344 136.925781 "/>
<path fill-rule="nonzero" fill="rgb(0%, 0%, 0%)" fill-opacity="1" d="M 286.777344 150.140625 C 286.777344 153.457031 281.800781 153.457031 281.800781 150.140625 C 281.800781 146.820312 286.777344 146.820312 286.777344 150.140625 "/>
<path fill-rule="nonzero" fill="rgb(0%, 0%, 0%)" fill-opacity="1" d="M 288.152344 143.386719 C 288.152344 146.703125 283.175781 146.703125 283.175781 143.386719 C 283.175781 140.070312 288.152344 140.070312 288.152344 143.386719 "/>
<path fill-rule="nonzero" fill="rgb(0%, 0%, 0%)" fill-opacity="1" d="M 289.527344 143.984375 C 289.527344 147.300781 284.550781 147.300781 284.550781 143.984375 C 284.550781 140.667969 289.527344 140.667969 289.527344 143.984375 "/>
<path fill-rule="nonzero" fill="rgb(0%, 0%, 0%)" fill-opacity="1" d="M 290.902344 166.367188 C 290.902344 169.683594 285.925781 169.683594 285.925781 166.367188 C 285.925781 163.046875 290.902344 163.046875 290.902344 166.367188 "/>
<path fill-rule="nonzero" fill="rgb(0%, 0%, 0%)" fill-opacity="1" d="M 292.277344 156.09375 C 292.277344 159.410156 287.300781 159.410156 287.300781 156.09375 C 287.300781 152.773438 292.277344 152.773438 292.277344 156.09375 "/>
<path fill-rule="nonzero" fill="rgb(0%, 0%, 0%)" fill-opacity="1" d="M 293.652344 115.988281 C 293.652344 119.304688 288.675781 119.304688 288.675781 115.988281 C 288.675781 112.667969 293.652344 112.667969 293.652344 115.988281 "/>
<path fill-rule="nonzero" fill="rgb(0%, 0%, 0%)" fill-opacity="1" d="M 295.027344 145.859375 C 295.027344 149.175781 290.050781 149.175781 290.050781 145.859375 C 290.050781 142.539062 295.027344 142.539062 295.027344 145.859375 "/>
<g clip-path="url(#clip-15)">
<path fill="none" stroke-width="1.066978" stroke-linecap="butt" stroke-linejoin="round" stroke="rgb(0%, 0%, 0%)" stroke-opacity="1" stroke-dasharray="4.267913 4.267913" stroke-miterlimit="10" d="M 34.152344 105.410156 L 304.84375 105.410156 "/>
</g>
<g fill="rgb(30.196078%, 30.196078%, 30.196078%)" fill-opacity="1">
<use xlink:href="#glyph-0-1" x="24.21875" y="179.987305"/>
</g>
<g fill="rgb(30.196078%, 30.196078%, 30.196078%)" fill-opacity="1">
<use xlink:href="#glyph-0-2" x="19.21875" y="116.00293"/>
<use xlink:href="#glyph-0-1" x="24.21875" y="116.00293"/>
</g>
<g fill="rgb(30.196078%, 30.196078%, 30.196078%)" fill-opacity="1">
<use xlink:href="#glyph-0-3" x="19.21875" y="52.018555"/>
<use xlink:href="#glyph-0-1" x="24.21875" y="52.018555"/>
</g>
<path fill="none" stroke-width="1.066978" stroke-linecap="butt" stroke-linejoin="round" stroke="rgb(20%, 20%, 20%)" stroke-opacity="1" stroke-miterlimit="10" d="M 31.410156 176.710938 L 34.152344 176.710938 "/>
<path fill="none" stroke-width="1.066978" stroke-linecap="butt" stroke-linejoin="round" stroke="rgb(20%, 20%, 20%)" stroke-opacity="1" stroke-miterlimit="10" d="M 31.410156 112.726562 L 34.152344 112.726562 "/>
<path fill="none" stroke-width="1.066978" stroke-linecap="butt" stroke-linejoin="round" stroke="rgb(20%, 20%, 20%)" stroke-opacity="1" stroke-miterlimit="10" d="M 31.410156 48.742188 L 34.152344 48.742188 "/>
<path fill="none" stroke-width="1.066978" stroke-linecap="butt" stroke-linejoin="round" stroke="rgb(20%, 20%, 20%)" stroke-opacity="1" stroke-miterlimit="10" d="M 45.082031 185.589844 L 45.082031 182.847656 "/>
<path fill="none" stroke-width="1.066978" stroke-linecap="butt" stroke-linejoin="round" stroke="rgb(20%, 20%, 20%)" stroke-opacity="1" stroke-miterlimit="10" d="M 113.820312 185.589844 L 113.820312 182.847656 "/>
<path fill="none" stroke-width="1.066978" stroke-linecap="butt" stroke-linejoin="round" stroke="rgb(20%, 20%, 20%)" stroke-opacity="1" stroke-miterlimit="10" d="M 182.558594 185.589844 L 182.558594 182.847656 "/>
<path fill="none" stroke-width="1.066978" stroke-linecap="butt" stroke-linejoin="round" stroke="rgb(20%, 20%, 20%)" stroke-opacity="1" stroke-miterlimit="10" d="M 251.296875 185.589844 L 251.296875 182.847656 "/>
<g fill="rgb(30.196078%, 30.196078%, 30.196078%)" fill-opacity="1">
<use xlink:href="#glyph-0-1" x="42.582031" y="194.557617"/>
</g>
<g fill="rgb(30.196078%, 30.196078%, 30.196078%)" fill-opacity="1">
<use xlink:href="#glyph-0-4" x="108.820312" y="194.557617"/>
<use xlink:href="#glyph-0-1" x="113.820312" y="194.557617"/>
</g>
<g fill="rgb(30.196078%, 30.196078%, 30.196078%)" fill-opacity="1">
<use xlink:href="#glyph-0-2" x="175.058594" y="194.557617"/>
<use xlink:href="#glyph-0-1" x="180.058594" y="194.557617"/>
<use xlink:href="#glyph-0-1" x="185.058594" y="194.557617"/>
</g>
<g fill="rgb(30.196078%, 30.196078%, 30.196078%)" fill-opacity="1">
<use xlink:href="#glyph-0-2" x="243.796875" y="194.557617"/>
<use xlink:href="#glyph-0-4" x="248.796875" y="194.557617"/>
<use xlink:href="#glyph-0-1" x="253.796875" y="194.557617"/>
</g>
<g fill="rgb(0%, 0%, 0%)" fill-opacity="1">
<use xlink:href="#glyph-1-1" x="160.496094" y="206.990234"/>
<use xlink:href="#glyph-1-2" x="166.496094" y="206.990234"/>
<use xlink:href="#glyph-1-3" x="172.496094" y="206.990234"/>
</g>
<g fill="rgb(0%, 0%, 0%)" fill-opacity="1">
<use xlink:href="#glyph-2-1" x="12.951172" y="105.164062"/>
<use xlink:href="#glyph-2-2" x="12.951172" y="97.164062"/>
<use xlink:href="#glyph-2-3" x="12.951172" y="89.164062"/>
</g>
<path fill-rule="nonzero" fill="rgb(100%, 100%, 100%)" fill-opacity="1" d="M 315.800781 125.164062 L 377.519531 125.164062 L 377.519531 63.164062 L 315.800781 63.164062 Z M 315.800781 125.164062 "/>
<g fill="rgb(0%, 0%, 0%)" fill-opacity="1">
<use xlink:href="#glyph-1-4" x="321.28125" y="77.615234"/>
<use xlink:href="#glyph-1-5" x="327.28125" y="77.615234"/>
<use xlink:href="#glyph-1-6" x="333.28125" y="77.615234"/>
</g>
<path fill-rule="nonzero" fill="rgb(92.156863%, 92.156863%, 92.156863%)" fill-opacity="1" d="M 321.28125 102.402344 L 338.5625 102.402344 L 338.5625 85.121094 L 321.28125 85.121094 Z M 321.28125 102.402344 "/>
<path fill-rule="nonzero" fill="rgb(0%, 0%, 0%)" fill-opacity="1" d="M 332.410156 93.765625 C 332.410156 97.082031 327.433594 97.082031 327.433594 93.765625 C 327.433594 90.445312 332.410156 90.445312 332.410156 93.765625 "/>
<path fill-rule="nonzero" fill="rgb(92.156863%, 92.156863%, 92.156863%)" fill-opacity="1" d="M 321.28125 119.683594 L 338.5625 119.683594 L 338.5625 102.402344 L 321.28125 102.402344 Z M 321.28125 119.683594 "/>
<path fill-rule="nonzero" fill="rgb(0%, 0%, 100%)" fill-opacity="1" d="M 329.921875 107.175781 L 333.273438 112.980469 L 326.570312 112.980469 Z M 329.921875 107.175781 "/>
<g fill="rgb(0%, 0%, 0%)" fill-opacity="1">
<use xlink:href="#glyph-0-5" x="344.042969" y="97.041992"/>
<use xlink:href="#glyph-0-6" x="349.042969" y="97.041992"/>
<use xlink:href="#glyph-0-7" x="355.042969" y="97.041992"/>
<use xlink:href="#glyph-0-8" x="360.042969" y="97.041992"/>
<use xlink:href="#glyph-0-9" x="366.042969" y="97.041992"/>
</g>
<g fill="rgb(0%, 0%, 0%)" fill-opacity="1">
<use xlink:href="#glyph-0-10" x="344.042969" y="114.319336"/>
<use xlink:href="#glyph-0-11" x="349.042969" y="114.319336"/>
<use xlink:href="#glyph-0-12" x="355.042969" y="114.319336"/>
<use xlink:href="#glyph-0-9" x="361.042969" y="114.319336"/>
</g>
</svg>
