<?xml version="1.0" encoding="UTF-8"?>
<svg xmlns="http://www.w3.org/2000/svg" xmlns:xlink="http://www.w3.org/1999/xlink" width="253" height="301" viewBox="0 0 253 301">
<rect x="-25.3" y="-30.1" width="303.6" height="361.2" fill="rgb(100%, 100%, 100%)" fill-opacity="1"/>
<rect x="-25.3" y="-30.1" width="303.6" height="361.2" fill="rgb(100%, 100%, 100%)" fill-opacity="1"/>
<path fill-rule="nonzero" fill="rgb(67.843137%, 84.705882%, 90.196078%)" fill-opacity="1" stroke-width="0.213396" stroke-linecap="butt" stroke-linejoin="miter" stroke="rgb(100%, 100%, 100%)" stroke-opacity="1" stroke-miterlimit="10" d="M 11.5 287.316406 L 26.832031 287.316406 L 26.832031 262.441406 L 11.5 262.441406 Z M 11.5 287.316406 "/>
<path fill-rule="nonzero" fill="rgb(67.843137%, 84.705882%, 90.196078%)" fill-opacity="1" stroke-width="0.213396" stroke-linecap="butt" stroke-linejoin="miter" stroke="rgb(100%, 100%, 100%)" stroke-opacity="1" stroke-miterlimit="10" d="M 11.5 237.566406 L 26.832031 237.566406 L 26.832031 212.691406 L 11.5 212.691406 Z M 11.5 237.566406 "/>
<path fill-rule="nonzero" fill="rgb(62.745098%, 74.901961%, 86.27451%)" fill-opacity="1" stroke-width="0.213396" stroke-linecap="butt" stroke-linejoin="miter" stroke="rgb(100%, 100%, 100%)" stroke-opacity="1" stroke-miterlimit="10" d="M 26.832031 287.316406 L 42.164062 287.316406 L 42.164062 262.441406 L 26.832031 262.441406 Z M 26.832031 287.316406 "/>
<path fill-rule="nonzero" fill="rgb(57.647059%, 65.490196%, 82.352941%)" fill-opacity="1" stroke-width="0.213396" stroke-linecap="butt" stroke-linejoin="miter" stroke="rgb(100%, 100%, 100%)" stroke-opacity="1" stroke-miterlimit="10" d="M 42.167969 287.316406 L 57.5 287.316406 L 57.5 262.441406 L 42.167969 262.441406 Z M 42.167969 287.316406 "/>
<path fill-rule="nonzero" fill="rgb(57.647059%, 65.490196%, 82.352941%)" fill-opacity="1" stroke-width="0.213396" stroke-linecap="butt" stroke-linejoin="miter" stroke="rgb(100%, 100%, 100%)" stroke-opacity="1" stroke-miterlimit="10" d="M 57.5 262.441406 L 72.832031 262.441406 L 72.832031 237.566406 L 57.5 237.566406 Z M 57.5 262.441406 "/>
<path fill-rule="nonzero" fill="rgb(46.27451%, 47.45098%, 74.509804%)" fill-opacity="1" stroke-width="0.213396" stroke-linecap="butt" stroke-linejoin="miter" stroke="rgb(100%, 100%, 100%)" stroke-opacity="1" stroke-miterlimit="10" d="M 57.5 237.566406 L 72.832031 237.566406 L 72.832031 212.691406 L 57.5 212.691406 Z M 57.5 237.566406 "/>
<path fill-rule="nonzero" fill="rgb(67.843137%, 84.705882%, 90.196078%)" fill-opacity="1" stroke-width="0.213396" stroke-linecap="butt" stroke-linejoin="miter" stroke="rgb(100%, 100%, 100%)" stroke-opacity="1" stroke-miterlimit="10" d="M 72.832031 262.441406 L 88.164062 262.441406 L 88.164062 237.566406 L 72.832031 237.566406 Z M 72.832031 262.441406 "/>
<path fill-rule="nonzero" fill="rgb(46.27451%, 47.45098%, 74.509804%)" fill-opacity="1" stroke-width="0.213396" stroke-linecap="butt" stroke-linejoin="miter" stroke="rgb(100%, 100%, 100%)" stroke-opacity="1" stroke-miterlimit="10" d="M 72.832031 237.566406 L 88.164062 237.566406 L 88.164062 212.691406 L 72.832031 212.691406 Z M 72.832031 237.566406 "/>
<path fill-rule="nonzero" fill="rgb(33.72549%, 29.411765%, 66.666667%)" fill-opacity="1" stroke-width="0.213396" stroke-linecap="butt" stroke-linejoin="miter" stroke="rgb(100%, 100%, 100%)" stroke-opacity="1" stroke-miterlimit="10" d="M 72.832031 212.691406 L 88.164062 212.691406 L 88.164062 187.816406 L 72.832031 187.816406 Z M 72.832031 212.691406 "/>
<path fill-rule="nonzero" fill="rgb(26.27451%, 20.784314%, 62.745098%)" fill-opacity="1" stroke-width="0.213396" stroke-linecap="butt" stroke-linejoin="miter" stroke="rgb(100%, 100%, 100%)" stroke-opacity="1" stroke-miterlimit="10" d="M 88.167969 237.566406 L 103.5 237.566406 L 103.5 212.691406 L 88.167969 212.691406 Z M 88.167969 237.566406 "/>
<path fill-rule="nonzero" fill="rgb(17.254902%, 11.764706%, 58.431373%)" fill-opacity="1" stroke-width="0.213396" stroke-linecap="butt" stroke-linejoin="miter" stroke="rgb(100%, 100%, 100%)" stroke-opacity="1" stroke-miterlimit="10" d="M 88.167969 212.691406 L 103.5 212.691406 L 103.5 187.816406 L 88.167969 187.816406 Z M 88.167969 212.691406 "/>
<path fill-rule="nonzero" fill="rgb(67.843137%, 84.705882%, 90.196078%)" fill-opacity="1" stroke-width="0.213396" stroke-linecap="butt" stroke-linejoin="miter" stroke="rgb(100%, 100%, 100%)" stroke-opacity="1" stroke-miterlimit="10" d="M 88.167969 187.8125 L 103.5 187.8125 L 103.5 162.9375 L 88.167969 162.9375 Z M 88.167969 187.8125 "/>
<path fill-rule="nonzero" fill="rgb(57.647059%, 65.490196%, 82.352941%)" fill-opacity="1" stroke-width="0.213396" stroke-linecap="butt" stroke-linejoin="miter" stroke="rgb(100%, 100%, 100%)" stroke-opacity="1" stroke-miterlimit="10" d="M 103.5 237.566406 L 118.832031 237.566406 L 118.832031 212.691406 L 103.5 212.691406 Z M 103.5 237.566406 "/>
<path fill-rule="nonzero" fill="rgb(0%, 0%, 54.509804%)" fill-opacity="1" stroke-width="0.213396" stroke-linecap="butt" stroke-linejoin="miter" stroke="rgb(100%, 100%, 100%)" stroke-opacity="1" stroke-miterlimit="10" d="M 103.5 212.691406 L 118.832031 212.691406 L 118.832031 187.816406 L 103.5 187.816406 Z M 103.5 212.691406 "/>
<path fill-rule="nonzero" fill="rgb(46.27451%, 47.45098%, 74.509804%)" fill-opacity="1" stroke-width="0.213396" stroke-linecap="butt" stroke-linejoin="miter" stroke="rgb(100%, 100%, 100%)" stroke-opacity="1" stroke-miterlimit="10" d="M 103.5 187.8125 L 118.832031 187.8125 L 118.832031 162.9375 L 103.5 162.9375 Z M 103.5 187.8125 "/>
<path fill-rule="nonzero" fill="rgb(67.843137%, 84.705882%, 90.196078%)" fill-opacity="1" stroke-width="0.213396" stroke-linecap="butt" stroke-linejoin="miter" stroke="rgb(100%, 100%, 100%)" stroke-opacity="1" stroke-miterlimit="10" d="M 118.832031 237.566406 L 134.164062 237.566406 L 134.164062 212.691406 L 118.832031 212.691406 Z M 118.832031 237.566406 "/>
<path fill-rule="nonzero" fill="rgb(0%, 0%, 54.509804%)" fill-opacity="1" stroke-width="0.213396" stroke-linecap="butt" stroke-linejoin="miter" stroke="rgb(100%, 100%, 100%)" stroke-opacity="1" stroke-miterlimit="10" d="M 118.832031 212.691406 L 134.164062 212.691406 L 134.164062 187.816406 L 118.832031 187.816406 Z M 118.832031 212.691406 "/>
<path fill-rule="nonzero" fill="rgb(40.392157%, 38.431373%, 70.588235%)" fill-opacity="1" stroke-width="0.213396" stroke-linecap="butt" stroke-linejoin="miter" stroke="rgb(100%, 100%, 100%)" stroke-opacity="1" stroke-miterlimit="10" d="M 118.832031 187.8125 L 134.164062 187.8125 L 134.164062 162.9375 L 118.832031 162.9375 Z M 118.832031 187.8125 "/>
<path fill-rule="nonzero" fill="rgb(62.745098%, 74.901961%, 86.27451%)" fill-opacity="1" stroke-width="0.213396" stroke-linecap="butt" stroke-linejoin="miter" stroke="rgb(100%, 100%, 100%)" stroke-opacity="1" stroke-miterlimit="10" d="M 118.832031 162.9375 L 134.164062 162.9375 L 134.164062 138.0625 L 118.832031 138.0625 Z M 118.832031 162.9375 "/>
<path fill-rule="nonzero" fill="rgb(62.745098%, 74.901961%, 86.27451%)" fill-opacity="1" stroke-width="0.213396" stroke-linecap="butt" stroke-linejoin="miter" stroke="rgb(100%, 100%, 100%)" stroke-opacity="1" stroke-miterlimit="10" d="M 134.167969 212.691406 L 149.5 212.691406 L 149.5 187.816406 L 134.167969 187.816406 Z M 134.167969 212.691406 "/>
<path fill-rule="nonzero" fill="rgb(40.392157%, 38.431373%, 70.588235%)" fill-opacity="1" stroke-width="0.213396" stroke-linecap="butt" stroke-linejoin="miter" stroke="rgb(100%, 100%, 100%)" stroke-opacity="1" stroke-miterlimit="10" d="M 134.167969 187.8125 L 149.5 187.8125 L 149.5 162.9375 L 134.167969 162.9375 Z M 134.167969 187.8125 "/>
<path fill-rule="nonzero" fill="rgb(57.647059%, 65.490196%, 82.352941%)" fill-opacity="1" stroke-width="0.213396" stroke-linecap="butt" stroke-linejoin="miter" stroke="rgb(100%, 100%, 100%)" stroke-opacity="1" stroke-miterlimit="10" d="M 134.167969 162.9375 L 149.5 162.9375 L 149.5 138.0625 L 134.167969 138.0625 Z M 134.167969 162.9375 "/>
<path fill-rule="nonzero" fill="rgb(67.843137%, 84.705882%, 90.196078%)" fill-opacity="1" stroke-width="0.213396" stroke-linecap="butt" stroke-linejoin="miter" stroke="rgb(100%, 100%, 100%)" stroke-opacity="1" stroke-miterlimit="10" d="M 149.5 187.8125 L 164.832031 187.8125 L 164.832031 162.9375 L 149.5 162.9375 Z M 149.5 187.8125 "/>
<path fill-rule="nonzero" fill="rgb(57.647059%, 65.490196%, 82.352941%)" fill-opacity="1" stroke-width="0.213396" stroke-linecap="butt" stroke-linejoin="miter" stroke="rgb(100%, 100%, 100%)" stroke-opacity="1" stroke-miterlimit="10" d="M 149.5 162.9375 L 164.832031 162.9375 L 164.832031 138.0625 L 149.5 138.0625 Z M 149.5 162.9375 "/>
<path fill-rule="nonzero" fill="rgb(62.745098%, 74.901961%, 86.27451%)" fill-opacity="1" stroke-width="0.213396" stroke-linecap="butt" stroke-linejoin="miter" stroke="rgb(100%, 100%, 100%)" stroke-opacity="1" stroke-miterlimit="10" d="M 164.832031 162.9375 L 180.164062 162.9375 L 180.164062 138.0625 L 164.832031 138.0625 Z M 164.832031 162.9375 "/>
</svg>
