<svg viewBox="8.737574552683895 128.04 205.62425447316102 154.23000000000002" xmlns:xlink="http://www.w3.org/1999/xlink" xmlns="http://www.w3.org/2000/svg" style="max-height: 500px" width="205.62425447316102" height="154.23000000000002">
<rect fill-opacity="1" fill="rgb(100%, 100%, 100%)" height="349.2" width="351.6" y="-29.1" x="-29.3"/>
<rect fill-opacity="1" fill="rgb(100%, 100%, 100%)" height="349.2" width="351.6" y="-29.1" x="-29.3"/>
<path d="M 13.316406 277.773438 L 31.074219 277.773438 L 31.074219 253.722656 L 13.316406 253.722656 Z M 13.316406 277.773438" stroke-miterlimit="10" stroke-opacity="1" stroke="rgb(100%, 100%, 100%)" stroke-linejoin="miter" stroke-linecap="butt" stroke-width="0.213396" fill-opacity="1" fill="rgb(67.843137%, 84.705882%, 90.196078%)" fill-rule="nonzero"/>
<path d="M 13.316406 229.671875 L 31.074219 229.671875 L 31.074219 205.621094 L 13.316406 205.621094 Z M 13.316406 229.671875" stroke-miterlimit="10" stroke-opacity="1" stroke="rgb(100%, 100%, 100%)" stroke-linejoin="miter" stroke-linecap="butt" stroke-width="0.213396" fill-opacity="1" fill="rgb(67.843137%, 84.705882%, 90.196078%)" fill-rule="nonzero"/>
<path d="M 31.074219 277.773438 L 48.832031 277.773438 L 48.832031 253.722656 L 31.074219 253.722656 Z M 31.074219 277.773438" stroke-miterlimit="10" stroke-opacity="1" stroke="rgb(100%, 100%, 100%)" stroke-linejoin="miter" stroke-linecap="butt" stroke-width="0.213396" fill-opacity="1" fill="rgb(62.745098%, 74.901961%, 86.27451%)" fill-rule="nonzero"/>
<path d="M 48.832031 277.773438 L 66.589844 277.773438 L 66.589844 253.722656 L 48.832031 253.722656 Z M 48.832031 277.773438" stroke-miterlimit="10" stroke-opacity="1" stroke="rgb(100%, 100%, 100%)" stroke-linejoin="miter" stroke-linecap="butt" stroke-width="0.213396" fill-opacity="1" fill="rgb(57.647059%, 65.490196%, 82.352941%)" fill-rule="nonzero"/>
<path d="M 66.589844 253.722656 L 84.347656 253.722656 L 84.347656 229.671875 L 66.589844 229.671875 Z M 66.589844 253.722656" stroke-miterlimit="10" stroke-opacity="1" stroke="rgb(100%, 100%, 100%)" stroke-linejoin="miter" stroke-linecap="butt" stroke-width="0.213396" fill-opacity="1" fill="rgb(57.647059%, 65.490196%, 82.352941%)" fill-rule="nonzero"/>
<path d="M 66.589844 229.671875 L 84.347656 229.671875 L 84.347656 205.621094 L 66.589844 205.621094 Z M 66.589844 229.671875" stroke-miterlimit="10" stroke-opacity="1" stroke="rgb(100%, 100%, 100%)" stroke-linejoin="miter" stroke-linecap="butt" stroke-width="0.213396" fill-opacity="1" fill="rgb(46.27451%, 47.45098%, 74.509804%)" fill-rule="nonzero"/>
<path d="M 84.347656 253.722656 L 102.105469 253.722656 L 102.105469 229.671875 L 84.347656 229.671875 Z M 84.347656 253.722656" stroke-miterlimit="10" stroke-opacity="1" stroke="rgb(100%, 100%, 100%)" stroke-linejoin="miter" stroke-linecap="butt" stroke-width="0.213396" fill-opacity="1" fill="rgb(67.843137%, 84.705882%, 90.196078%)" fill-rule="nonzero"/>
<path d="M 84.347656 229.671875 L 102.105469 229.671875 L 102.105469 205.621094 L 84.347656 205.621094 Z M 84.347656 229.671875" stroke-miterlimit="10" stroke-opacity="1" stroke="rgb(100%, 100%, 100%)" stroke-linejoin="miter" stroke-linecap="butt" stroke-width="0.213396" fill-opacity="1" fill="rgb(46.27451%, 47.45098%, 74.509804%)" fill-rule="nonzero"/>
<path d="M 84.347656 205.625 L 102.105469 205.625 L 102.105469 181.574219 L 84.347656 181.574219 Z M 84.347656 205.625" stroke-miterlimit="10" stroke-opacity="1" stroke="rgb(100%, 100%, 100%)" stroke-linejoin="miter" stroke-linecap="butt" stroke-width="0.213396" fill-opacity="1" fill="rgb(33.72549%, 29.411765%, 66.666667%)" fill-rule="nonzero"/>
<path d="M 102.105469 229.671875 L 119.863281 229.671875 L 119.863281 205.621094 L 102.105469 205.621094 Z M 102.105469 229.671875" stroke-miterlimit="10" stroke-opacity="1" stroke="rgb(100%, 100%, 100%)" stroke-linejoin="miter" stroke-linecap="butt" stroke-width="0.213396" fill-opacity="1" fill="rgb(26.27451%, 20.784314%, 62.745098%)" fill-rule="nonzero"/>
<path d="M 102.105469 205.625 L 119.863281 205.625 L 119.863281 181.574219 L 102.105469 181.574219 Z M 102.105469 205.625" stroke-miterlimit="10" stroke-opacity="1" stroke="rgb(100%, 100%, 100%)" stroke-linejoin="miter" stroke-linecap="butt" stroke-width="0.213396" fill-opacity="1" fill="rgb(17.254902%, 11.764706%, 58.431373%)" fill-rule="nonzero"/>
<path d="M 102.105469 181.574219 L 119.863281 181.574219 L 119.863281 157.523438 L 102.105469 157.523438 Z M 102.105469 181.574219" stroke-miterlimit="10" stroke-opacity="1" stroke="rgb(100%, 100%, 100%)" stroke-linejoin="miter" stroke-linecap="butt" stroke-width="0.213396" fill-opacity="1" fill="rgb(67.843137%, 84.705882%, 90.196078%)" fill-rule="nonzero"/>
<path d="M 119.863281 229.671875 L 137.621094 229.671875 L 137.621094 205.621094 L 119.863281 205.621094 Z M 119.863281 229.671875" stroke-miterlimit="10" stroke-opacity="1" stroke="rgb(100%, 100%, 100%)" stroke-linejoin="miter" stroke-linecap="butt" stroke-width="0.213396" fill-opacity="1" fill="rgb(57.647059%, 65.490196%, 82.352941%)" fill-rule="nonzero"/>
<path d="M 119.863281 205.625 L 137.621094 205.625 L 137.621094 181.574219 L 119.863281 181.574219 Z M 119.863281 205.625" stroke-miterlimit="10" stroke-opacity="1" stroke="rgb(100%, 100%, 100%)" stroke-linejoin="miter" stroke-linecap="butt" stroke-width="0.213396" fill-opacity="1" fill="rgb(0%, 0%, 54.509804%)" fill-rule="nonzero"/>
<path d="M 119.863281 181.574219 L 137.621094 181.574219 L 137.621094 157.523438 L 119.863281 157.523438 Z M 119.863281 181.574219" stroke-miterlimit="10" stroke-opacity="1" stroke="rgb(100%, 100%, 100%)" stroke-linejoin="miter" stroke-linecap="butt" stroke-width="0.213396" fill-opacity="1" fill="rgb(46.27451%, 47.45098%, 74.509804%)" fill-rule="nonzero"/>
<path d="M 137.621094 229.671875 L 155.378906 229.671875 L 155.378906 205.621094 L 137.621094 205.621094 Z M 137.621094 229.671875" stroke-miterlimit="10" stroke-opacity="1" stroke="rgb(100%, 100%, 100%)" stroke-linejoin="miter" stroke-linecap="butt" stroke-width="0.213396" fill-opacity="1" fill="rgb(67.843137%, 84.705882%, 90.196078%)" fill-rule="nonzero"/>
<path d="M 137.621094 205.625 L 155.378906 205.625 L 155.378906 181.574219 L 137.621094 181.574219 Z M 137.621094 205.625" stroke-miterlimit="10" stroke-opacity="1" stroke="rgb(100%, 100%, 100%)" stroke-linejoin="miter" stroke-linecap="butt" stroke-width="0.213396" fill-opacity="1" fill="rgb(0%, 0%, 54.509804%)" fill-rule="nonzero"/>
<path d="M 137.621094 181.574219 L 155.378906 181.574219 L 155.378906 157.523438 L 137.621094 157.523438 Z M 137.621094 181.574219" stroke-miterlimit="10" stroke-opacity="1" stroke="rgb(100%, 100%, 100%)" stroke-linejoin="miter" stroke-linecap="butt" stroke-width="0.213396" fill-opacity="1" fill="rgb(40.392157%, 38.431373%, 70.588235%)" fill-rule="nonzero"/>
<path d="M 137.621094 157.523438 L 155.378906 157.523438 L 155.378906 133.472656 L 137.621094 133.472656 Z M 137.621094 157.523438" stroke-miterlimit="10" stroke-opacity="1" stroke="rgb(100%, 100%, 100%)" stroke-linejoin="miter" stroke-linecap="butt" stroke-width="0.213396" fill-opacity="1" fill="rgb(62.745098%, 74.901961%, 86.27451%)" fill-rule="nonzero"/>
<path d="M 155.378906 205.625 L 173.136719 205.625 L 173.136719 181.574219 L 155.378906 181.574219 Z M 155.378906 205.625" stroke-miterlimit="10" stroke-opacity="1" stroke="rgb(100%, 100%, 100%)" stroke-linejoin="miter" stroke-linecap="butt" stroke-width="0.213396" fill-opacity="1" fill="rgb(62.745098%, 74.901961%, 86.27451%)" fill-rule="nonzero"/>
<path d="M 155.378906 181.574219 L 173.136719 181.574219 L 173.136719 157.523438 L 155.378906 157.523438 Z M 155.378906 181.574219" stroke-miterlimit="10" stroke-opacity="1" stroke="rgb(100%, 100%, 100%)" stroke-linejoin="miter" stroke-linecap="butt" stroke-width="0.213396" fill-opacity="1" fill="rgb(40.392157%, 38.431373%, 70.588235%)" fill-rule="nonzero"/>
<path d="M 155.378906 157.523438 L 173.136719 157.523438 L 173.136719 133.472656 L 155.378906 133.472656 Z M 155.378906 157.523438" stroke-miterlimit="10" stroke-opacity="1" stroke="rgb(100%, 100%, 100%)" stroke-linejoin="miter" stroke-linecap="butt" stroke-width="0.213396" fill-opacity="1" fill="rgb(57.647059%, 65.490196%, 82.352941%)" fill-rule="nonzero"/>
<path d="M 173.136719 181.574219 L 190.894531 181.574219 L 190.894531 157.523438 L 173.136719 157.523438 Z M 173.136719 181.574219" stroke-miterlimit="10" stroke-opacity="1" stroke="rgb(100%, 100%, 100%)" stroke-linejoin="miter" stroke-linecap="butt" stroke-width="0.213396" fill-opacity="1" fill="rgb(67.843137%, 84.705882%, 90.196078%)" fill-rule="nonzero"/>
<path d="M 173.136719 157.523438 L 190.894531 157.523438 L 190.894531 133.472656 L 173.136719 133.472656 Z M 173.136719 157.523438" stroke-miterlimit="10" stroke-opacity="1" stroke="rgb(100%, 100%, 100%)" stroke-linejoin="miter" stroke-linecap="butt" stroke-width="0.213396" fill-opacity="1" fill="rgb(57.647059%, 65.490196%, 82.352941%)" fill-rule="nonzero"/>
<path d="M 190.894531 157.523438 L 208.652344 157.523438 L 208.652344 133.472656 L 190.894531 133.472656 Z M 190.894531 157.523438" stroke-miterlimit="10" stroke-opacity="1" stroke="rgb(100%, 100%, 100%)" stroke-linejoin="miter" stroke-linecap="butt" stroke-width="0.213396" fill-opacity="1" fill="rgb(62.745098%, 74.901961%, 86.27451%)" fill-rule="nonzero"/>
</svg>