<?xml version="1.0" encoding="UTF-8"?>
<svg xmlns="http://www.w3.org/2000/svg" xmlns:xlink="http://www.w3.org/1999/xlink" width="607" height="359" viewBox="0 0 607 359">
<rect x="-60.7" y="-35.9" width="728.4" height="430.8" fill="rgb(100%, 100%, 100%)" fill-opacity="1"/>
<path fill-rule="nonzero" fill="rgb(53.72549%, 67.058824%, 89.019608%)" fill-opacity="0.698039" d="M 27.589844 341.398438 L 28.671875 341.226562 L 29.75 341.027344 L 30.832031 340.804688 L 31.910156 340.558594 L 32.992188 340.28125 L 34.070312 339.976562 L 35.148438 339.636719 L 36.230469 339.261719 L 37.308594 338.851562 L 38.390625 338.398438 L 39.46875 337.898438 L 40.550781 337.355469 L 41.628906 336.765625 L 42.710938 336.125 L 43.789062 335.4375 L 44.867188 334.691406 L 45.949219 333.886719 L 47.027344 333.019531 L 48.109375 332.082031 L 49.1875 331.074219 L 50.269531 329.996094 L 51.347656 328.84375 L 52.429688 327.621094 L 53.507812 326.328125 L 54.585938 324.960938 L 55.667969 323.527344 L 56.746094 322.027344 L 57.828125 320.464844 L 58.90625 318.851562 L 59.988281 317.195312 L 61.066406 315.5 L 62.148438 313.773438 L 63.226562 312.019531 L 64.308594 310.25 L 65.386719 308.457031 L 66.464844 306.648438 L 67.546875 304.816406 L 68.625 302.964844 L 69.707031 301.078125 L 70.785156 299.152344 L 71.867188 297.171875 L 72.945312 295.128906 L 74.027344 293.007812 L 75.105469 290.785156 L 76.183594 288.4375 L 77.265625 285.960938 L 78.34375 283.339844 L 79.425781 280.5625 L 80.503906 277.617188 L 81.585938 274.492188 L 82.664062 271.183594 L 83.746094 267.683594 L 84.824219 263.964844 L 85.90625 260.0625 L 86.984375 255.976562 L 88.0625 251.71875 L 89.144531 247.304688 L 90.222656 242.742188 L 91.304688 238.050781 L 92.382812 233.246094 L 93.464844 228.34375 L 94.542969 223.359375 L 95.625 218.328125 L 96.703125 213.253906 L 97.78125 208.152344 L 98.863281 203.035156 L 99.941406 197.90625 L 101.023438 192.769531 L 102.101562 187.621094 L 103.183594 182.460938 L 104.261719 177.285156 L 105.34375 172.078125 L 106.421875 166.839844 L 107.503906 161.5625 L 108.582031 156.242188 L 109.660156 150.871094 L 110.742188 145.449219 L 111.820312 139.972656 L 112.902344 134.449219 L 113.980469 128.890625 L 115.0625 123.308594 L 116.140625 117.710938 L 117.222656 112.117188 L 118.300781 106.542969 L 119.378906 101 L 120.460938 95.511719 L 121.539062 90.113281 L 122.621094 84.8125 L 123.699219 79.625 L 124.78125 74.574219 L 125.859375 69.675781 L 126.941406 64.945312 L 128.019531 60.394531 L 129.097656 56.035156 L 130.179688 51.898438 L 131.257812 47.984375 L 132.339844 44.28125 L 133.417969 40.796875 L 134.5 37.53125 L 135.578125 34.480469 L 136.660156 31.648438 L 137.738281 29.03125 L 138.820312 26.636719 L 139.898438 24.496094 L 140.976562 22.585938 L 142.058594 20.90625 L 143.136719 19.472656 L 144.21875 18.292969 L 145.296875 17.375 L 146.378906 16.730469 L 147.457031 16.367188 L 148.539062 16.316406 L 149.617188 16.578125 L 150.695312 17.125 L 151.777344 17.960938 L 152.855469 19.074219 L 153.9375 20.453125 L 155.015625 22.09375 L 156.097656 23.96875 L 157.175781 26.078125 L 158.257812 28.417969 L 159.335938 30.941406 L 160.417969 33.632812 L 161.496094 36.480469 L 162.574219 39.464844 L 163.65625 42.578125 L 164.734375 45.804688 L 165.816406 49.140625 L 166.894531 52.578125 L 167.976562 56.109375 L 169.054688 59.722656 L 170.136719 63.414062 L 171.214844 67.171875 L 172.292969 71 L 173.375 74.890625 L 174.453125 78.839844 L 175.535156 82.851562 L 176.613281 86.925781 L 177.695312 91.058594 L 178.773438 95.242188 L 179.855469 99.484375 L 180.933594 103.785156 L 182.011719 108.148438 L 183.09375 112.578125 L 184.171875 117.082031 L 185.253906 121.667969 L 186.332031 126.347656 L 187.414062 131.121094 L 188.492188 135.992188 L 189.574219 140.960938 L 190.652344 146.039062 L 191.734375 151.222656 L 192.8125 156.511719 L 193.890625 161.898438 L 194.972656 167.386719 L 196.050781 172.945312 L 197.132812 178.566406 L 198.210938 184.230469 L 199.292969 189.910156 L 200.371094 195.59375 L 201.453125 201.253906 L 202.53125 206.867188 L 203.609375 212.398438 L 204.691406 217.828125 L 205.769531 223.144531 L 206.851562 228.320312 L 207.929688 233.351562 L 209.011719 238.21875 L 210.089844 242.917969 L 211.171875 247.445312 L 212.25 251.792969 L 213.332031 255.945312 L 214.410156 259.9375 L 215.488281 263.777344 L 216.570312 267.46875 L 217.648438 271.027344 L 218.730469 274.460938 L 219.808594 277.78125 L 220.890625 280.996094 L 221.96875 284.105469 L 223.050781 287.117188 L 224.128906 290.042969 L 225.207031 292.882812 L 226.289062 295.628906 L 227.367188 298.285156 L 228.449219 300.847656 L 229.527344 303.304688 L 230.609375 305.65625 L 231.6875 307.890625 L 232.769531 310.015625 L 233.847656 312.03125 L 234.925781 313.9375 L 236.007812 315.742188 L 237.085938 317.445312 L 238.167969 319.054688 L 239.246094 320.574219 L 240.328125 322.003906 L 241.40625 323.359375 L 242.488281 324.652344 L 243.566406 325.882812 L 244.648438 327.058594 L 245.726562 328.183594 L 246.804688 329.257812 L 247.886719 330.289062 L 248.964844 331.269531 L 250.046875 332.195312 L 251.125 333.074219 L 252.207031 333.90625 L 253.285156 334.683594 L 254.367188 335.414062 L 255.445312 336.085938 L 256.523438 336.707031 L 257.605469 337.277344 L 258.683594 337.785156 L 259.765625 338.242188 L 260.84375 338.65625 L 261.925781 339.019531 L 263.003906 339.34375 L 264.085938 339.632812 L 265.164062 339.882812 L 266.246094 340.101562 L 267.324219 340.292969 L 268.402344 340.460938 L 269.484375 340.605469 L 270.5625 340.734375 L 271.644531 340.847656 L 272.722656 340.949219 L 273.804688 341.042969 L 274.882812 341.128906 L 275.964844 341.214844 L 278.121094 341.371094 L 279.203125 341.449219 L 280.28125 341.527344 L 281.363281 341.605469 L 282.441406 341.683594 L 283.523438 341.765625 L 284.601562 341.847656 L 285.683594 341.925781 L 286.761719 342.007812 L 287.839844 342.082031 L 288.921875 342.15625 L 290 342.226562 L 291.082031 342.289062 L 292.160156 342.347656 L 293.242188 342.402344 L 294.320312 342.453125 L 295.402344 342.492188 L 296.480469 342.53125 L 297.5625 342.558594 L 298.640625 342.585938 L 299.71875 342.605469 L 300.800781 342.625 L 301.878906 342.636719 L 302.960938 342.648438 L 304.039062 342.65625 L 305.121094 342.664062 L 306.199219 342.667969 L 307.28125 342.671875 L 308.359375 342.675781 L 309.4375 342.675781 L 310.519531 342.679688 L 317 342.679688 L 318.078125 342.683594 L 579.410156 342.683594 L 27.589844 342.683594 Z M 27.589844 341.398438 "/>
<path fill-rule="nonzero" fill="rgb(78.431373%, 54.509804%, 54.509804%)" fill-opacity="0.698039" d="M 27.589844 342.683594 L 44.867188 342.683594 L 45.949219 342.679688 L 56.746094 342.679688 L 57.828125 342.675781 L 58.90625 342.675781 L 59.988281 342.671875 L 61.066406 342.671875 L 62.148438 342.667969 L 63.226562 342.667969 L 64.308594 342.664062 L 65.386719 342.660156 L 66.464844 342.652344 L 67.546875 342.648438 L 68.625 342.640625 L 69.707031 342.632812 L 70.785156 342.625 L 71.867188 342.613281 L 72.945312 342.605469 L 74.027344 342.59375 L 75.105469 342.582031 L 76.183594 342.566406 L 77.265625 342.554688 L 78.34375 342.539062 L 79.425781 342.523438 L 80.503906 342.503906 L 81.585938 342.488281 L 82.664062 342.46875 L 83.746094 342.449219 L 84.824219 342.429688 L 85.90625 342.410156 L 86.984375 342.386719 L 88.0625 342.367188 L 89.144531 342.339844 L 90.222656 342.3125 L 91.304688 342.285156 L 92.382812 342.253906 L 93.464844 342.21875 L 94.542969 342.179688 L 95.625 342.136719 L 97.78125 342.035156 L 98.863281 341.972656 L 99.941406 341.910156 L 101.023438 341.839844 L 102.101562 341.761719 L 103.183594 341.675781 L 104.261719 341.585938 L 105.34375 341.484375 L 106.421875 341.378906 L 107.503906 341.265625 L 108.582031 341.144531 L 109.660156 341.015625 L 110.742188 340.882812 L 111.820312 340.738281 L 112.902344 340.585938 L 113.980469 340.425781 L 115.0625 340.261719 L 116.140625 340.085938 L 117.222656 339.902344 L 118.300781 339.710938 L 119.378906 339.507812 L 120.460938 339.296875 L 121.539062 339.074219 L 122.621094 338.84375 L 123.699219 338.601562 L 124.78125 338.34375 L 125.859375 338.078125 L 126.941406 337.800781 L 128.019531 337.507812 L 129.097656 337.207031 L 130.179688 336.894531 L 131.257812 336.570312 L 132.339844 336.230469 L 133.417969 335.882812 L 134.5 335.519531 L 135.578125 335.144531 L 136.660156 334.753906 L 137.738281 334.351562 L 138.820312 333.9375 L 139.898438 333.503906 L 140.976562 333.046875 L 142.058594 332.570312 L 143.136719 332.070312 L 144.21875 331.542969 L 145.296875 330.984375 L 146.378906 330.390625 L 147.457031 329.757812 L 148.539062 329.078125 L 149.617188 328.351562 L 150.695312 327.570312 L 151.777344 326.738281 L 152.855469 325.851562 L 153.9375 324.898438 L 155.015625 323.878906 L 156.097656 322.789062 L 157.175781 321.628906 L 158.257812 320.40625 L 159.335938 319.113281 L 160.417969 317.753906 L 161.496094 316.332031 L 162.574219 314.835938 L 163.65625 313.273438 L 164.734375 311.648438 L 165.816406 309.96875 L 166.894531 308.230469 L 167.976562 306.4375 L 169.054688 304.59375 L 170.136719 302.683594 L 171.214844 300.71875 L 172.292969 298.699219 L 173.375 296.625 L 174.453125 294.492188 L 175.535156 292.300781 L 176.613281 290.046875 L 177.695312 287.714844 L 178.773438 285.316406 L 179.855469 282.847656 L 180.933594 280.304688 L 182.011719 277.691406 L 183.09375 275 L 184.171875 272.238281 L 185.253906 269.390625 L 186.332031 266.472656 L 187.414062 263.492188 L 188.492188 260.453125 L 189.574219 257.359375 L 190.652344 254.222656 L 191.734375 251.042969 L 192.8125 247.828125 L 193.890625 244.597656 L 194.972656 241.355469 L 196.050781 238.109375 L 197.132812 234.871094 L 198.210938 231.640625 L 199.292969 228.429688 L 200.371094 225.242188 L 201.453125 222.085938 L 202.53125 218.957031 L 203.609375 215.859375 L 204.691406 212.789062 L 205.769531 209.75 L 206.851562 206.738281 L 207.929688 203.757812 L 209.011719 200.800781 L 210.089844 197.859375 L 211.171875 194.9375 L 212.25 192.027344 L 213.332031 189.125 L 214.410156 186.234375 L 215.488281 183.347656 L 216.570312 180.464844 L 217.648438 177.585938 L 218.730469 174.703125 L 219.808594 171.824219 L 220.890625 168.949219 L 221.96875 166.070312 L 223.050781 163.195312 L 225.207031 157.453125 L 226.289062 154.589844 L 227.367188 151.734375 L 228.449219 148.882812 L 229.527344 146.046875 L 230.609375 143.226562 L 231.6875 140.421875 L 232.769531 137.636719 L 233.847656 134.878906 L 234.925781 132.148438 L 236.007812 129.453125 L 237.085938 126.804688 L 238.167969 124.207031 L 239.246094 121.660156 L 240.328125 119.171875 L 241.40625 116.75 L 242.488281 114.394531 L 243.566406 112.117188 L 244.648438 109.929688 L 245.726562 107.832031 L 246.804688 105.824219 L 247.886719 103.902344 L 248.964844 102.074219 L 250.046875 100.335938 L 251.125 98.6875 L 252.207031 97.152344 L 253.285156 95.707031 L 254.367188 94.351562 L 255.445312 93.089844 L 256.523438 91.914062 L 257.605469 90.832031 L 258.683594 89.84375 L 259.765625 88.960938 L 260.84375 88.179688 L 261.925781 87.5 L 263.003906 86.921875 L 264.085938 86.457031 L 265.164062 86.101562 L 266.246094 85.871094 L 267.324219 85.789062 L 268.402344 85.835938 L 269.484375 86.023438 L 270.5625 86.347656 L 271.644531 86.8125 L 272.722656 87.425781 L 273.804688 88.1875 L 274.882812 89.117188 L 275.964844 90.191406 L 277.042969 91.402344 L 278.121094 92.753906 L 279.203125 94.230469 L 280.28125 95.835938 L 281.363281 97.5625 L 282.441406 99.417969 L 283.523438 101.375 L 284.601562 103.425781 L 285.683594 105.5625 L 286.761719 107.78125 L 287.839844 110.078125 L 288.921875 112.449219 L 290 114.890625 L 291.082031 117.394531 L 292.160156 119.953125 L 293.242188 122.566406 L 294.320312 125.234375 L 295.402344 127.957031 L 296.480469 130.738281 L 297.5625 133.582031 L 298.640625 136.480469 L 299.71875 139.4375 L 300.800781 142.457031 L 301.878906 145.535156 L 302.960938 148.675781 L 304.039062 151.886719 L 305.121094 155.164062 L 306.199219 158.503906 L 307.28125 161.902344 L 308.359375 165.351562 L 309.4375 168.851562 L 310.519531 172.394531 L 311.597656 175.980469 L 312.679688 179.597656 L 313.757812 183.234375 L 314.839844 186.878906 L 315.917969 190.53125 L 317 194.179688 L 318.078125 197.816406 L 319.160156 201.429688 L 320.238281 205.011719 L 321.316406 208.566406 L 322.398438 212.082031 L 323.476562 215.558594 L 324.558594 218.992188 L 325.636719 222.378906 L 326.71875 225.714844 L 327.796875 229 L 328.878906 232.238281 L 329.957031 235.429688 L 331.035156 238.574219 L 332.117188 241.667969 L 333.195312 244.714844 L 334.277344 247.703125 L 335.355469 250.636719 L 336.4375 253.519531 L 337.515625 256.347656 L 338.597656 259.117188 L 339.675781 261.824219 L 340.753906 264.472656 L 341.835938 267.046875 L 342.914062 269.550781 L 343.996094 271.992188 L 345.074219 274.363281 L 346.15625 276.667969 L 347.234375 278.90625 L 348.316406 281.078125 L 349.394531 283.175781 L 350.476562 285.210938 L 351.554688 287.1875 L 352.632812 289.109375 L 353.714844 290.980469 L 354.792969 292.804688 L 355.875 294.582031 L 356.953125 296.316406 L 358.035156 298.011719 L 359.113281 299.671875 L 360.195312 301.304688 L 361.273438 302.90625 L 362.351562 304.480469 L 363.433594 306.027344 L 364.511719 307.542969 L 365.59375 309.035156 L 366.671875 310.5 L 367.753906 311.9375 L 368.832031 313.34375 L 369.914062 314.722656 L 370.992188 316.0625 L 372.074219 317.363281 L 373.152344 318.628906 L 374.230469 319.851562 L 375.3125 321.035156 L 376.390625 322.171875 L 377.472656 323.265625 L 378.550781 324.3125 L 379.632812 325.308594 L 380.710938 326.257812 L 381.792969 327.164062 L 382.871094 328.023438 L 383.949219 328.84375 L 385.03125 329.625 L 386.109375 330.363281 L 387.191406 331.0625 L 388.269531 331.730469 L 389.351562 332.367188 L 390.429688 332.976562 L 391.511719 333.5625 L 392.589844 334.121094 L 393.667969 334.65625 L 394.75 335.171875 L 395.828125 335.664062 L 396.910156 336.136719 L 397.988281 336.59375 L 399.070312 337.03125 L 400.148438 337.449219 L 401.230469 337.84375 L 402.308594 338.21875 L 403.390625 338.574219 L 404.46875 338.910156 L 405.546875 339.226562 L 406.628906 339.523438 L 407.707031 339.796875 L 408.789062 340.050781 L 409.867188 340.285156 L 410.949219 340.503906 L 412.027344 340.703125 L 413.109375 340.886719 L 414.1875 341.050781 L 415.265625 341.207031 L 416.347656 341.34375 L 417.425781 341.46875 L 418.507812 341.582031 L 419.585938 341.6875 L 420.667969 341.78125 L 421.746094 341.871094 L 422.828125 341.949219 L 423.90625 342.023438 L 424.988281 342.089844 L 427.144531 342.207031 L 428.226562 342.257812 L 429.304688 342.304688 L 430.386719 342.347656 L 431.464844 342.386719 L 432.546875 342.421875 L 433.625 342.457031 L 434.707031 342.484375 L 435.785156 342.511719 L 436.863281 342.535156 L 437.945312 342.558594 L 439.023438 342.574219 L 440.105469 342.589844 L 441.183594 342.605469 L 442.265625 342.617188 L 443.34375 342.628906 L 444.425781 342.640625 L 445.503906 342.648438 L 446.582031 342.652344 L 447.664062 342.660156 L 448.742188 342.664062 L 449.824219 342.667969 L 450.902344 342.671875 L 451.984375 342.671875 L 453.0625 342.675781 L 455.222656 342.675781 L 456.304688 342.679688 L 466.023438 342.679688 L 467.101562 342.683594 L 579.410156 342.683594 Z M 27.589844 342.683594 "/>
<path fill-rule="nonzero" fill="rgb(10.196078%, 16.862745%, 29.803922%)" fill-opacity="0.698039" d="M 27.589844 342.683594 L 95.625 342.683594 L 96.703125 342.679688 L 108.582031 342.679688 L 109.660156 342.675781 L 112.902344 342.675781 L 113.980469 342.671875 L 115.0625 342.671875 L 116.140625 342.667969 L 117.222656 342.664062 L 118.300781 342.664062 L 119.378906 342.660156 L 120.460938 342.65625 L 121.539062 342.652344 L 122.621094 342.644531 L 123.699219 342.640625 L 124.78125 342.632812 L 125.859375 342.628906 L 126.941406 342.621094 L 129.097656 342.605469 L 130.179688 342.597656 L 131.257812 342.585938 L 132.339844 342.578125 L 133.417969 342.566406 L 134.5 342.558594 L 135.578125 342.546875 L 136.660156 342.535156 L 137.738281 342.523438 L 138.820312 342.515625 L 140.976562 342.492188 L 142.058594 342.480469 L 143.136719 342.472656 L 144.21875 342.460938 L 145.296875 342.449219 L 146.378906 342.441406 L 147.457031 342.429688 L 148.539062 342.417969 L 149.617188 342.410156 L 150.695312 342.398438 L 151.777344 342.386719 L 152.855469 342.378906 L 153.9375 342.367188 L 155.015625 342.355469 L 156.097656 342.34375 L 157.175781 342.328125 L 158.257812 342.316406 L 159.335938 342.300781 L 160.417969 342.285156 L 162.574219 342.246094 L 163.65625 342.222656 L 164.734375 342.199219 L 165.816406 342.175781 L 166.894531 342.148438 L 167.976562 342.117188 L 169.054688 342.085938 L 170.136719 342.054688 L 171.214844 342.015625 L 172.292969 341.980469 L 173.375 341.9375 L 174.453125 341.894531 L 175.535156 341.851562 L 176.613281 341.804688 L 177.695312 341.753906 L 178.773438 341.703125 L 179.855469 341.648438 L 180.933594 341.59375 L 182.011719 341.535156 L 183.09375 341.476562 L 184.171875 341.414062 L 185.253906 341.351562 L 186.332031 341.289062 L 187.414062 341.222656 L 188.492188 341.152344 L 189.574219 341.082031 L 190.652344 341.007812 L 191.734375 340.933594 L 192.8125 340.855469 L 193.890625 340.773438 L 194.972656 340.691406 L 196.050781 340.605469 L 197.132812 340.515625 L 198.210938 340.421875 L 199.292969 340.324219 L 200.371094 340.222656 L 201.453125 340.117188 L 202.53125 340.003906 L 203.609375 339.882812 L 204.691406 339.757812 L 205.769531 339.628906 L 206.851562 339.488281 L 207.929688 339.34375 L 209.011719 339.1875 L 210.089844 339.023438 L 211.171875 338.851562 L 212.25 338.671875 L 213.332031 338.480469 L 214.410156 338.28125 L 215.488281 338.070312 L 216.570312 337.851562 L 217.648438 337.621094 L 218.730469 337.378906 L 219.808594 337.128906 L 220.890625 336.867188 L 221.96875 336.589844 L 223.050781 336.304688 L 224.128906 336.003906 L 225.207031 335.691406 L 226.289062 335.367188 L 227.367188 335.023438 L 228.449219 334.664062 L 229.527344 334.289062 L 230.609375 333.898438 L 231.6875 333.488281 L 232.769531 333.054688 L 233.847656 332.597656 L 234.925781 332.121094 L 236.007812 331.617188 L 237.085938 331.089844 L 238.167969 330.539062 L 239.246094 329.957031 L 240.328125 329.34375 L 241.40625 328.703125 L 242.488281 328.035156 L 243.566406 327.339844 L 244.648438 326.613281 L 245.726562 325.855469 L 246.804688 325.0625 L 247.886719 324.242188 L 248.964844 323.394531 L 250.046875 322.523438 L 251.125 321.621094 L 252.207031 320.691406 L 253.285156 319.734375 L 254.367188 318.753906 L 255.445312 317.75 L 256.523438 316.726562 L 257.605469 315.679688 L 258.683594 314.613281 L 259.765625 313.519531 L 260.84375 312.410156 L 261.925781 311.277344 L 263.003906 310.128906 L 264.085938 308.957031 L 265.164062 307.761719 L 266.246094 306.539062 L 267.324219 305.292969 L 268.402344 304.019531 L 269.484375 302.71875 L 270.5625 301.386719 L 271.644531 300.019531 L 272.722656 298.609375 L 273.804688 297.15625 L 274.882812 295.664062 L 275.964844 294.125 L 277.042969 292.539062 L 278.121094 290.898438 L 279.203125 289.195312 L 280.28125 287.441406 L 281.363281 285.632812 L 282.441406 283.765625 L 283.523438 281.84375 L 284.601562 279.859375 L 285.683594 277.816406 L 286.761719 275.722656 L 287.839844 273.578125 L 288.921875 271.386719 L 290 269.15625 L 291.082031 266.878906 L 292.160156 264.566406 L 293.242188 262.222656 L 294.320312 259.859375 L 295.402344 257.472656 L 296.480469 255.074219 L 297.5625 252.664062 L 299.71875 247.835938 L 300.800781 245.425781 L 301.878906 243.019531 L 302.960938 240.621094 L 304.039062 238.238281 L 305.121094 235.867188 L 306.199219 233.511719 L 307.28125 231.171875 L 308.359375 228.84375 L 309.4375 226.53125 L 310.519531 224.234375 L 311.597656 221.953125 L 312.679688 219.679688 L 313.757812 217.414062 L 314.839844 215.160156 L 315.917969 212.910156 L 317 210.667969 L 318.078125 208.429688 L 319.160156 206.195312 L 320.238281 203.957031 L 321.316406 201.722656 L 322.398438 199.488281 L 323.476562 197.253906 L 324.558594 195.023438 L 325.636719 192.789062 L 326.71875 190.554688 L 327.796875 188.328125 L 328.878906 186.101562 L 329.957031 183.878906 L 331.035156 181.667969 L 332.117188 179.464844 L 333.195312 177.269531 L 334.277344 175.089844 L 335.355469 172.925781 L 336.4375 170.78125 L 337.515625 168.660156 L 338.597656 166.558594 L 339.675781 164.484375 L 340.753906 162.433594 L 341.835938 160.40625 L 342.914062 158.417969 L 343.996094 156.460938 L 345.074219 154.535156 L 346.15625 152.644531 L 347.234375 150.785156 L 348.316406 148.964844 L 349.394531 147.183594 L 350.476562 145.441406 L 351.554688 143.742188 L 352.632812 142.078125 L 353.714844 140.457031 L 354.792969 138.878906 L 355.875 137.351562 L 356.953125 135.875 L 358.035156 134.445312 L 359.113281 133.070312 L 360.195312 131.75 L 361.273438 130.484375 L 362.351562 129.289062 L 363.433594 128.164062 L 364.511719 127.101562 L 365.59375 126.113281 L 366.671875 125.191406 L 367.753906 124.347656 L 368.832031 123.59375 L 369.914062 122.925781 L 370.992188 122.339844 L 372.074219 121.835938 L 373.152344 121.417969 L 374.230469 121.089844 L 375.3125 120.863281 L 376.390625 120.734375 L 377.472656 120.691406 L 378.550781 120.742188 L 379.632812 120.882812 L 380.710938 121.117188 L 381.792969 121.457031 L 382.871094 121.894531 L 383.949219 122.425781 L 385.03125 123.050781 L 386.109375 123.765625 L 387.191406 124.570312 L 388.269531 125.488281 L 389.351562 126.5 L 390.429688 127.597656 L 391.511719 128.785156 L 392.589844 130.0625 L 393.667969 131.421875 L 394.75 132.878906 L 395.828125 134.421875 L 396.910156 136.035156 L 397.988281 137.722656 L 399.070312 139.480469 L 400.148438 141.300781 L 401.230469 143.195312 L 402.308594 145.144531 L 403.390625 147.144531 L 404.46875 149.1875 L 405.546875 151.273438 L 406.628906 153.394531 L 407.707031 155.554688 L 408.789062 157.738281 L 409.867188 159.949219 L 410.949219 162.175781 L 412.027344 164.421875 L 413.109375 166.683594 L 414.1875 168.960938 L 415.265625 171.246094 L 416.347656 173.542969 L 417.425781 175.847656 L 418.507812 178.160156 L 419.585938 180.480469 L 420.667969 182.808594 L 421.746094 185.148438 L 422.828125 187.492188 L 423.90625 189.84375 L 424.988281 192.199219 L 426.066406 194.5625 L 427.144531 196.933594 L 428.226562 199.308594 L 429.304688 201.6875 L 430.386719 204.066406 L 431.464844 206.445312 L 432.546875 208.824219 L 433.625 211.199219 L 434.707031 213.566406 L 435.785156 215.925781 L 436.863281 218.277344 L 437.945312 220.617188 L 439.023438 222.941406 L 440.105469 225.246094 L 441.183594 227.535156 L 442.265625 229.804688 L 443.34375 232.054688 L 444.425781 234.285156 L 445.503906 236.496094 L 446.582031 238.683594 L 447.664062 240.847656 L 448.742188 242.992188 L 449.824219 245.117188 L 450.902344 247.222656 L 451.984375 249.3125 L 453.0625 251.378906 L 454.144531 253.429688 L 455.222656 255.464844 L 456.304688 257.484375 L 457.382812 259.488281 L 458.460938 261.480469 L 459.542969 263.453125 L 460.621094 265.414062 L 461.703125 267.363281 L 462.78125 269.292969 L 463.863281 271.214844 L 464.941406 273.117188 L 466.023438 275.003906 L 467.101562 276.875 L 468.179688 278.726562 L 469.261719 280.566406 L 470.339844 282.382812 L 471.421875 284.179688 L 472.5 285.953125 L 473.582031 287.707031 L 474.660156 289.433594 L 475.742188 291.140625 L 476.820312 292.820312 L 477.902344 294.476562 L 478.980469 296.097656 L 480.058594 297.6875 L 481.140625 299.25 L 482.21875 300.78125 L 483.300781 302.28125 L 484.378906 303.746094 L 485.460938 305.171875 L 486.539062 306.558594 L 487.621094 307.910156 L 488.699219 309.222656 L 489.777344 310.496094 L 490.859375 311.726562 L 491.9375 312.910156 L 493.019531 314.050781 L 494.097656 315.148438 L 495.179688 316.207031 L 496.257812 317.222656 L 497.339844 318.191406 L 498.417969 319.113281 L 499.496094 319.992188 L 500.578125 320.832031 L 501.65625 321.632812 L 502.738281 322.394531 L 503.816406 323.121094 L 504.898438 323.804688 L 505.976562 324.453125 L 507.058594 325.074219 L 508.136719 325.667969 L 509.21875 326.234375 L 510.296875 326.777344 L 511.375 327.296875 L 512.457031 327.796875 L 513.535156 328.28125 L 514.617188 328.753906 L 515.695312 329.214844 L 516.777344 329.664062 L 517.855469 330.105469 L 518.9375 330.546875 L 520.015625 330.980469 L 521.09375 331.410156 L 522.175781 331.839844 L 523.253906 332.269531 L 524.335938 332.695312 L 525.414062 333.125 L 526.496094 333.550781 L 527.574219 333.972656 L 528.65625 334.398438 L 529.734375 334.816406 L 530.816406 335.230469 L 531.894531 335.640625 L 532.972656 336.042969 L 534.054688 336.4375 L 535.132812 336.824219 L 536.214844 337.199219 L 537.292969 337.558594 L 538.375 337.90625 L 539.453125 338.242188 L 540.535156 338.5625 L 541.613281 338.867188 L 542.691406 339.152344 L 543.773438 339.421875 L 544.851562 339.675781 L 545.933594 339.910156 L 547.011719 340.128906 L 548.09375 340.335938 L 549.171875 340.519531 L 550.253906 340.691406 L 551.332031 340.847656 L 552.414062 340.988281 L 553.492188 341.121094 L 554.570312 341.238281 L 555.652344 341.34375 L 556.730469 341.4375 L 557.8125 341.523438 L 558.890625 341.601562 L 559.972656 341.671875 L 561.050781 341.734375 L 562.132812 341.792969 L 564.289062 341.886719 L 565.371094 341.929688 L 566.449219 341.964844 L 567.53125 342 L 568.609375 342.03125 L 569.691406 342.0625 L 570.769531 342.089844 L 571.851562 342.113281 L 572.929688 342.140625 L 574.007812 342.164062 L 575.089844 342.1875 L 576.167969 342.207031 L 577.25 342.230469 L 578.328125 342.25 L 579.410156 342.273438 L 579.410156 342.683594 Z M 27.589844 342.683594 "/>
</svg>
