<?xml version="1.0" encoding="UTF-8"?>
<svg xmlns="http://www.w3.org/2000/svg" xmlns:xlink="http://www.w3.org/1999/xlink" width="383pt" height="216pt" viewBox="0 0 383 216">
<defs>
<g>
<g id="glyph-0-0">
<path d="M 0.46875 0 L 0.46875 -10.328125 L 8.671875 -10.328125 L 8.671875 0 Z M 7.375 -1.296875 L 7.375 -9.046875 L 1.765625 -9.046875 L 1.765625 -1.296875 Z M 7.375 -1.296875 "/>
</g>
<g id="glyph-0-1">
<path d="M 3.890625 -10.078125 C 5.203125 -10.078125 6.144531 -9.539062 6.71875 -8.46875 C 7.175781 -7.632812 7.40625 -6.492188 7.40625 -5.046875 C 7.40625 -3.679688 7.195312 -2.550781 6.78125 -1.65625 C 6.195312 -0.363281 5.234375 0.28125 3.890625 0.28125 C 2.679688 0.28125 1.78125 -0.242188 1.1875 -1.296875 C 0.695312 -2.171875 0.453125 -3.347656 0.453125 -4.828125 C 0.453125 -5.972656 0.597656 -6.957031 0.890625 -7.78125 C 1.441406 -9.3125 2.441406 -10.078125 3.890625 -10.078125 Z M 3.890625 -0.875 C 4.546875 -0.875 5.066406 -1.164062 5.453125 -1.75 C 5.835938 -2.332031 6.03125 -3.414062 6.03125 -5 C 6.03125 -6.144531 5.890625 -7.085938 5.609375 -7.828125 C 5.328125 -8.566406 4.78125 -8.9375 3.96875 -8.9375 C 3.226562 -8.9375 2.6875 -8.582031 2.34375 -7.875 C 2 -7.175781 1.828125 -6.144531 1.828125 -4.78125 C 1.828125 -3.757812 1.9375 -2.9375 2.15625 -2.3125 C 2.488281 -1.351562 3.066406 -0.875 3.890625 -0.875 Z M 3.890625 -0.875 "/>
</g>
<g id="glyph-0-2">
<path d="M 1.375 -7.125 L 1.375 -8.109375 C 2.289062 -8.191406 2.925781 -8.335938 3.28125 -8.546875 C 3.644531 -8.753906 3.914062 -9.25 4.09375 -10.03125 L 5.09375 -10.03125 L 5.09375 0 L 3.75 0 L 3.75 -7.125 Z M 1.375 -7.125 "/>
</g>
<g id="glyph-0-3">
<path d="M 0.453125 0 C 0.492188 -0.863281 0.671875 -1.617188 0.984375 -2.265625 C 1.296875 -2.910156 1.90625 -3.492188 2.8125 -4.015625 L 4.171875 -4.796875 C 4.773438 -5.148438 5.195312 -5.453125 5.4375 -5.703125 C 5.820312 -6.085938 6.015625 -6.53125 6.015625 -7.03125 C 6.015625 -7.613281 5.835938 -8.078125 5.484375 -8.421875 C 5.128906 -8.773438 4.660156 -8.953125 4.078125 -8.953125 C 3.210938 -8.953125 2.613281 -8.625 2.28125 -7.96875 C 2.101562 -7.613281 2.003906 -7.125 1.984375 -6.5 L 0.703125 -6.5 C 0.710938 -7.375 0.875 -8.085938 1.1875 -8.640625 C 1.726562 -9.617188 2.695312 -10.109375 4.09375 -10.109375 C 5.238281 -10.109375 6.078125 -9.796875 6.609375 -9.171875 C 7.148438 -8.546875 7.421875 -7.851562 7.421875 -7.09375 C 7.421875 -6.28125 7.132812 -5.585938 6.5625 -5.015625 C 6.238281 -4.679688 5.648438 -4.28125 4.796875 -3.8125 L 3.828125 -3.28125 C 3.367188 -3.019531 3.007812 -2.773438 2.75 -2.546875 C 2.28125 -2.140625 1.984375 -1.691406 1.859375 -1.203125 L 7.359375 -1.203125 L 7.359375 0 Z M 0.453125 0 "/>
</g>
<g id="glyph-0-4">
<path d="M 1.78125 -2.5625 C 1.863281 -1.84375 2.195312 -1.34375 2.78125 -1.0625 C 3.082031 -0.925781 3.429688 -0.859375 3.828125 -0.859375 C 4.578125 -0.859375 5.128906 -1.097656 5.484375 -1.578125 C 5.847656 -2.054688 6.03125 -2.585938 6.03125 -3.171875 C 6.03125 -3.867188 5.816406 -4.410156 5.390625 -4.796875 C 4.960938 -5.179688 4.445312 -5.375 3.84375 -5.375 C 3.40625 -5.375 3.03125 -5.289062 2.71875 -5.125 C 2.414062 -4.957031 2.148438 -4.722656 1.921875 -4.421875 L 0.828125 -4.484375 L 1.59375 -9.90625 L 6.828125 -9.90625 L 6.828125 -8.6875 L 2.546875 -8.6875 L 2.125 -5.875 C 2.351562 -6.050781 2.570312 -6.1875 2.78125 -6.28125 C 3.15625 -6.4375 3.59375 -6.515625 4.09375 -6.515625 C 5.007812 -6.515625 5.789062 -6.21875 6.4375 -5.625 C 7.082031 -5.03125 7.40625 -4.273438 7.40625 -3.359375 C 7.40625 -2.398438 7.109375 -1.554688 6.515625 -0.828125 C 5.929688 -0.109375 4.992188 0.25 3.703125 0.25 C 2.878906 0.25 2.148438 0.0195312 1.515625 -0.4375 C 0.890625 -0.894531 0.539062 -1.601562 0.46875 -2.5625 Z M 1.78125 -2.5625 "/>
</g>
<g id="glyph-0-5">
<path d="M 1.234375 -10.328125 L 8.40625 -10.328125 L 8.40625 -9.0625 L 2.625 -9.0625 L 2.625 -5.9375 L 7.703125 -5.9375 L 7.703125 -4.703125 L 2.625 -4.703125 L 2.625 0 L 1.234375 0 Z M 1.234375 -10.328125 "/>
</g>
<g id="glyph-0-6">
<path d="M 6.40625 -4.234375 L 4.828125 -8.796875 L 3.171875 -4.234375 Z M 4.09375 -10.328125 L 5.6875 -10.328125 L 9.4375 0 L 7.90625 0 L 6.84375 -3.09375 L 2.765625 -3.09375 L 1.640625 0 L 0.21875 0 Z M 4.09375 -10.328125 "/>
</g>
<g id="glyph-0-7">
<path d="M 1.09375 -10.328125 L 2.5 -10.328125 L 2.5 -1.234375 L 7.734375 -1.234375 L 7.734375 0 L 1.09375 0 Z M 1.09375 -10.328125 "/>
</g>
<g id="glyph-0-8">
<path d="M 2.015625 -3.328125 C 2.046875 -2.742188 2.179688 -2.269531 2.421875 -1.90625 C 2.890625 -1.21875 3.707031 -0.875 4.875 -0.875 C 5.40625 -0.875 5.882812 -0.953125 6.3125 -1.109375 C 7.144531 -1.398438 7.5625 -1.921875 7.5625 -2.671875 C 7.5625 -3.234375 7.390625 -3.632812 7.046875 -3.875 C 6.679688 -4.101562 6.117188 -4.304688 5.359375 -4.484375 L 3.96875 -4.796875 C 3.050781 -5.003906 2.40625 -5.234375 2.03125 -5.484375 C 1.375 -5.910156 1.046875 -6.554688 1.046875 -7.421875 C 1.046875 -8.347656 1.363281 -9.109375 2 -9.703125 C 2.644531 -10.296875 3.554688 -10.59375 4.734375 -10.59375 C 5.816406 -10.59375 6.734375 -10.332031 7.484375 -9.8125 C 8.242188 -9.289062 8.625 -8.453125 8.625 -7.296875 L 7.3125 -7.296875 C 7.238281 -7.847656 7.085938 -8.273438 6.859375 -8.578125 C 6.429688 -9.117188 5.707031 -9.390625 4.6875 -9.390625 C 3.863281 -9.390625 3.269531 -9.210938 2.90625 -8.859375 C 2.550781 -8.515625 2.375 -8.113281 2.375 -7.65625 C 2.375 -7.144531 2.582031 -6.773438 3 -6.546875 C 3.28125 -6.390625 3.90625 -6.203125 4.875 -5.984375 L 6.328125 -5.65625 C 7.023438 -5.488281 7.566406 -5.269531 7.953125 -5 C 8.609375 -4.507812 8.9375 -3.804688 8.9375 -2.890625 C 8.9375 -1.742188 8.519531 -0.925781 7.6875 -0.4375 C 6.851562 0.0507812 5.882812 0.296875 4.78125 0.296875 C 3.5 0.296875 2.492188 -0.03125 1.765625 -0.6875 C 1.035156 -1.332031 0.679688 -2.210938 0.703125 -3.328125 Z M 4.84375 -10.609375 Z M 4.84375 -10.609375 "/>
</g>
<g id="glyph-0-9">
<path d="M 1.234375 -10.328125 L 8.765625 -10.328125 L 8.765625 -9.0625 L 2.59375 -9.0625 L 2.59375 -5.9375 L 8.296875 -5.9375 L 8.296875 -4.734375 L 2.59375 -4.734375 L 2.59375 -1.234375 L 8.875 -1.234375 L 8.875 0 L 1.234375 0 Z M 5.046875 -10.328125 Z M 5.046875 -10.328125 "/>
</g>
<g id="glyph-0-10">
<path d="M 8.609375 -10.328125 L 8.609375 -9.109375 L 5.140625 -9.109375 L 5.140625 0 L 3.71875 0 L 3.71875 -9.109375 L 0.234375 -9.109375 L 0.234375 -10.328125 Z M 8.609375 -10.328125 "/>
</g>
<g id="glyph-0-11">
<path d="M 5.90625 -5.59375 C 6.5625 -5.59375 7.078125 -5.722656 7.453125 -5.984375 C 7.835938 -6.253906 8.03125 -6.734375 8.03125 -7.421875 C 8.03125 -8.148438 7.765625 -8.648438 7.234375 -8.921875 C 6.941406 -9.054688 6.554688 -9.125 6.078125 -9.125 L 2.671875 -9.125 L 2.671875 -5.59375 Z M 1.265625 -10.328125 L 6.046875 -10.328125 C 6.835938 -10.328125 7.488281 -10.210938 8 -9.984375 C 8.96875 -9.546875 9.453125 -8.734375 9.453125 -7.546875 C 9.453125 -6.929688 9.320312 -6.425781 9.0625 -6.03125 C 8.8125 -5.632812 8.457031 -5.316406 8 -5.078125 C 8.40625 -4.910156 8.707031 -4.691406 8.90625 -4.421875 C 9.113281 -4.160156 9.226562 -3.726562 9.25 -3.125 L 9.296875 -1.75 C 9.316406 -1.351562 9.347656 -1.054688 9.390625 -0.859375 C 9.484375 -0.535156 9.632812 -0.328125 9.84375 -0.234375 L 9.84375 0 L 8.125 0 C 8.082031 -0.09375 8.046875 -0.207031 8.015625 -0.34375 C 7.992188 -0.488281 7.972656 -0.757812 7.953125 -1.15625 L 7.859375 -2.890625 C 7.828125 -3.554688 7.578125 -4.003906 7.109375 -4.234375 C 6.835938 -4.367188 6.421875 -4.4375 5.859375 -4.4375 L 2.671875 -4.4375 L 2.671875 0 L 1.265625 0 Z M 1.265625 -10.328125 "/>
</g>
<g id="glyph-0-12">
<path d="M 2.609375 -10.328125 L 2.609375 -3.953125 C 2.609375 -3.203125 2.75 -2.578125 3.03125 -2.078125 C 3.457031 -1.328125 4.164062 -0.953125 5.15625 -0.953125 C 6.332031 -0.953125 7.132812 -1.359375 7.5625 -2.171875 C 7.789062 -2.609375 7.90625 -3.203125 7.90625 -3.953125 L 7.90625 -10.328125 L 9.328125 -10.328125 L 9.328125 -4.53125 C 9.328125 -3.257812 9.160156 -2.28125 8.828125 -1.59375 C 8.191406 -0.34375 7.003906 0.28125 5.265625 0.28125 C 3.515625 0.28125 2.328125 -0.34375 1.703125 -1.59375 C 1.367188 -2.28125 1.203125 -3.257812 1.203125 -4.53125 L 1.203125 -10.328125 Z M 5.265625 -10.328125 Z M 5.265625 -10.328125 "/>
</g>
<g id="glyph-1-0">
<path d="M 0.578125 0 L 0.578125 -12.90625 L 10.828125 -12.90625 L 10.828125 0 Z M 9.21875 -1.625 L 9.21875 -11.296875 L 2.203125 -11.296875 L 2.203125 -1.625 Z M 9.21875 -1.625 "/>
</g>
<g id="glyph-1-1">
<path d="M 4.890625 -1.015625 C 5.941406 -1.015625 6.660156 -1.410156 7.046875 -2.203125 C 7.441406 -3.003906 7.640625 -3.890625 7.640625 -4.859375 C 7.640625 -5.734375 7.5 -6.445312 7.21875 -7 C 6.769531 -7.875 6 -8.3125 4.90625 -8.3125 C 3.945312 -8.3125 3.242188 -7.941406 2.796875 -7.203125 C 2.359375 -6.460938 2.140625 -5.570312 2.140625 -4.53125 C 2.140625 -3.53125 2.359375 -2.691406 2.796875 -2.015625 C 3.242188 -1.347656 3.941406 -1.015625 4.890625 -1.015625 Z M 4.953125 -9.6875 C 6.171875 -9.6875 7.195312 -9.28125 8.03125 -8.46875 C 8.875 -7.664062 9.296875 -6.476562 9.296875 -4.90625 C 9.296875 -3.382812 8.925781 -2.128906 8.1875 -1.140625 C 7.445312 -0.148438 6.300781 0.34375 4.75 0.34375 C 3.445312 0.34375 2.414062 -0.09375 1.65625 -0.96875 C 0.894531 -1.84375 0.515625 -3.019531 0.515625 -4.5 C 0.515625 -6.082031 0.914062 -7.34375 1.71875 -8.28125 C 2.519531 -9.21875 3.597656 -9.6875 4.953125 -9.6875 Z M 4.90625 -9.640625 Z M 4.90625 -9.640625 "/>
</g>
<g id="glyph-1-2">
<path d="M 1.03125 -12.953125 L 2.578125 -12.953125 L 2.578125 -8.265625 C 2.921875 -8.722656 3.332031 -9.066406 3.8125 -9.296875 C 4.289062 -9.535156 4.8125 -9.65625 5.375 -9.65625 C 6.550781 -9.65625 7.503906 -9.253906 8.234375 -8.453125 C 8.960938 -7.648438 9.328125 -6.460938 9.328125 -4.890625 C 9.328125 -3.398438 8.960938 -2.160156 8.234375 -1.171875 C 7.515625 -0.191406 6.519531 0.296875 5.25 0.296875 C 4.53125 0.296875 3.925781 0.121094 3.4375 -0.21875 C 3.144531 -0.425781 2.832031 -0.753906 2.5 -1.203125 L 2.5 0 L 1.03125 0 Z M 5.15625 -1.09375 C 6.007812 -1.09375 6.644531 -1.429688 7.0625 -2.109375 C 7.488281 -2.796875 7.703125 -3.695312 7.703125 -4.8125 C 7.703125 -5.800781 7.488281 -6.617188 7.0625 -7.265625 C 6.644531 -7.921875 6.019531 -8.25 5.1875 -8.25 C 4.46875 -8.25 3.835938 -7.976562 3.296875 -7.4375 C 2.753906 -6.90625 2.484375 -6.03125 2.484375 -4.8125 C 2.484375 -3.925781 2.597656 -3.207031 2.828125 -2.65625 C 3.242188 -1.613281 4.019531 -1.09375 5.15625 -1.09375 Z M 5.15625 -1.09375 "/>
</g>
<g id="glyph-1-3">
<path d="M 2.09375 -2.953125 C 2.144531 -2.421875 2.28125 -2.015625 2.5 -1.734375 C 2.894531 -1.222656 3.585938 -0.96875 4.578125 -0.96875 C 5.160156 -0.96875 5.671875 -1.09375 6.109375 -1.34375 C 6.554688 -1.601562 6.78125 -2.003906 6.78125 -2.546875 C 6.78125 -2.941406 6.601562 -3.25 6.25 -3.46875 C 6.019531 -3.59375 5.566406 -3.738281 4.890625 -3.90625 L 3.640625 -4.234375 C 2.835938 -4.429688 2.242188 -4.648438 1.859375 -4.890625 C 1.179688 -5.316406 0.84375 -5.910156 0.84375 -6.671875 C 0.84375 -7.554688 1.160156 -8.273438 1.796875 -8.828125 C 2.441406 -9.378906 3.304688 -9.65625 4.390625 -9.65625 C 5.804688 -9.65625 6.832031 -9.238281 7.46875 -8.40625 C 7.851562 -7.882812 8.039062 -7.316406 8.03125 -6.703125 L 6.546875 -6.703125 C 6.515625 -7.066406 6.382812 -7.394531 6.15625 -7.6875 C 5.789062 -8.101562 5.160156 -8.3125 4.265625 -8.3125 C 3.671875 -8.3125 3.21875 -8.195312 2.90625 -7.96875 C 2.601562 -7.738281 2.453125 -7.4375 2.453125 -7.0625 C 2.453125 -6.644531 2.65625 -6.316406 3.0625 -6.078125 C 3.289062 -5.929688 3.632812 -5.800781 4.09375 -5.6875 L 5.140625 -5.4375 C 6.273438 -5.15625 7.035156 -4.882812 7.421875 -4.625 C 8.035156 -4.226562 8.34375 -3.59375 8.34375 -2.71875 C 8.34375 -1.882812 8.023438 -1.160156 7.390625 -0.546875 C 6.753906 0.0546875 5.785156 0.359375 4.484375 0.359375 C 3.085938 0.359375 2.097656 0.0390625 1.515625 -0.59375 C 0.929688 -1.226562 0.617188 -2.015625 0.578125 -2.953125 Z M 4.4375 -9.640625 Z M 4.4375 -9.640625 "/>
</g>
<g id="glyph-1-4">
<path d="M 7.765625 0 L 6.1875 0 L 6.1875 -12.90625 L 7.765625 -12.90625 Z M 3.125 0 L 1.5625 0 L 1.5625 -8.125 L 0.25 -8.125 L 0.25 -9.375 L 1.5625 -9.375 L 1.5625 -11.046875 C 1.5625 -11.734375 1.773438 -12.242188 2.203125 -12.578125 C 2.628906 -12.921875 3.203125 -13.09375 3.921875 -13.09375 C 4.066406 -13.09375 4.195312 -13.085938 4.3125 -13.078125 C 4.425781 -13.066406 4.554688 -13.050781 4.703125 -13.03125 L 4.703125 -11.625 C 4.535156 -11.632812 4.414062 -11.640625 4.34375 -11.640625 C 4.269531 -11.640625 4.203125 -11.640625 4.140625 -11.640625 C 3.691406 -11.640625 3.394531 -11.515625 3.25 -11.265625 C 3.164062 -11.117188 3.125 -10.875 3.125 -10.53125 L 3.125 -9.375 L 4.703125 -9.375 L 4.703125 -8.125 L 3.125 -8.125 Z M 3.125 0 "/>
</g>
<g id="glyph-1-5">
<path d="M 2.375 -2.5 C 2.375 -2.039062 2.539062 -1.679688 2.875 -1.421875 C 3.207031 -1.160156 3.601562 -1.03125 4.0625 -1.03125 C 4.613281 -1.03125 5.148438 -1.160156 5.671875 -1.421875 C 6.554688 -1.847656 7 -2.546875 7 -3.515625 L 7 -4.796875 C 6.800781 -4.671875 6.550781 -4.566406 6.25 -4.484375 C 5.945312 -4.398438 5.648438 -4.34375 5.359375 -4.3125 L 4.390625 -4.1875 C 3.816406 -4.101562 3.390625 -3.984375 3.109375 -3.828125 C 2.617188 -3.546875 2.375 -3.101562 2.375 -2.5 Z M 6.203125 -5.703125 C 6.566406 -5.753906 6.8125 -5.90625 6.9375 -6.15625 C 7.007812 -6.300781 7.046875 -6.503906 7.046875 -6.765625 C 7.046875 -7.304688 6.851562 -7.695312 6.46875 -7.9375 C 6.082031 -8.1875 5.53125 -8.3125 4.8125 -8.3125 C 3.988281 -8.3125 3.40625 -8.085938 3.0625 -7.640625 C 2.863281 -7.390625 2.738281 -7.023438 2.6875 -6.546875 L 1.203125 -6.546875 C 1.234375 -7.703125 1.609375 -8.503906 2.328125 -8.953125 C 3.054688 -9.410156 3.898438 -9.640625 4.859375 -9.640625 C 5.960938 -9.640625 6.859375 -9.429688 7.546875 -9.015625 C 8.234375 -8.585938 8.578125 -7.929688 8.578125 -7.046875 L 8.578125 -1.625 C 8.578125 -1.457031 8.609375 -1.320312 8.671875 -1.21875 C 8.742188 -1.125 8.890625 -1.078125 9.109375 -1.078125 C 9.179688 -1.078125 9.257812 -1.078125 9.34375 -1.078125 C 9.425781 -1.085938 9.519531 -1.101562 9.625 -1.125 L 9.625 0.046875 C 9.375 0.117188 9.1875 0.160156 9.0625 0.171875 C 8.9375 0.191406 8.757812 0.203125 8.53125 0.203125 C 7.988281 0.203125 7.59375 0.0078125 7.34375 -0.375 C 7.21875 -0.582031 7.128906 -0.875 7.078125 -1.25 C 6.753906 -0.820312 6.289062 -0.453125 5.6875 -0.140625 C 5.082031 0.160156 4.414062 0.3125 3.6875 0.3125 C 2.8125 0.3125 2.097656 0.0429688 1.546875 -0.484375 C 0.992188 -1.015625 0.71875 -1.675781 0.71875 -2.46875 C 0.71875 -3.34375 0.988281 -4.019531 1.53125 -4.5 C 2.082031 -4.976562 2.800781 -5.273438 3.6875 -5.390625 Z M 4.890625 -9.640625 Z M 4.890625 -9.640625 "/>
</g>
<g id="glyph-1-6">
<path d="M 4.484375 -9.578125 C 5.222656 -9.578125 5.867188 -9.394531 6.421875 -9.03125 C 6.710938 -8.832031 7.015625 -8.535156 7.328125 -8.140625 L 7.328125 -9.328125 L 8.796875 -9.328125 L 8.796875 -0.765625 C 8.796875 0.429688 8.617188 1.375 8.265625 2.0625 C 7.609375 3.34375 6.367188 3.984375 4.546875 3.984375 C 3.535156 3.984375 2.679688 3.753906 1.984375 3.296875 C 1.296875 2.847656 0.910156 2.140625 0.828125 1.171875 L 2.4375 1.171875 C 2.507812 1.585938 2.660156 1.910156 2.890625 2.140625 C 3.242188 2.492188 3.804688 2.671875 4.578125 2.671875 C 5.796875 2.671875 6.59375 2.242188 6.96875 1.390625 C 7.1875 0.890625 7.285156 -0.0078125 7.265625 -1.3125 C 6.953125 -0.832031 6.570312 -0.472656 6.125 -0.234375 C 5.675781 -0.00390625 5.085938 0.109375 4.359375 0.109375 C 3.335938 0.109375 2.441406 -0.25 1.671875 -0.96875 C 0.910156 -1.695312 0.53125 -2.894531 0.53125 -4.5625 C 0.53125 -6.132812 0.914062 -7.363281 1.6875 -8.25 C 2.457031 -9.132812 3.390625 -9.578125 4.484375 -9.578125 Z M 7.328125 -4.75 C 7.328125 -5.914062 7.085938 -6.78125 6.609375 -7.34375 C 6.128906 -7.90625 5.515625 -8.1875 4.765625 -8.1875 C 3.660156 -8.1875 2.898438 -7.664062 2.484375 -6.625 C 2.265625 -6.0625 2.15625 -5.332031 2.15625 -4.4375 C 2.15625 -3.375 2.367188 -2.5625 2.796875 -2 C 3.234375 -1.445312 3.816406 -1.171875 4.546875 -1.171875 C 5.679688 -1.171875 6.476562 -1.6875 6.9375 -2.71875 C 7.195312 -3.300781 7.328125 -3.976562 7.328125 -4.75 Z M 4.671875 -9.640625 Z M 4.671875 -9.640625 "/>
</g>
<g id="glyph-2-0">
<path d="M 0 -0.578125 L -12.90625 -0.578125 L -12.90625 -10.828125 L 0 -10.828125 Z M -1.625 -9.21875 L -11.296875 -9.21875 L -11.296875 -2.203125 L -1.625 -2.203125 Z M -1.625 -9.21875 "/>
</g>
<g id="glyph-2-1">
<path d="M -7 -7.375 C -7 -8.195312 -7.160156 -8.84375 -7.484375 -9.3125 C -7.816406 -9.789062 -8.410156 -10.03125 -9.265625 -10.03125 C -10.179688 -10.03125 -10.804688 -9.695312 -11.140625 -9.03125 C -11.316406 -8.675781 -11.40625 -8.203125 -11.40625 -7.609375 L -11.40625 -3.328125 L -7 -3.328125 Z M -12.90625 -1.578125 L -12.90625 -7.5625 C -12.90625 -8.539062 -12.765625 -9.351562 -12.484375 -10 C -11.929688 -11.207031 -10.914062 -11.8125 -9.4375 -11.8125 C -8.65625 -11.8125 -8.019531 -11.648438 -7.53125 -11.328125 C -7.039062 -11.015625 -6.644531 -10.570312 -6.34375 -10 C -6.132812 -10.5 -5.863281 -10.875 -5.53125 -11.125 C -5.195312 -11.382812 -4.65625 -11.53125 -3.90625 -11.5625 L -2.1875 -11.625 C -1.6875 -11.632812 -1.316406 -11.675781 -1.078125 -11.75 C -0.671875 -11.851562 -0.410156 -12.039062 -0.296875 -12.3125 L 0 -12.3125 L 0 -10.15625 C -0.113281 -10.101562 -0.253906 -10.054688 -0.421875 -10.015625 C -0.597656 -9.984375 -0.941406 -9.957031 -1.453125 -9.9375 L -3.609375 -9.828125 C -4.453125 -9.785156 -5.015625 -9.472656 -5.296875 -8.890625 C -5.453125 -8.554688 -5.53125 -8.03125 -5.53125 -7.3125 L -5.53125 -3.328125 L 0 -3.328125 L 0 -1.578125 Z M -12.90625 -1.578125 "/>
</g>
<g id="glyph-2-2">
<path d="M -1.5 -6.328125 C -1.5 -6.921875 -1.554688 -7.40625 -1.671875 -7.78125 C -1.898438 -8.46875 -2.34375 -9.023438 -3 -9.453125 C -3.519531 -9.796875 -4.1875 -10.046875 -5 -10.203125 C -5.488281 -10.296875 -5.941406 -10.34375 -6.359375 -10.34375 C -7.953125 -10.34375 -9.191406 -10.019531 -10.078125 -9.375 C -10.960938 -8.738281 -11.40625 -7.71875 -11.40625 -6.3125 L -11.40625 -3.203125 L -1.5 -3.203125 Z M -12.90625 -1.453125 L -12.90625 -6.6875 C -12.90625 -8.457031 -12.273438 -9.832031 -11.015625 -10.8125 C -9.878906 -11.6875 -8.425781 -12.125 -6.65625 -12.125 C -5.28125 -12.125 -4.039062 -11.863281 -2.9375 -11.34375 C -0.976562 -10.4375 0 -8.875 0 -6.65625 L 0 -1.453125 Z M -12.90625 -1.453125 "/>
</g>
<g id="glyph-2-3">
<path d="M 0 -0.5625 C -1.082031 -0.625 -2.023438 -0.847656 -2.828125 -1.234375 C -3.628906 -1.617188 -4.359375 -2.378906 -5.015625 -3.515625 L -6 -5.203125 C -6.4375 -5.960938 -6.8125 -6.492188 -7.125 -6.796875 C -7.601562 -7.273438 -8.160156 -7.515625 -8.796875 -7.515625 C -9.523438 -7.515625 -10.101562 -7.296875 -10.53125 -6.859375 C -10.96875 -6.421875 -11.1875 -5.832031 -11.1875 -5.09375 C -11.1875 -4.007812 -10.773438 -3.257812 -9.953125 -2.84375 C -9.515625 -2.625 -8.90625 -2.503906 -8.125 -2.484375 L -8.125 -0.875 C -9.21875 -0.882812 -10.109375 -1.085938 -10.796875 -1.484375 C -12.015625 -2.160156 -12.625 -3.367188 -12.625 -5.109375 C -12.625 -6.546875 -12.234375 -7.597656 -11.453125 -8.265625 C -10.679688 -8.929688 -9.816406 -9.265625 -8.859375 -9.265625 C -7.847656 -9.265625 -6.988281 -8.910156 -6.28125 -8.203125 C -5.863281 -7.785156 -5.359375 -7.050781 -4.765625 -6 L -4.09375 -4.796875 C -3.78125 -4.210938 -3.476562 -3.757812 -3.1875 -3.4375 C -2.675781 -2.851562 -2.113281 -2.484375 -1.5 -2.328125 L -1.5 -9.203125 L 0 -9.203125 Z M 0 -0.5625 "/>
</g>
</g>
<clipPath id="clip-0">
<path clip-rule="nonzero" d="M 54.519531 8.964844 L 266.921875 8.964844 L 266.921875 162.480469 L 54.519531 162.480469 Z M 54.519531 8.964844 "/>
</clipPath>
<clipPath id="clip-1">
<path clip-rule="nonzero" d="M 54.519531 130 L 266.921875 130 L 266.921875 132 L 54.519531 132 Z M 54.519531 130 "/>
</clipPath>
<clipPath id="clip-2">
<path clip-rule="nonzero" d="M 54.519531 79 L 266.921875 79 L 266.921875 81 L 54.519531 81 Z M 54.519531 79 "/>
</clipPath>
<clipPath id="clip-3">
<path clip-rule="nonzero" d="M 54.519531 28 L 266.921875 28 L 266.921875 30 L 54.519531 30 Z M 54.519531 28 "/>
</clipPath>
<clipPath id="clip-4">
<path clip-rule="nonzero" d="M 89 8.964844 L 91 8.964844 L 91 162.480469 L 89 162.480469 Z M 89 8.964844 "/>
</clipPath>
<clipPath id="clip-5">
<path clip-rule="nonzero" d="M 143 8.964844 L 145 8.964844 L 145 162.480469 L 143 162.480469 Z M 143 8.964844 "/>
</clipPath>
<clipPath id="clip-6">
<path clip-rule="nonzero" d="M 197 8.964844 L 199 8.964844 L 199 162.480469 L 197 162.480469 Z M 197 8.964844 "/>
</clipPath>
<clipPath id="clip-7">
<path clip-rule="nonzero" d="M 251 8.964844 L 253 8.964844 L 253 162.480469 L 251 162.480469 Z M 251 8.964844 "/>
</clipPath>
<clipPath id="clip-8">
<path clip-rule="nonzero" d="M 54.519531 156 L 266.921875 156 L 266.921875 158 L 54.519531 158 Z M 54.519531 156 "/>
</clipPath>
<clipPath id="clip-9">
<path clip-rule="nonzero" d="M 54.519531 104 L 266.921875 104 L 266.921875 107 L 54.519531 107 Z M 54.519531 104 "/>
</clipPath>
<clipPath id="clip-10">
<path clip-rule="nonzero" d="M 54.519531 53 L 266.921875 53 L 266.921875 56 L 54.519531 56 Z M 54.519531 53 "/>
</clipPath>
<clipPath id="clip-11">
<path clip-rule="nonzero" d="M 62 8.964844 L 64 8.964844 L 64 162.480469 L 62 162.480469 Z M 62 8.964844 "/>
</clipPath>
<clipPath id="clip-12">
<path clip-rule="nonzero" d="M 116 8.964844 L 118 8.964844 L 118 162.480469 L 116 162.480469 Z M 116 8.964844 "/>
</clipPath>
<clipPath id="clip-13">
<path clip-rule="nonzero" d="M 170 8.964844 L 172 8.964844 L 172 162.480469 L 170 162.480469 Z M 170 8.964844 "/>
</clipPath>
<clipPath id="clip-14">
<path clip-rule="nonzero" d="M 224 8.964844 L 226 8.964844 L 226 162.480469 L 224 162.480469 Z M 224 8.964844 "/>
</clipPath>
<clipPath id="clip-15">
<path clip-rule="nonzero" d="M 54.519531 99 L 266.921875 99 L 266.921875 101 L 54.519531 101 Z M 54.519531 99 "/>
</clipPath>
<clipPath id="clip-16">
<path clip-rule="nonzero" d="M 54.519531 8.964844 L 266.921875 8.964844 L 266.921875 162.480469 L 54.519531 162.480469 Z M 54.519531 8.964844 "/>
</clipPath>
</defs>
<rect x="-38.3" y="-21.6" width="459.6" height="259.2" fill="rgb(100%, 100%, 100%)" fill-opacity="1"/>
<rect x="-38.3" y="-21.6" width="459.6" height="259.2" fill="rgb(100%, 100%, 100%)" fill-opacity="1"/>
<path fill="none" stroke-width="1.745965" stroke-linecap="round" stroke-linejoin="round" stroke="rgb(100%, 100%, 100%)" stroke-opacity="1" stroke-miterlimit="10" d="M 0 216 L 383 216 L 383 0 L 0 0 Z M 0 216 "/>
<g clip-path="url(#clip-0)">
<path fill-rule="nonzero" fill="rgb(100%, 100%, 100%)" fill-opacity="1" d="M 54.519531 162.480469 L 266.921875 162.480469 L 266.921875 8.964844 L 54.519531 8.964844 Z M 54.519531 162.480469 "/>
</g>
<g clip-path="url(#clip-1)">
<path fill="none" stroke-width="0.872982" stroke-linecap="butt" stroke-linejoin="round" stroke="rgb(92.156863%, 92.156863%, 92.156863%)" stroke-opacity="1" stroke-miterlimit="10" d="M 54.519531 131.371094 L 266.921875 131.371094 "/>
</g>
<g clip-path="url(#clip-2)">
<path fill="none" stroke-width="0.872982" stroke-linecap="butt" stroke-linejoin="round" stroke="rgb(92.156863%, 92.156863%, 92.156863%)" stroke-opacity="1" stroke-miterlimit="10" d="M 54.519531 80.167969 L 266.921875 80.167969 "/>
</g>
<g clip-path="url(#clip-3)">
<path fill="none" stroke-width="0.872982" stroke-linecap="butt" stroke-linejoin="round" stroke="rgb(92.156863%, 92.156863%, 92.156863%)" stroke-opacity="1" stroke-miterlimit="10" d="M 54.519531 28.964844 L 266.921875 28.964844 "/>
</g>
<g clip-path="url(#clip-4)">
<path fill="none" stroke-width="0.872982" stroke-linecap="butt" stroke-linejoin="round" stroke="rgb(92.156863%, 92.156863%, 92.156863%)" stroke-opacity="1" stroke-miterlimit="10" d="M 90.0625 162.480469 L 90.0625 8.964844 "/>
</g>
<g clip-path="url(#clip-5)">
<path fill="none" stroke-width="0.872982" stroke-linecap="butt" stroke-linejoin="round" stroke="rgb(92.156863%, 92.156863%, 92.156863%)" stroke-opacity="1" stroke-miterlimit="10" d="M 144 162.480469 L 144 8.964844 "/>
</g>
<g clip-path="url(#clip-6)">
<path fill="none" stroke-width="0.872982" stroke-linecap="butt" stroke-linejoin="round" stroke="rgb(92.156863%, 92.156863%, 92.156863%)" stroke-opacity="1" stroke-miterlimit="10" d="M 197.9375 162.480469 L 197.9375 8.964844 "/>
</g>
<g clip-path="url(#clip-7)">
<path fill="none" stroke-width="0.872982" stroke-linecap="butt" stroke-linejoin="round" stroke="rgb(92.156863%, 92.156863%, 92.156863%)" stroke-opacity="1" stroke-miterlimit="10" d="M 251.875 162.480469 L 251.875 8.964844 "/>
</g>
<g clip-path="url(#clip-8)">
<path fill="none" stroke-width="1.745965" stroke-linecap="butt" stroke-linejoin="round" stroke="rgb(92.156863%, 92.156863%, 92.156863%)" stroke-opacity="1" stroke-miterlimit="10" d="M 54.519531 156.96875 L 266.921875 156.96875 "/>
</g>
<g clip-path="url(#clip-9)">
<path fill="none" stroke-width="1.745965" stroke-linecap="butt" stroke-linejoin="round" stroke="rgb(92.156863%, 92.156863%, 92.156863%)" stroke-opacity="1" stroke-miterlimit="10" d="M 54.519531 105.769531 L 266.921875 105.769531 "/>
</g>
<g clip-path="url(#clip-10)">
<path fill="none" stroke-width="1.745965" stroke-linecap="butt" stroke-linejoin="round" stroke="rgb(92.156863%, 92.156863%, 92.156863%)" stroke-opacity="1" stroke-miterlimit="10" d="M 54.519531 54.566406 L 266.921875 54.566406 "/>
</g>
<g clip-path="url(#clip-11)">
<path fill="none" stroke-width="1.745965" stroke-linecap="butt" stroke-linejoin="round" stroke="rgb(92.156863%, 92.156863%, 92.156863%)" stroke-opacity="1" stroke-miterlimit="10" d="M 63.09375 162.480469 L 63.09375 8.964844 "/>
</g>
<g clip-path="url(#clip-12)">
<path fill="none" stroke-width="1.745965" stroke-linecap="butt" stroke-linejoin="round" stroke="rgb(92.156863%, 92.156863%, 92.156863%)" stroke-opacity="1" stroke-miterlimit="10" d="M 117.03125 162.480469 L 117.03125 8.964844 "/>
</g>
<g clip-path="url(#clip-13)">
<path fill="none" stroke-width="1.745965" stroke-linecap="butt" stroke-linejoin="round" stroke="rgb(92.156863%, 92.156863%, 92.156863%)" stroke-opacity="1" stroke-miterlimit="10" d="M 170.96875 162.480469 L 170.96875 8.964844 "/>
</g>
<g clip-path="url(#clip-14)">
<path fill="none" stroke-width="1.745965" stroke-linecap="butt" stroke-linejoin="round" stroke="rgb(92.156863%, 92.156863%, 92.156863%)" stroke-opacity="1" stroke-miterlimit="10" d="M 224.90625 162.480469 L 224.90625 8.964844 "/>
</g>
<path fill-rule="nonzero" fill="rgb(0%, 0%, 0%)" fill-opacity="1" d="M 66.886719 137.929688 C 66.886719 141.550781 61.460938 141.550781 61.460938 137.929688 C 61.460938 134.3125 66.886719 134.3125 66.886719 137.929688 "/>
<path fill-rule="nonzero" fill="rgb(0%, 0%, 0%)" fill-opacity="1" d="M 67.964844 150.035156 C 67.964844 153.652344 62.539062 153.652344 62.539062 150.035156 C 62.539062 146.417969 67.964844 146.417969 67.964844 150.035156 "/>
<path fill-rule="nonzero" fill="rgb(0%, 0%, 0%)" fill-opacity="1" d="M 69.046875 154.449219 C 69.046875 158.066406 63.617188 158.066406 63.617188 154.449219 C 63.617188 150.832031 69.046875 150.832031 69.046875 154.449219 "/>
<path fill-rule="nonzero" fill="rgb(0%, 0%, 0%)" fill-opacity="1" d="M 70.125 150.496094 C 70.125 154.113281 64.695312 154.113281 64.695312 150.496094 C 64.695312 146.875 70.125 146.875 70.125 150.496094 "/>
<path fill-rule="nonzero" fill="rgb(0%, 0%, 0%)" fill-opacity="1" d="M 71.203125 129.722656 C 71.203125 133.339844 65.773438 133.339844 65.773438 129.722656 C 65.773438 126.105469 71.203125 126.105469 71.203125 129.722656 "/>
<path fill-rule="nonzero" fill="rgb(0%, 0%, 0%)" fill-opacity="1" d="M 72.28125 135.179688 C 72.28125 138.796875 66.855469 138.796875 66.855469 135.179688 C 66.855469 131.5625 72.28125 131.5625 72.28125 135.179688 "/>
<path fill-rule="nonzero" fill="rgb(0%, 0%, 0%)" fill-opacity="1" d="M 73.359375 146.9375 C 73.359375 150.554688 67.933594 150.554688 67.933594 146.9375 C 67.933594 143.320312 73.359375 143.320312 73.359375 146.9375 "/>
<path fill-rule="nonzero" fill="rgb(0%, 0%, 0%)" fill-opacity="1" d="M 74.4375 150.882812 C 74.4375 154.5 69.011719 154.5 69.011719 150.882812 C 69.011719 147.265625 74.4375 147.265625 74.4375 150.882812 "/>
<path fill-rule="nonzero" fill="rgb(0%, 0%, 0%)" fill-opacity="1" d="M 75.519531 153.625 C 75.519531 157.242188 70.089844 157.242188 70.089844 153.625 C 70.089844 150.007812 75.519531 150.007812 75.519531 153.625 "/>
<path fill-rule="nonzero" fill="rgb(0%, 0%, 0%)" fill-opacity="1" d="M 76.597656 141.070312 C 76.597656 144.6875 71.167969 144.6875 71.167969 141.070312 C 71.167969 137.453125 76.597656 137.453125 76.597656 141.070312 "/>
<path fill-rule="nonzero" fill="rgb(0%, 0%, 0%)" fill-opacity="1" d="M 77.675781 124.757812 C 77.675781 128.375 72.246094 128.375 72.246094 124.757812 C 72.246094 121.136719 77.675781 121.136719 77.675781 124.757812 "/>
<path fill-rule="nonzero" fill="rgb(0%, 0%, 0%)" fill-opacity="1" d="M 78.753906 133.261719 C 78.753906 136.878906 73.328125 136.878906 73.328125 133.261719 C 73.328125 129.644531 78.753906 129.644531 78.753906 133.261719 "/>
<path fill-rule="nonzero" fill="rgb(0%, 0%, 0%)" fill-opacity="1" d="M 79.832031 144.960938 C 79.832031 148.578125 74.40625 148.578125 74.40625 144.960938 C 74.40625 141.339844 79.832031 141.339844 79.832031 144.960938 "/>
<path fill-rule="nonzero" fill="rgb(0%, 0%, 0%)" fill-opacity="1" d="M 80.910156 149.25 C 80.910156 152.867188 75.484375 152.867188 75.484375 149.25 C 75.484375 145.628906 80.910156 145.628906 80.910156 149.25 "/>
<path fill-rule="nonzero" fill="rgb(0%, 0%, 0%)" fill-opacity="1" d="M 81.988281 107.847656 C 81.988281 111.464844 76.5625 111.464844 76.5625 107.847656 C 76.5625 104.230469 81.988281 104.230469 81.988281 107.847656 "/>
<path fill-rule="nonzero" fill="rgb(0%, 0%, 0%)" fill-opacity="1" d="M 83.070312 145.230469 C 83.070312 148.847656 77.640625 148.847656 77.640625 145.230469 C 77.640625 141.613281 83.070312 141.613281 83.070312 145.230469 "/>
<path fill-rule="nonzero" fill="rgb(0%, 0%, 0%)" fill-opacity="1" d="M 84.148438 150.113281 C 84.148438 153.730469 78.71875 153.730469 78.71875 150.113281 C 78.71875 146.492188 84.148438 146.492188 84.148438 150.113281 "/>
<path fill-rule="nonzero" fill="rgb(0%, 0%, 0%)" fill-opacity="1" d="M 85.226562 146.46875 C 85.226562 150.085938 79.796875 150.085938 79.796875 146.46875 C 79.796875 142.851562 85.226562 142.851562 85.226562 146.46875 "/>
<path fill-rule="nonzero" fill="rgb(0%, 0%, 0%)" fill-opacity="1" d="M 86.304688 137.660156 C 86.304688 141.277344 80.878906 141.277344 80.878906 137.660156 C 80.878906 134.039062 86.304688 134.039062 86.304688 137.660156 "/>
<path fill-rule="nonzero" fill="rgb(0%, 0%, 0%)" fill-opacity="1" d="M 87.382812 120.460938 C 87.382812 124.078125 81.957031 124.078125 81.957031 120.460938 C 81.957031 116.84375 87.382812 116.84375 87.382812 120.460938 "/>
<path fill-rule="nonzero" fill="rgb(0%, 0%, 0%)" fill-opacity="1" d="M 88.460938 130.171875 C 88.460938 133.792969 83.035156 133.792969 83.035156 130.171875 C 83.035156 126.554688 88.460938 126.554688 88.460938 130.171875 "/>
<path fill-rule="nonzero" fill="rgb(0%, 0%, 100%)" fill-opacity="1" d="M 86.828125 84.570312 L 90.480469 90.902344 L 83.171875 90.902344 Z M 86.828125 84.570312 "/>
<path fill-rule="nonzero" fill="rgb(0%, 0%, 0%)" fill-opacity="1" d="M 90.621094 107.53125 C 90.621094 111.148438 85.191406 111.148438 85.191406 107.53125 C 85.191406 103.910156 90.621094 103.910156 90.621094 107.53125 "/>
<path fill-rule="nonzero" fill="rgb(0%, 0%, 0%)" fill-opacity="1" d="M 91.699219 139.285156 C 91.699219 142.902344 86.269531 142.902344 86.269531 139.285156 C 86.269531 135.664062 91.699219 135.664062 91.699219 139.285156 "/>
<path fill-rule="nonzero" fill="rgb(0%, 0%, 0%)" fill-opacity="1" d="M 92.777344 153.660156 C 92.777344 157.28125 87.351562 157.28125 87.351562 153.660156 C 87.351562 150.042969 92.777344 150.042969 92.777344 153.660156 "/>
<path fill-rule="nonzero" fill="rgb(0%, 0%, 0%)" fill-opacity="1" d="M 93.855469 140.152344 C 93.855469 143.773438 88.429688 143.773438 88.429688 140.152344 C 88.429688 136.535156 93.855469 136.535156 93.855469 140.152344 "/>
<path fill-rule="nonzero" fill="rgb(0%, 0%, 0%)" fill-opacity="1" d="M 94.933594 141.035156 C 94.933594 144.652344 89.507812 144.652344 89.507812 141.035156 C 89.507812 137.417969 94.933594 137.417969 94.933594 141.035156 "/>
<path fill-rule="nonzero" fill="rgb(0%, 0%, 0%)" fill-opacity="1" d="M 96.011719 124.164062 C 96.011719 127.78125 90.585938 127.78125 90.585938 124.164062 C 90.585938 120.546875 96.011719 120.546875 96.011719 124.164062 "/>
<path fill-rule="nonzero" fill="rgb(0%, 0%, 0%)" fill-opacity="1" d="M 97.09375 149.296875 C 97.09375 152.914062 91.664062 152.914062 91.664062 149.296875 C 91.664062 145.675781 97.09375 145.675781 97.09375 149.296875 "/>
<path fill-rule="nonzero" fill="rgb(0%, 0%, 100%)" fill-opacity="1" d="M 95.457031 11.722656 L 99.113281 18.054688 L 91.800781 18.054688 Z M 95.457031 11.722656 "/>
<path fill-rule="nonzero" fill="rgb(0%, 0%, 0%)" fill-opacity="1" d="M 99.25 113.96875 C 99.25 117.585938 93.820312 117.585938 93.820312 113.96875 C 93.820312 110.351562 99.25 110.351562 99.25 113.96875 "/>
<path fill-rule="nonzero" fill="rgb(0%, 0%, 0%)" fill-opacity="1" d="M 100.328125 132.550781 C 100.328125 136.171875 94.902344 136.171875 94.902344 132.550781 C 94.902344 128.933594 100.328125 128.933594 100.328125 132.550781 "/>
<path fill-rule="nonzero" fill="rgb(0%, 0%, 0%)" fill-opacity="1" d="M 101.40625 106.621094 C 101.40625 110.238281 95.980469 110.238281 95.980469 106.621094 C 95.980469 103 101.40625 103 101.40625 106.621094 "/>
<path fill-rule="nonzero" fill="rgb(0%, 0%, 0%)" fill-opacity="1" d="M 102.484375 151.421875 C 102.484375 155.039062 97.058594 155.039062 97.058594 151.421875 C 97.058594 147.804688 102.484375 147.804688 102.484375 151.421875 "/>
<path fill-rule="nonzero" fill="rgb(0%, 0%, 0%)" fill-opacity="1" d="M 103.566406 133.378906 C 103.566406 136.996094 98.136719 136.996094 98.136719 133.378906 C 98.136719 129.757812 103.566406 129.757812 103.566406 133.378906 "/>
<path fill-rule="nonzero" fill="rgb(0%, 0%, 0%)" fill-opacity="1" d="M 104.644531 144.210938 C 104.644531 147.832031 99.214844 147.832031 99.214844 144.210938 C 99.214844 140.59375 104.644531 140.59375 104.644531 144.210938 "/>
<path fill-rule="nonzero" fill="rgb(0%, 0%, 0%)" fill-opacity="1" d="M 105.722656 120.496094 C 105.722656 124.117188 100.292969 124.117188 100.292969 120.496094 C 100.292969 116.878906 105.722656 116.878906 105.722656 120.496094 "/>
<path fill-rule="nonzero" fill="rgb(0%, 0%, 0%)" fill-opacity="1" d="M 106.800781 128.273438 C 106.800781 131.894531 101.375 131.894531 101.375 128.273438 C 101.375 124.65625 106.800781 124.65625 106.800781 128.273438 "/>
<path fill-rule="nonzero" fill="rgb(0%, 0%, 0%)" fill-opacity="1" d="M 107.878906 151.355469 C 107.878906 154.972656 102.453125 154.972656 102.453125 151.355469 C 102.453125 147.738281 107.878906 147.738281 107.878906 151.355469 "/>
<path fill-rule="nonzero" fill="rgb(0%, 0%, 0%)" fill-opacity="1" d="M 108.957031 120.101562 C 108.957031 123.71875 103.53125 123.71875 103.53125 120.101562 C 103.53125 116.480469 108.957031 116.480469 108.957031 120.101562 "/>
<path fill-rule="nonzero" fill="rgb(0%, 0%, 0%)" fill-opacity="1" d="M 110.035156 152.269531 C 110.035156 155.886719 104.609375 155.886719 104.609375 152.269531 C 104.609375 148.652344 110.035156 148.652344 110.035156 152.269531 "/>
<path fill-rule="nonzero" fill="rgb(0%, 0%, 0%)" fill-opacity="1" d="M 111.117188 149.164062 C 111.117188 152.78125 105.6875 152.78125 105.6875 149.164062 C 105.6875 145.542969 111.117188 145.542969 111.117188 149.164062 "/>
<path fill-rule="nonzero" fill="rgb(0%, 0%, 0%)" fill-opacity="1" d="M 112.195312 149.785156 C 112.195312 153.40625 106.765625 153.40625 106.765625 149.785156 C 106.765625 146.167969 112.195312 146.167969 112.195312 149.785156 "/>
<path fill-rule="nonzero" fill="rgb(0%, 0%, 0%)" fill-opacity="1" d="M 113.273438 140.277344 C 113.273438 143.894531 107.84375 143.894531 107.84375 140.277344 C 107.84375 136.660156 113.273438 136.660156 113.273438 140.277344 "/>
<path fill-rule="nonzero" fill="rgb(0%, 0%, 0%)" fill-opacity="1" d="M 114.351562 150.226562 C 114.351562 153.847656 108.925781 153.847656 108.925781 150.226562 C 108.925781 146.609375 114.351562 146.609375 114.351562 150.226562 "/>
<path fill-rule="nonzero" fill="rgb(0%, 0%, 0%)" fill-opacity="1" d="M 115.429688 148.152344 C 115.429688 151.773438 110.003906 151.773438 110.003906 148.152344 C 110.003906 144.535156 115.429688 144.535156 115.429688 148.152344 "/>
<path fill-rule="nonzero" fill="rgb(0%, 0%, 0%)" fill-opacity="1" d="M 116.507812 150.296875 C 116.507812 153.917969 111.082031 153.917969 111.082031 150.296875 C 111.082031 146.679688 116.507812 146.679688 116.507812 150.296875 "/>
<path fill-rule="nonzero" fill="rgb(0%, 0%, 0%)" fill-opacity="1" d="M 117.589844 148.121094 C 117.589844 151.738281 112.160156 151.738281 112.160156 148.121094 C 112.160156 144.503906 117.589844 144.503906 117.589844 148.121094 "/>
<path fill-rule="nonzero" fill="rgb(0%, 0%, 0%)" fill-opacity="1" d="M 118.667969 133.957031 C 118.667969 137.574219 113.238281 137.574219 113.238281 133.957031 C 113.238281 130.335938 118.667969 130.335938 118.667969 133.957031 "/>
<path fill-rule="nonzero" fill="rgb(0%, 0%, 0%)" fill-opacity="1" d="M 119.746094 155.503906 C 119.746094 159.121094 114.316406 159.121094 114.316406 155.503906 C 114.316406 151.882812 119.746094 151.882812 119.746094 155.503906 "/>
<path fill-rule="nonzero" fill="rgb(0%, 0%, 0%)" fill-opacity="1" d="M 120.824219 151.847656 C 120.824219 155.464844 115.398438 155.464844 115.398438 151.847656 C 115.398438 148.230469 120.824219 148.230469 120.824219 151.847656 "/>
<path fill-rule="nonzero" fill="rgb(0%, 0%, 0%)" fill-opacity="1" d="M 121.902344 145.46875 C 121.902344 149.085938 116.476562 149.085938 116.476562 145.46875 C 116.476562 141.847656 121.902344 141.847656 121.902344 145.46875 "/>
<path fill-rule="nonzero" fill="rgb(0%, 0%, 0%)" fill-opacity="1" d="M 122.980469 146.929688 C 122.980469 150.550781 117.554688 150.550781 117.554688 146.929688 C 117.554688 143.3125 122.980469 143.3125 122.980469 146.929688 "/>
<path fill-rule="nonzero" fill="rgb(0%, 0%, 0%)" fill-opacity="1" d="M 124.0625 142.667969 C 124.0625 146.289062 118.632812 146.289062 118.632812 142.667969 C 118.632812 139.050781 124.0625 139.050781 124.0625 142.667969 "/>
<path fill-rule="nonzero" fill="rgb(0%, 0%, 0%)" fill-opacity="1" d="M 125.140625 127.730469 C 125.140625 131.347656 119.710938 131.347656 119.710938 127.730469 C 119.710938 124.113281 125.140625 124.113281 125.140625 127.730469 "/>
<path fill-rule="nonzero" fill="rgb(0%, 0%, 0%)" fill-opacity="1" d="M 126.21875 151.765625 C 126.21875 155.386719 120.789062 155.386719 120.789062 151.765625 C 120.789062 148.148438 126.21875 148.148438 126.21875 151.765625 "/>
<path fill-rule="nonzero" fill="rgb(0%, 0%, 0%)" fill-opacity="1" d="M 127.296875 112.34375 C 127.296875 115.964844 121.871094 115.964844 121.871094 112.34375 C 121.871094 108.726562 127.296875 108.726562 127.296875 112.34375 "/>
<path fill-rule="nonzero" fill="rgb(0%, 0%, 0%)" fill-opacity="1" d="M 128.375 116.757812 C 128.375 120.375 122.949219 120.375 122.949219 116.757812 C 122.949219 113.140625 128.375 113.140625 128.375 116.757812 "/>
<path fill-rule="nonzero" fill="rgb(0%, 0%, 100%)" fill-opacity="1" d="M 126.742188 45.992188 L 130.394531 52.320312 L 123.085938 52.320312 Z M 126.742188 45.992188 "/>
<path fill-rule="nonzero" fill="rgb(0%, 0%, 0%)" fill-opacity="1" d="M 130.53125 105.628906 C 130.53125 109.246094 125.105469 109.246094 125.105469 105.628906 C 125.105469 102.007812 130.53125 102.007812 130.53125 105.628906 "/>
<path fill-rule="nonzero" fill="rgb(0%, 0%, 0%)" fill-opacity="1" d="M 131.613281 140.21875 C 131.613281 143.835938 126.183594 143.835938 126.183594 140.21875 C 126.183594 136.597656 131.613281 136.597656 131.613281 140.21875 "/>
<path fill-rule="nonzero" fill="rgb(0%, 0%, 100%)" fill-opacity="1" d="M 129.976562 91.15625 L 133.632812 97.488281 L 126.320312 97.488281 Z M 129.976562 91.15625 "/>
<path fill-rule="nonzero" fill="rgb(0%, 0%, 100%)" fill-opacity="1" d="M 131.054688 67.855469 L 134.710938 74.1875 L 127.402344 74.1875 Z M 131.054688 67.855469 "/>
<path fill-rule="nonzero" fill="rgb(0%, 0%, 0%)" fill-opacity="1" d="M 134.847656 153.652344 C 134.847656 157.273438 129.421875 157.273438 129.421875 153.652344 C 129.421875 150.035156 134.847656 150.035156 134.847656 153.652344 "/>
<path fill-rule="nonzero" fill="rgb(0%, 0%, 0%)" fill-opacity="1" d="M 135.925781 149.648438 C 135.925781 153.265625 130.5 153.265625 130.5 149.648438 C 130.5 146.03125 135.925781 146.03125 135.925781 149.648438 "/>
<path fill-rule="nonzero" fill="rgb(0%, 0%, 0%)" fill-opacity="1" d="M 137.003906 132.261719 C 137.003906 135.878906 131.578125 135.878906 131.578125 132.261719 C 131.578125 128.644531 137.003906 128.644531 137.003906 132.261719 "/>
<path fill-rule="nonzero" fill="rgb(0%, 0%, 0%)" fill-opacity="1" d="M 138.085938 144.945312 C 138.085938 148.5625 132.65625 148.5625 132.65625 144.945312 C 132.65625 141.324219 138.085938 141.324219 138.085938 144.945312 "/>
<path fill-rule="nonzero" fill="rgb(0%, 0%, 0%)" fill-opacity="1" d="M 139.164062 124.585938 C 139.164062 128.203125 133.734375 128.203125 133.734375 124.585938 C 133.734375 120.96875 139.164062 120.96875 139.164062 124.585938 "/>
<path fill-rule="nonzero" fill="rgb(0%, 0%, 0%)" fill-opacity="1" d="M 140.242188 122.859375 C 140.242188 126.476562 134.8125 126.476562 134.8125 122.859375 C 134.8125 119.242188 140.242188 119.242188 140.242188 122.859375 "/>
<path fill-rule="nonzero" fill="rgb(0%, 0%, 0%)" fill-opacity="1" d="M 141.320312 144.871094 C 141.320312 148.488281 135.894531 148.488281 135.894531 144.871094 C 135.894531 141.253906 141.320312 141.253906 141.320312 144.871094 "/>
<path fill-rule="nonzero" fill="rgb(0%, 0%, 0%)" fill-opacity="1" d="M 142.398438 144.773438 C 142.398438 148.390625 136.972656 148.390625 136.972656 144.773438 C 136.972656 141.15625 142.398438 141.15625 142.398438 144.773438 "/>
<path fill-rule="nonzero" fill="rgb(0%, 0%, 0%)" fill-opacity="1" d="M 143.476562 130.90625 C 143.476562 134.527344 138.050781 134.527344 138.050781 130.90625 C 138.050781 127.289062 143.476562 127.289062 143.476562 130.90625 "/>
<path fill-rule="nonzero" fill="rgb(0%, 0%, 0%)" fill-opacity="1" d="M 144.554688 138.265625 C 144.554688 141.886719 139.128906 141.886719 139.128906 138.265625 C 139.128906 134.648438 144.554688 134.648438 144.554688 138.265625 "/>
<path fill-rule="nonzero" fill="rgb(0%, 0%, 0%)" fill-opacity="1" d="M 145.636719 127.664062 C 145.636719 131.28125 140.207031 131.28125 140.207031 127.664062 C 140.207031 124.046875 145.636719 124.046875 145.636719 127.664062 "/>
<path fill-rule="nonzero" fill="rgb(0%, 0%, 0%)" fill-opacity="1" d="M 146.714844 148.492188 C 146.714844 152.109375 141.285156 152.109375 141.285156 148.492188 C 141.285156 144.875 146.714844 144.875 146.714844 148.492188 "/>
<path fill-rule="nonzero" fill="rgb(0%, 0%, 0%)" fill-opacity="1" d="M 147.792969 134.644531 C 147.792969 138.261719 142.363281 138.261719 142.363281 134.644531 C 142.363281 131.027344 147.792969 131.027344 147.792969 134.644531 "/>
<path fill-rule="nonzero" fill="rgb(0%, 0%, 0%)" fill-opacity="1" d="M 148.871094 117.410156 C 148.871094 121.027344 143.445312 121.027344 143.445312 117.410156 C 143.445312 113.792969 148.871094 113.792969 148.871094 117.410156 "/>
<path fill-rule="nonzero" fill="rgb(0%, 0%, 0%)" fill-opacity="1" d="M 149.949219 125.210938 C 149.949219 128.828125 144.523438 128.828125 144.523438 125.210938 C 144.523438 121.589844 149.949219 121.589844 149.949219 125.210938 "/>
<path fill-rule="nonzero" fill="rgb(0%, 0%, 0%)" fill-opacity="1" d="M 151.027344 143.722656 C 151.027344 147.34375 145.601562 147.34375 145.601562 143.722656 C 145.601562 140.105469 151.027344 140.105469 151.027344 143.722656 "/>
<path fill-rule="nonzero" fill="rgb(0%, 0%, 0%)" fill-opacity="1" d="M 152.109375 140.117188 C 152.109375 143.734375 146.679688 143.734375 146.679688 140.117188 C 146.679688 136.496094 152.109375 136.496094 152.109375 140.117188 "/>
<path fill-rule="nonzero" fill="rgb(0%, 0%, 0%)" fill-opacity="1" d="M 153.1875 146.300781 C 153.1875 149.921875 147.757812 149.921875 147.757812 146.300781 C 147.757812 142.683594 153.1875 142.683594 153.1875 146.300781 "/>
<path fill-rule="nonzero" fill="rgb(0%, 0%, 0%)" fill-opacity="1" d="M 154.265625 139.570312 C 154.265625 143.191406 148.835938 143.191406 148.835938 139.570312 C 148.835938 135.953125 154.265625 135.953125 154.265625 139.570312 "/>
<path fill-rule="nonzero" fill="rgb(0%, 0%, 0%)" fill-opacity="1" d="M 155.34375 119.851562 C 155.34375 123.46875 149.917969 123.46875 149.917969 119.851562 C 149.917969 116.234375 155.34375 116.234375 155.34375 119.851562 "/>
<path fill-rule="nonzero" fill="rgb(0%, 0%, 0%)" fill-opacity="1" d="M 156.421875 134.007812 C 156.421875 137.628906 150.996094 137.628906 150.996094 134.007812 C 150.996094 130.390625 156.421875 130.390625 156.421875 134.007812 "/>
<path fill-rule="nonzero" fill="rgb(0%, 0%, 0%)" fill-opacity="1" d="M 157.5 145.667969 C 157.5 149.289062 152.074219 149.289062 152.074219 145.667969 C 152.074219 142.050781 157.5 142.050781 157.5 145.667969 "/>
<path fill-rule="nonzero" fill="rgb(0%, 0%, 0%)" fill-opacity="1" d="M 158.578125 137.3125 C 158.578125 140.929688 153.152344 140.929688 153.152344 137.3125 C 153.152344 133.691406 158.578125 133.691406 158.578125 137.3125 "/>
<path fill-rule="nonzero" fill="rgb(0%, 0%, 0%)" fill-opacity="1" d="M 159.660156 126.296875 C 159.660156 129.914062 154.230469 129.914062 154.230469 126.296875 C 154.230469 122.679688 159.660156 122.679688 159.660156 126.296875 "/>
<path fill-rule="nonzero" fill="rgb(0%, 0%, 0%)" fill-opacity="1" d="M 160.738281 110.875 C 160.738281 114.496094 155.308594 114.496094 155.308594 110.875 C 155.308594 107.257812 160.738281 107.257812 160.738281 110.875 "/>
<path fill-rule="nonzero" fill="rgb(0%, 0%, 0%)" fill-opacity="1" d="M 161.816406 136.496094 C 161.816406 140.113281 156.386719 140.113281 156.386719 136.496094 C 156.386719 132.878906 161.816406 132.878906 161.816406 136.496094 "/>
<path fill-rule="nonzero" fill="rgb(0%, 0%, 0%)" fill-opacity="1" d="M 162.894531 124.566406 C 162.894531 128.183594 157.46875 128.183594 157.46875 124.566406 C 157.46875 120.949219 162.894531 120.949219 162.894531 124.566406 "/>
<path fill-rule="nonzero" fill="rgb(0%, 0%, 0%)" fill-opacity="1" d="M 163.972656 130.242188 C 163.972656 133.859375 158.546875 133.859375 158.546875 130.242188 C 158.546875 126.625 163.972656 126.625 163.972656 130.242188 "/>
<path fill-rule="nonzero" fill="rgb(0%, 0%, 0%)" fill-opacity="1" d="M 165.050781 129.296875 C 165.050781 132.914062 159.625 132.914062 159.625 129.296875 C 159.625 125.675781 165.050781 125.675781 165.050781 129.296875 "/>
<path fill-rule="nonzero" fill="rgb(0%, 0%, 0%)" fill-opacity="1" d="M 166.132812 150.476562 C 166.132812 154.09375 160.703125 154.09375 160.703125 150.476562 C 160.703125 146.859375 166.132812 146.859375 166.132812 150.476562 "/>
<path fill-rule="nonzero" fill="rgb(0%, 0%, 0%)" fill-opacity="1" d="M 167.210938 114.679688 C 167.210938 118.296875 161.78125 118.296875 161.78125 114.679688 C 161.78125 111.0625 167.210938 111.0625 167.210938 114.679688 "/>
<path fill-rule="nonzero" fill="rgb(0%, 0%, 0%)" fill-opacity="1" d="M 168.289062 141.78125 C 168.289062 145.402344 162.859375 145.402344 162.859375 141.78125 C 162.859375 138.164062 168.289062 138.164062 168.289062 141.78125 "/>
<path fill-rule="nonzero" fill="rgb(0%, 0%, 0%)" fill-opacity="1" d="M 169.367188 135.675781 C 169.367188 139.296875 163.941406 139.296875 163.941406 135.675781 C 163.941406 132.058594 169.367188 132.058594 169.367188 135.675781 "/>
<path fill-rule="nonzero" fill="rgb(0%, 0%, 0%)" fill-opacity="1" d="M 170.445312 150.847656 C 170.445312 154.464844 165.019531 154.464844 165.019531 150.847656 C 165.019531 147.230469 170.445312 147.230469 170.445312 150.847656 "/>
<path fill-rule="nonzero" fill="rgb(0%, 0%, 100%)" fill-opacity="1" d="M 168.8125 94.367188 L 172.464844 100.699219 L 165.15625 100.699219 Z M 168.8125 94.367188 "/>
<path fill-rule="nonzero" fill="rgb(0%, 0%, 0%)" fill-opacity="1" d="M 172.605469 151.894531 C 172.605469 155.511719 167.175781 155.511719 167.175781 151.894531 C 167.175781 148.273438 172.605469 148.273438 172.605469 151.894531 "/>
<path fill-rule="nonzero" fill="rgb(0%, 0%, 0%)" fill-opacity="1" d="M 173.683594 137.722656 C 173.683594 141.339844 168.253906 141.339844 168.253906 137.722656 C 168.253906 134.105469 173.683594 134.105469 173.683594 137.722656 "/>
<path fill-rule="nonzero" fill="rgb(0%, 0%, 0%)" fill-opacity="1" d="M 174.761719 116.789062 C 174.761719 120.40625 169.332031 120.40625 169.332031 116.789062 C 169.332031 113.167969 174.761719 113.167969 174.761719 116.789062 "/>
<path fill-rule="nonzero" fill="rgb(0%, 0%, 0%)" fill-opacity="1" d="M 175.839844 135.742188 C 175.839844 139.359375 170.414062 139.359375 170.414062 135.742188 C 170.414062 132.121094 175.839844 132.121094 175.839844 135.742188 "/>
<path fill-rule="nonzero" fill="rgb(0%, 0%, 0%)" fill-opacity="1" d="M 176.917969 148.921875 C 176.917969 152.539062 171.492188 152.539062 171.492188 148.921875 C 171.492188 145.304688 176.917969 145.304688 176.917969 148.921875 "/>
<path fill-rule="nonzero" fill="rgb(0%, 0%, 0%)" fill-opacity="1" d="M 177.996094 130.414062 C 177.996094 134.03125 172.570312 134.03125 172.570312 130.414062 C 172.570312 126.796875 177.996094 126.796875 177.996094 130.414062 "/>
<path fill-rule="nonzero" fill="rgb(0%, 0%, 0%)" fill-opacity="1" d="M 179.074219 128.269531 C 179.074219 131.886719 173.648438 131.886719 173.648438 128.269531 C 173.648438 124.648438 179.074219 124.648438 179.074219 128.269531 "/>
<path fill-rule="nonzero" fill="rgb(0%, 0%, 0%)" fill-opacity="1" d="M 180.15625 148.707031 C 180.15625 152.324219 174.726562 152.324219 174.726562 148.707031 C 174.726562 145.089844 180.15625 145.089844 180.15625 148.707031 "/>
<path fill-rule="nonzero" fill="rgb(0%, 0%, 0%)" fill-opacity="1" d="M 181.234375 150.929688 C 181.234375 154.546875 175.804688 154.546875 175.804688 150.929688 C 175.804688 147.3125 181.234375 147.3125 181.234375 150.929688 "/>
<path fill-rule="nonzero" fill="rgb(0%, 0%, 0%)" fill-opacity="1" d="M 182.3125 136.289062 C 182.3125 139.90625 176.882812 139.90625 176.882812 136.289062 C 176.882812 132.667969 182.3125 132.667969 182.3125 136.289062 "/>
<path fill-rule="nonzero" fill="rgb(0%, 0%, 0%)" fill-opacity="1" d="M 183.390625 147.175781 C 183.390625 150.796875 177.964844 150.796875 177.964844 147.175781 C 177.964844 143.558594 183.390625 143.558594 183.390625 147.175781 "/>
<path fill-rule="nonzero" fill="rgb(0%, 0%, 0%)" fill-opacity="1" d="M 184.46875 133.148438 C 184.46875 136.765625 179.042969 136.765625 179.042969 133.148438 C 179.042969 129.527344 184.46875 129.527344 184.46875 133.148438 "/>
<path fill-rule="nonzero" fill="rgb(0%, 0%, 0%)" fill-opacity="1" d="M 185.546875 140.175781 C 185.546875 143.792969 180.121094 143.792969 180.121094 140.175781 C 180.121094 136.558594 185.546875 136.558594 185.546875 140.175781 "/>
<path fill-rule="nonzero" fill="rgb(0%, 0%, 0%)" fill-opacity="1" d="M 186.628906 145.683594 C 186.628906 149.304688 181.199219 149.304688 181.199219 145.683594 C 181.199219 142.066406 186.628906 142.066406 186.628906 145.683594 "/>
<path fill-rule="nonzero" fill="rgb(0%, 0%, 0%)" fill-opacity="1" d="M 187.707031 141.144531 C 187.707031 144.761719 182.277344 144.761719 182.277344 141.144531 C 182.277344 137.523438 187.707031 137.523438 187.707031 141.144531 "/>
<path fill-rule="nonzero" fill="rgb(0%, 0%, 0%)" fill-opacity="1" d="M 188.785156 136.875 C 188.785156 140.496094 183.355469 140.496094 183.355469 136.875 C 183.355469 133.257812 188.785156 133.257812 188.785156 136.875 "/>
<path fill-rule="nonzero" fill="rgb(0%, 0%, 0%)" fill-opacity="1" d="M 189.863281 148.238281 C 189.863281 151.855469 184.4375 151.855469 184.4375 148.238281 C 184.4375 144.621094 189.863281 144.621094 189.863281 148.238281 "/>
<path fill-rule="nonzero" fill="rgb(0%, 0%, 0%)" fill-opacity="1" d="M 190.941406 143.613281 C 190.941406 147.234375 185.515625 147.234375 185.515625 143.613281 C 185.515625 139.996094 190.941406 139.996094 190.941406 143.613281 "/>
<path fill-rule="nonzero" fill="rgb(0%, 0%, 0%)" fill-opacity="1" d="M 192.019531 126.035156 C 192.019531 129.652344 186.59375 129.652344 186.59375 126.035156 C 186.59375 122.417969 192.019531 122.417969 192.019531 126.035156 "/>
<path fill-rule="nonzero" fill="rgb(0%, 0%, 0%)" fill-opacity="1" d="M 193.097656 145.699219 C 193.097656 149.316406 187.671875 149.316406 187.671875 145.699219 C 187.671875 142.082031 193.097656 142.082031 193.097656 145.699219 "/>
<path fill-rule="nonzero" fill="rgb(0%, 0%, 0%)" fill-opacity="1" d="M 194.179688 150.839844 C 194.179688 154.457031 188.75 154.457031 188.75 150.839844 C 188.75 147.222656 194.179688 147.222656 194.179688 150.839844 "/>
<path fill-rule="nonzero" fill="rgb(0%, 0%, 0%)" fill-opacity="1" d="M 195.257812 151.390625 C 195.257812 155.007812 189.828125 155.007812 189.828125 151.390625 C 189.828125 147.769531 195.257812 147.769531 195.257812 151.390625 "/>
<path fill-rule="nonzero" fill="rgb(0%, 0%, 0%)" fill-opacity="1" d="M 196.335938 145.128906 C 196.335938 148.75 190.90625 148.75 190.90625 145.128906 C 190.90625 141.511719 196.335938 141.511719 196.335938 145.128906 "/>
<path fill-rule="nonzero" fill="rgb(0%, 0%, 0%)" fill-opacity="1" d="M 197.414062 143.386719 C 197.414062 147.003906 191.988281 147.003906 191.988281 143.386719 C 191.988281 139.769531 197.414062 139.769531 197.414062 143.386719 "/>
<path fill-rule="nonzero" fill="rgb(0%, 0%, 0%)" fill-opacity="1" d="M 198.492188 137.140625 C 198.492188 140.761719 193.066406 140.761719 193.066406 137.140625 C 193.066406 133.523438 198.492188 133.523438 198.492188 137.140625 "/>
<path fill-rule="nonzero" fill="rgb(0%, 0%, 0%)" fill-opacity="1" d="M 199.570312 116.355469 C 199.570312 119.972656 194.144531 119.972656 194.144531 116.355469 C 194.144531 112.738281 199.570312 112.738281 199.570312 116.355469 "/>
<path fill-rule="nonzero" fill="rgb(0%, 0%, 0%)" fill-opacity="1" d="M 200.652344 151.597656 C 200.652344 155.21875 195.222656 155.21875 195.222656 151.597656 C 195.222656 147.980469 200.652344 147.980469 200.652344 151.597656 "/>
<path fill-rule="nonzero" fill="rgb(0%, 0%, 0%)" fill-opacity="1" d="M 201.730469 135.351562 C 201.730469 138.96875 196.300781 138.96875 196.300781 135.351562 C 196.300781 131.730469 201.730469 131.730469 201.730469 135.351562 "/>
<path fill-rule="nonzero" fill="rgb(0%, 0%, 0%)" fill-opacity="1" d="M 202.808594 136.035156 C 202.808594 139.652344 197.378906 139.652344 197.378906 136.035156 C 197.378906 132.417969 202.808594 132.417969 202.808594 136.035156 "/>
<path fill-rule="nonzero" fill="rgb(0%, 0%, 0%)" fill-opacity="1" d="M 203.886719 139.105469 C 203.886719 142.722656 198.460938 142.722656 198.460938 139.105469 C 198.460938 135.488281 203.886719 135.488281 203.886719 139.105469 "/>
<path fill-rule="nonzero" fill="rgb(0%, 0%, 0%)" fill-opacity="1" d="M 204.964844 144.363281 C 204.964844 147.980469 199.539062 147.980469 199.539062 144.363281 C 199.539062 140.742188 204.964844 140.742188 204.964844 144.363281 "/>
<path fill-rule="nonzero" fill="rgb(0%, 0%, 0%)" fill-opacity="1" d="M 206.042969 137.464844 C 206.042969 141.085938 200.617188 141.085938 200.617188 137.464844 C 200.617188 133.847656 206.042969 133.847656 206.042969 137.464844 "/>
<path fill-rule="nonzero" fill="rgb(0%, 0%, 0%)" fill-opacity="1" d="M 207.121094 140.671875 C 207.121094 144.289062 201.695312 144.289062 201.695312 140.671875 C 201.695312 137.050781 207.121094 137.050781 207.121094 140.671875 "/>
<path fill-rule="nonzero" fill="rgb(0%, 0%, 0%)" fill-opacity="1" d="M 208.203125 117.101562 C 208.203125 120.71875 202.773438 120.71875 202.773438 117.101562 C 202.773438 113.484375 208.203125 113.484375 208.203125 117.101562 "/>
<path fill-rule="nonzero" fill="rgb(0%, 0%, 0%)" fill-opacity="1" d="M 209.28125 142.363281 C 209.28125 145.980469 203.851562 145.980469 203.851562 142.363281 C 203.851562 138.746094 209.28125 138.746094 209.28125 142.363281 "/>
<path fill-rule="nonzero" fill="rgb(0%, 0%, 100%)" fill-opacity="1" d="M 207.644531 94.730469 L 211.300781 101.058594 L 203.992188 101.058594 Z M 207.644531 94.730469 "/>
<path fill-rule="nonzero" fill="rgb(0%, 0%, 0%)" fill-opacity="1" d="M 211.4375 151.6875 C 211.4375 155.308594 206.011719 155.308594 206.011719 151.6875 C 206.011719 148.070312 211.4375 148.070312 211.4375 151.6875 "/>
<path fill-rule="nonzero" fill="rgb(0%, 0%, 0%)" fill-opacity="1" d="M 212.515625 139.882812 C 212.515625 143.5 207.089844 143.5 207.089844 139.882812 C 207.089844 136.261719 212.515625 136.261719 212.515625 139.882812 "/>
<path fill-rule="nonzero" fill="rgb(0%, 0%, 0%)" fill-opacity="1" d="M 213.59375 139.128906 C 213.59375 142.746094 208.167969 142.746094 208.167969 139.128906 C 208.167969 135.511719 213.59375 135.511719 213.59375 139.128906 "/>
<path fill-rule="nonzero" fill="rgb(0%, 0%, 0%)" fill-opacity="1" d="M 214.675781 140.992188 C 214.675781 144.609375 209.246094 144.609375 209.246094 140.992188 C 209.246094 137.375 214.675781 137.375 214.675781 140.992188 "/>
<path fill-rule="nonzero" fill="rgb(0%, 0%, 0%)" fill-opacity="1" d="M 215.753906 142.269531 C 215.753906 145.890625 210.324219 145.890625 210.324219 142.269531 C 210.324219 138.652344 215.753906 138.652344 215.753906 142.269531 "/>
<path fill-rule="nonzero" fill="rgb(0%, 0%, 0%)" fill-opacity="1" d="M 216.832031 149.1875 C 216.832031 152.804688 211.402344 152.804688 211.402344 149.1875 C 211.402344 145.570312 216.832031 145.570312 216.832031 149.1875 "/>
<path fill-rule="nonzero" fill="rgb(0%, 0%, 0%)" fill-opacity="1" d="M 217.910156 132.351562 C 217.910156 135.96875 212.484375 135.96875 212.484375 132.351562 C 212.484375 128.730469 217.910156 128.730469 217.910156 132.351562 "/>
<path fill-rule="nonzero" fill="rgb(0%, 0%, 0%)" fill-opacity="1" d="M 218.988281 139.261719 C 218.988281 142.878906 213.5625 142.878906 213.5625 139.261719 C 213.5625 135.644531 218.988281 135.644531 218.988281 139.261719 "/>
<path fill-rule="nonzero" fill="rgb(0%, 0%, 0%)" fill-opacity="1" d="M 220.066406 121.488281 C 220.066406 125.105469 214.640625 125.105469 214.640625 121.488281 C 214.640625 117.867188 220.066406 117.867188 220.066406 121.488281 "/>
<path fill-rule="nonzero" fill="rgb(0%, 0%, 0%)" fill-opacity="1" d="M 221.148438 143.785156 C 221.148438 147.402344 215.71875 147.402344 215.71875 143.785156 C 215.71875 140.167969 221.148438 140.167969 221.148438 143.785156 "/>
<path fill-rule="nonzero" fill="rgb(0%, 0%, 0%)" fill-opacity="1" d="M 222.226562 140.964844 C 222.226562 144.582031 216.796875 144.582031 216.796875 140.964844 C 216.796875 137.347656 222.226562 137.347656 222.226562 140.964844 "/>
<path fill-rule="nonzero" fill="rgb(0%, 0%, 0%)" fill-opacity="1" d="M 223.304688 140.632812 C 223.304688 144.25 217.875 144.25 217.875 140.632812 C 217.875 137.015625 223.304688 137.015625 223.304688 140.632812 "/>
<path fill-rule="nonzero" fill="rgb(0%, 0%, 100%)" fill-opacity="1" d="M 221.667969 90.238281 L 225.324219 96.570312 L 218.015625 96.570312 Z M 221.667969 90.238281 "/>
<path fill-rule="nonzero" fill="rgb(0%, 0%, 0%)" fill-opacity="1" d="M 225.460938 140.070312 C 225.460938 143.6875 220.035156 143.6875 220.035156 140.070312 C 220.035156 136.453125 225.460938 136.453125 225.460938 140.070312 "/>
<path fill-rule="nonzero" fill="rgb(0%, 0%, 0%)" fill-opacity="1" d="M 226.539062 133.515625 C 226.539062 137.132812 221.113281 137.132812 221.113281 133.515625 C 221.113281 129.898438 226.539062 129.898438 226.539062 133.515625 "/>
<path fill-rule="nonzero" fill="rgb(0%, 0%, 0%)" fill-opacity="1" d="M 227.617188 139.496094 C 227.617188 143.113281 222.191406 143.113281 222.191406 139.496094 C 222.191406 135.878906 227.617188 135.878906 227.617188 139.496094 "/>
<path fill-rule="nonzero" fill="rgb(0%, 0%, 0%)" fill-opacity="1" d="M 228.699219 140 C 228.699219 143.617188 223.269531 143.617188 223.269531 140 C 223.269531 136.382812 228.699219 136.382812 228.699219 140 "/>
<path fill-rule="nonzero" fill="rgb(0%, 0%, 0%)" fill-opacity="1" d="M 229.777344 133.472656 C 229.777344 137.089844 224.347656 137.089844 224.347656 133.472656 C 224.347656 129.851562 229.777344 129.851562 229.777344 133.472656 "/>
<path fill-rule="nonzero" fill="rgb(0%, 0%, 0%)" fill-opacity="1" d="M 230.855469 150.515625 C 230.855469 154.132812 225.425781 154.132812 225.425781 150.515625 C 225.425781 146.894531 230.855469 146.894531 230.855469 150.515625 "/>
<path fill-rule="nonzero" fill="rgb(0%, 0%, 0%)" fill-opacity="1" d="M 231.933594 149.519531 C 231.933594 153.140625 226.507812 153.140625 226.507812 149.519531 C 226.507812 145.902344 231.933594 145.902344 231.933594 149.519531 "/>
<path fill-rule="nonzero" fill="rgb(0%, 0%, 0%)" fill-opacity="1" d="M 233.011719 120.222656 C 233.011719 123.839844 227.585938 123.839844 227.585938 120.222656 C 227.585938 116.601562 233.011719 116.601562 233.011719 120.222656 "/>
<path fill-rule="nonzero" fill="rgb(0%, 0%, 0%)" fill-opacity="1" d="M 234.089844 140.121094 C 234.089844 143.742188 228.664062 143.742188 228.664062 140.121094 C 228.664062 136.503906 234.089844 136.503906 234.089844 140.121094 "/>
<path fill-rule="nonzero" fill="rgb(0%, 0%, 0%)" fill-opacity="1" d="M 235.171875 131.773438 C 235.171875 135.390625 229.742188 135.390625 229.742188 131.773438 C 229.742188 128.152344 235.171875 128.152344 235.171875 131.773438 "/>
<path fill-rule="nonzero" fill="rgb(0%, 0%, 0%)" fill-opacity="1" d="M 236.25 128.601562 C 236.25 132.21875 230.820312 132.21875 230.820312 128.601562 C 230.820312 124.984375 236.25 124.984375 236.25 128.601562 "/>
<path fill-rule="nonzero" fill="rgb(0%, 0%, 0%)" fill-opacity="1" d="M 237.328125 114.292969 C 237.328125 117.910156 231.898438 117.910156 231.898438 114.292969 C 231.898438 110.671875 237.328125 110.671875 237.328125 114.292969 "/>
<path fill-rule="nonzero" fill="rgb(0%, 0%, 0%)" fill-opacity="1" d="M 238.40625 141.199219 C 238.40625 144.816406 232.980469 144.816406 232.980469 141.199219 C 232.980469 137.582031 238.40625 137.582031 238.40625 141.199219 "/>
<path fill-rule="nonzero" fill="rgb(0%, 0%, 0%)" fill-opacity="1" d="M 239.484375 141.621094 C 239.484375 145.242188 234.058594 145.242188 234.058594 141.621094 C 234.058594 138.003906 239.484375 138.003906 239.484375 141.621094 "/>
<path fill-rule="nonzero" fill="rgb(0%, 0%, 0%)" fill-opacity="1" d="M 240.5625 133.386719 C 240.5625 137.007812 235.136719 137.007812 235.136719 133.386719 C 235.136719 129.769531 240.5625 129.769531 240.5625 133.386719 "/>
<path fill-rule="nonzero" fill="rgb(0%, 0%, 0%)" fill-opacity="1" d="M 241.640625 111.378906 C 241.640625 114.996094 236.214844 114.996094 236.214844 111.378906 C 236.214844 107.761719 241.640625 107.761719 241.640625 111.378906 "/>
<path fill-rule="nonzero" fill="rgb(0%, 0%, 0%)" fill-opacity="1" d="M 242.722656 147.574219 C 242.722656 151.191406 237.292969 151.191406 237.292969 147.574219 C 237.292969 143.953125 242.722656 143.953125 242.722656 147.574219 "/>
<path fill-rule="nonzero" fill="rgb(0%, 0%, 0%)" fill-opacity="1" d="M 243.800781 146.53125 C 243.800781 150.148438 238.371094 150.148438 238.371094 146.53125 C 238.371094 142.914062 243.800781 142.914062 243.800781 146.53125 "/>
<path fill-rule="nonzero" fill="rgb(0%, 0%, 0%)" fill-opacity="1" d="M 244.878906 145.714844 C 244.878906 149.332031 239.449219 149.332031 239.449219 145.714844 C 239.449219 142.097656 244.878906 142.097656 244.878906 145.714844 "/>
<path fill-rule="nonzero" fill="rgb(0%, 0%, 0%)" fill-opacity="1" d="M 245.957031 128.210938 C 245.957031 131.832031 240.53125 131.832031 240.53125 128.210938 C 240.53125 124.59375 245.957031 124.59375 245.957031 128.210938 "/>
<path fill-rule="nonzero" fill="rgb(0%, 0%, 0%)" fill-opacity="1" d="M 247.035156 117.921875 C 247.035156 121.539062 241.609375 121.539062 241.609375 117.921875 C 241.609375 114.300781 247.035156 114.300781 247.035156 117.921875 "/>
<path fill-rule="nonzero" fill="rgb(0%, 0%, 100%)" fill-opacity="1" d="M 245.402344 92.410156 L 249.054688 98.738281 L 241.746094 98.738281 Z M 245.402344 92.410156 "/>
<path fill-rule="nonzero" fill="rgb(0%, 0%, 0%)" fill-opacity="1" d="M 249.195312 141.878906 C 249.195312 145.496094 243.765625 145.496094 243.765625 141.878906 C 243.765625 138.257812 249.195312 138.257812 249.195312 141.878906 "/>
<path fill-rule="nonzero" fill="rgb(0%, 0%, 0%)" fill-opacity="1" d="M 250.273438 126.496094 C 250.273438 130.117188 244.84375 130.117188 244.84375 126.496094 C 244.84375 122.878906 250.273438 122.878906 250.273438 126.496094 "/>
<path fill-rule="nonzero" fill="rgb(0%, 0%, 0%)" fill-opacity="1" d="M 251.351562 102.480469 C 251.351562 106.097656 245.921875 106.097656 245.921875 102.480469 C 245.921875 98.863281 251.351562 98.863281 251.351562 102.480469 "/>
<path fill-rule="nonzero" fill="rgb(0%, 0%, 0%)" fill-opacity="1" d="M 252.429688 124.53125 C 252.429688 128.148438 247.003906 128.148438 247.003906 124.53125 C 247.003906 120.914062 252.429688 120.914062 252.429688 124.53125 "/>
<path fill-rule="nonzero" fill="rgb(0%, 0%, 0%)" fill-opacity="1" d="M 253.507812 135.980469 C 253.507812 139.597656 248.082031 139.597656 248.082031 135.980469 C 248.082031 132.363281 253.507812 132.363281 253.507812 135.980469 "/>
<path fill-rule="nonzero" fill="rgb(0%, 0%, 0%)" fill-opacity="1" d="M 254.585938 130.59375 C 254.585938 134.214844 249.160156 134.214844 249.160156 130.59375 C 249.160156 126.976562 254.585938 126.976562 254.585938 130.59375 "/>
<path fill-rule="nonzero" fill="rgb(0%, 0%, 0%)" fill-opacity="1" d="M 255.664062 130.117188 C 255.664062 133.734375 250.238281 133.734375 250.238281 130.117188 C 250.238281 126.496094 255.664062 126.496094 255.664062 130.117188 "/>
<path fill-rule="nonzero" fill="rgb(0%, 0%, 0%)" fill-opacity="1" d="M 256.746094 148.054688 C 256.746094 151.671875 251.316406 151.671875 251.316406 148.054688 C 251.316406 144.433594 256.746094 144.433594 256.746094 148.054688 "/>
<path fill-rule="nonzero" fill="rgb(0%, 0%, 0%)" fill-opacity="1" d="M 257.824219 139.644531 C 257.824219 143.261719 252.394531 143.261719 252.394531 139.644531 C 252.394531 136.027344 257.824219 136.027344 257.824219 139.644531 "/>
<path fill-rule="nonzero" fill="rgb(0%, 0%, 0%)" fill-opacity="1" d="M 258.902344 107.230469 C 258.902344 110.847656 253.472656 110.847656 253.472656 107.230469 C 253.472656 103.613281 258.902344 103.613281 258.902344 107.230469 "/>
<path fill-rule="nonzero" fill="rgb(0%, 0%, 0%)" fill-opacity="1" d="M 259.980469 132.617188 C 259.980469 136.234375 254.554688 136.234375 254.554688 132.617188 C 254.554688 129 259.980469 129 259.980469 132.617188 "/>
<g clip-path="url(#clip-15)">
<path fill="none" stroke-width="1.745965" stroke-linecap="butt" stroke-linejoin="round" stroke="rgb(0%, 0%, 0%)" stroke-opacity="1" stroke-dasharray="6.983858 6.983858" stroke-miterlimit="10" d="M 54.519531 99.914062 L 266.921875 99.914062 "/>
</g>
<g clip-path="url(#clip-16)">
<path fill="none" stroke-width="1.745965" stroke-linecap="round" stroke-linejoin="round" stroke="rgb(20%, 20%, 20%)" stroke-opacity="1" stroke-miterlimit="10" d="M 54.519531 162.480469 L 266.921875 162.480469 L 266.921875 8.964844 L 54.519531 8.964844 Z M 54.519531 162.480469 "/>
</g>
<g fill="rgb(30.196078%, 30.196078%, 30.196078%)" fill-opacity="1">
<use xlink:href="#glyph-0-1" x="38.449219" y="161.556641"/>
</g>
<g fill="rgb(30.196078%, 30.196078%, 30.196078%)" fill-opacity="1">
<use xlink:href="#glyph-0-2" x="30.449219" y="110.357422"/>
<use xlink:href="#glyph-0-1" x="38.449219" y="110.357422"/>
</g>
<g fill="rgb(30.196078%, 30.196078%, 30.196078%)" fill-opacity="1">
<use xlink:href="#glyph-0-3" x="30.449219" y="59.154297"/>
<use xlink:href="#glyph-0-1" x="38.449219" y="59.154297"/>
</g>
<path fill="none" stroke-width="1.745965" stroke-linecap="butt" stroke-linejoin="round" stroke="rgb(20%, 20%, 20%)" stroke-opacity="1" stroke-miterlimit="10" d="M 50.035156 156.96875 L 54.519531 156.96875 "/>
<path fill="none" stroke-width="1.745965" stroke-linecap="butt" stroke-linejoin="round" stroke="rgb(20%, 20%, 20%)" stroke-opacity="1" stroke-miterlimit="10" d="M 50.035156 105.769531 L 54.519531 105.769531 "/>
<path fill="none" stroke-width="1.745965" stroke-linecap="butt" stroke-linejoin="round" stroke="rgb(20%, 20%, 20%)" stroke-opacity="1" stroke-miterlimit="10" d="M 50.035156 54.566406 L 54.519531 54.566406 "/>
<path fill="none" stroke-width="1.745965" stroke-linecap="butt" stroke-linejoin="round" stroke="rgb(20%, 20%, 20%)" stroke-opacity="1" stroke-miterlimit="10" d="M 63.09375 166.964844 L 63.09375 162.480469 "/>
<path fill="none" stroke-width="1.745965" stroke-linecap="butt" stroke-linejoin="round" stroke="rgb(20%, 20%, 20%)" stroke-opacity="1" stroke-miterlimit="10" d="M 117.03125 166.964844 L 117.03125 162.480469 "/>
<path fill="none" stroke-width="1.745965" stroke-linecap="butt" stroke-linejoin="round" stroke="rgb(20%, 20%, 20%)" stroke-opacity="1" stroke-miterlimit="10" d="M 170.96875 166.964844 L 170.96875 162.480469 "/>
<path fill="none" stroke-width="1.745965" stroke-linecap="butt" stroke-linejoin="round" stroke="rgb(20%, 20%, 20%)" stroke-opacity="1" stroke-miterlimit="10" d="M 224.90625 166.964844 L 224.90625 162.480469 "/>
<g fill="rgb(30.196078%, 30.196078%, 30.196078%)" fill-opacity="1">
<use xlink:href="#glyph-0-1" x="59.09375" y="180.638672"/>
</g>
<g fill="rgb(30.196078%, 30.196078%, 30.196078%)" fill-opacity="1">
<use xlink:href="#glyph-0-4" x="109.03125" y="180.638672"/>
<use xlink:href="#glyph-0-1" x="117.03125" y="180.638672"/>
</g>
<g fill="rgb(30.196078%, 30.196078%, 30.196078%)" fill-opacity="1">
<use xlink:href="#glyph-0-2" x="158.96875" y="180.638672"/>
<use xlink:href="#glyph-0-1" x="166.96875" y="180.638672"/>
<use xlink:href="#glyph-0-1" x="174.96875" y="180.638672"/>
</g>
<g fill="rgb(30.196078%, 30.196078%, 30.196078%)" fill-opacity="1">
<use xlink:href="#glyph-0-2" x="212.90625" y="180.638672"/>
<use xlink:href="#glyph-0-4" x="220.90625" y="180.638672"/>
<use xlink:href="#glyph-0-1" x="228.90625" y="180.638672"/>
</g>
<g fill="rgb(0%, 0%, 0%)" fill-opacity="1">
<use xlink:href="#glyph-1-1" x="146.21875" y="202.895508"/>
<use xlink:href="#glyph-1-2" x="156.21875" y="202.895508"/>
<use xlink:href="#glyph-1-3" x="166.21875" y="202.895508"/>
</g>
<g fill="rgb(0%, 0%, 0%)" fill-opacity="1">
<use xlink:href="#glyph-2-1" x="21.825195" y="103.722656"/>
<use xlink:href="#glyph-2-2" x="21.825195" y="90.722656"/>
<use xlink:href="#glyph-2-3" x="21.825195" y="77.722656"/>
</g>
<path fill-rule="nonzero" fill="rgb(100%, 100%, 100%)" fill-opacity="1" d="M 284.855469 124.953125 L 374.035156 124.953125 L 374.035156 46.492188 L 284.855469 46.492188 Z M 284.855469 124.953125 "/>
<g fill="rgb(0%, 0%, 0%)" fill-opacity="1">
<use xlink:href="#glyph-1-4" x="293.820312" y="70.321289"/>
<use xlink:href="#glyph-1-5" x="302.820312" y="70.321289"/>
<use xlink:href="#glyph-1-6" x="312.820312" y="70.321289"/>
</g>
<path fill-rule="nonzero" fill="rgb(100%, 100%, 100%)" fill-opacity="1" d="M 293.820312 98.707031 L 311.101562 98.707031 L 311.101562 81.425781 L 293.820312 81.425781 Z M 293.820312 98.707031 "/>
<path fill-rule="nonzero" fill="rgb(0%, 0%, 0%)" fill-opacity="1" d="M 305.175781 90.066406 C 305.175781 93.683594 299.746094 93.683594 299.746094 90.066406 C 299.746094 86.449219 305.175781 86.449219 305.175781 90.066406 "/>
<path fill-rule="nonzero" fill="rgb(100%, 100%, 100%)" fill-opacity="1" d="M 293.820312 115.988281 L 311.101562 115.988281 L 311.101562 98.707031 L 293.820312 98.707031 Z M 293.820312 115.988281 "/>
<path fill-rule="nonzero" fill="rgb(0%, 0%, 100%)" fill-opacity="1" d="M 302.460938 103.125 L 306.117188 109.457031 L 298.804688 109.457031 Z M 302.460938 103.125 "/>
<g fill="rgb(0%, 0%, 0%)" fill-opacity="1">
<use xlink:href="#glyph-0-5" x="320.066406" y="94.654297"/>
<use xlink:href="#glyph-0-6" x="328.066406" y="94.654297"/>
<use xlink:href="#glyph-0-7" x="337.066406" y="94.654297"/>
<use xlink:href="#glyph-0-8" x="345.066406" y="94.654297"/>
<use xlink:href="#glyph-0-9" x="355.066406" y="94.654297"/>
</g>
<g fill="rgb(0%, 0%, 0%)" fill-opacity="1">
<use xlink:href="#glyph-0-10" x="320.066406" y="111.935547"/>
<use xlink:href="#glyph-0-11" x="329.066406" y="111.935547"/>
<use xlink:href="#glyph-0-12" x="339.066406" y="111.935547"/>
<use xlink:href="#glyph-0-9" x="349.066406" y="111.935547"/>
</g>
</svg>
